<svg xmlns="http://www.w3.org/2000/svg" xmlns:xlink="http://www.w3.org/1999/xlink" width="64" height="64" viewBox="0 0 64 64">
  <defs>
    <clipPath id="clip-path">
      <path id="Path_25951" data-name="Path 25951" d="M0,0H64V64H0Z" transform="translate(456 4386)" fill="#fff"/>
    </clipPath>
    <linearGradient id="linear-gradient" x1="1.023" y1="1.25" x2="-0.023" y2="-0.25" gradientUnits="objectBoundingBox">
      <stop offset="0" stop-color="#0877bb"/>
      <stop offset="1" stop-color="#19abc9"/>
    </linearGradient>
    <filter id="Ellipse_1" x="-2" y="1" width="68.804" height="68.592" filterUnits="userSpaceOnUse">
      <feOffset dy="3" input="SourceAlpha"/>
      <feGaussianBlur stdDeviation="4" result="blur"/>
      <feFlood flood-color="#0780e9" flood-opacity="0.698"/>
      <feComposite operator="in" in2="blur"/>
      <feComposite in="SourceGraphic"/>
    </filter>
  </defs>
  <g id="Mask_Group_15654" data-name="Mask Group 15654" transform="translate(-456 -4386)" clip-path="url(#clip-path)">
    <g id="Group_16228" data-name="Group 16228" transform="translate(89.001 18)">
      <g id="Group_5287" data-name="Group 5287" transform="translate(238 3002)">
        <g id="Group_5249" data-name="Group 5249" transform="translate(35.459 -173.747)">
          <g id="Group_5246" data-name="Group 5246" transform="translate(103.54 1549.747)">
            <g transform="matrix(1, 0, 0, 1, -10, -10)" filter="url(#Ellipse_1)">
              <ellipse id="Ellipse_1-2" data-name="Ellipse 1" cx="22.402" cy="22.296" rx="22.402" ry="22.296" transform="translate(10 10)" fill="url(#linear-gradient)"/>
            </g>
          </g>
        </g>
      </g>
      <g id="file_2_" data-name="file (2)" transform="translate(389.499 4389)">
        <path id="Path_7740" data-name="Path 7740" d="M19.85,22H10.86a.36.36,0,0,0,0,.719H19.85a.36.36,0,1,0,0-.719Z" transform="translate(-6.404 -14.088)" fill="#fff" stroke="#fff" stroke-width="0.3"/>
        <path id="Path_7741" data-name="Path 7741" d="M10.86,14.719h3.6a.36.36,0,0,0,0-.719h-3.6a.36.36,0,0,0,0,.719Z" transform="translate(-6.404 -8.965)" fill="#fff" stroke="#fff" stroke-width="0.3"/>
        <path id="Path_7742" data-name="Path 7742" d="M20.21,30.36a.36.36,0,0,0-.36-.36H10.86a.36.36,0,1,0,0,.719H19.85A.36.36,0,0,0,20.21,30.36Z" transform="translate(-6.404 -19.211)" fill="#fff" stroke="#fff" stroke-width="0.3"/>
        <path id="Path_7743" data-name="Path 7743" d="M17.333,38.36a.36.36,0,0,0-.36-.36H10.86a.36.36,0,1,0,0,.719h6.114A.36.36,0,0,0,17.333,38.36Z" transform="translate(-6.404 -24.334)" fill="#fff" stroke="#fff" stroke-width="0.3"/>
        <path id="Path_7744" data-name="Path 7744" d="M10.86,46a.36.36,0,0,0,0,.719h5.035a.36.36,0,0,0,0-.719Z" transform="translate(-6.404 -29.457)" fill="#fff" stroke="#fff" stroke-width="0.3"/>
        <path id="Path_7745" data-name="Path 7745" d="M1.219.719H11.648V5.754h5.035v5.035H17.4V5.245L12.157,0H.5V21.577H13.087v-.719H1.219Zm11.148.509,3.807,3.807H12.368Z" fill="#fff" stroke="#fff" stroke-width="0.3"/>
        <path id="Path_7746" data-name="Path 7746" d="M40.922,48.007a.359.359,0,0,0-.424.281A3.942,3.942,0,0,1,36.624,51.6a4.147,4.147,0,0,1-3.937-2.877h1.69V48H31.5v2.877h.719V49.493a4.871,4.871,0,0,0,4.405,2.822A4.646,4.646,0,0,0,41.2,48.431.36.36,0,0,0,40.922,48.007Z" transform="translate(-19.852 -30.738)" fill="#fff" stroke="#fff" stroke-width="0.3"/>
        <path id="Path_7747" data-name="Path 7747" d="M41.491,34.079v1.549A4.72,4.72,0,0,0,37.265,33a4.94,4.94,0,0,0-4.75,3.5.36.36,0,0,0,.69.2,4.272,4.272,0,0,1,4.06-2.978,4.021,4.021,0,0,1,3.715,2.517H39.333v.719H42.21V34.079Z" transform="translate(-20.492 -21.132)" fill="#fff" stroke="#fff" stroke-width="0.3"/>
      </g>
    </g>
  </g>
</svg>
