<svg xmlns="http://www.w3.org/2000/svg" width="95" height="60" viewBox="0 0 95 60">
  <g id="play" transform="translate(-18042 -1244)">
    <g id="Rectangle_239" data-name="Rectangle 239" transform="translate(18042 1244)" fill="#666" stroke="#707070" stroke-width="1" opacity="0.64">
      <rect width="95" height="60" rx="12" stroke="none"/>
      <rect x="0.5" y="0.5" width="94" height="59" rx="11.5" fill="none"/>
    </g>
    <g id="Group_1014" data-name="Group 1014" transform="translate(18078 1257)">
      <path id="Path_1370" data-name="Path 1370" d="M3.417,34.34A2.911,2.911,0,0,1,.5,31.423V3.417A2.911,2.911,0,0,1,3.417.5,2.784,2.784,0,0,1,4.853.9l24.234,14a2.962,2.962,0,0,1,1.481,2.513,2.817,2.817,0,0,1-1.481,2.513L4.9,33.936a3.069,3.069,0,0,1-1.481.4Z" transform="translate(-0.271 -0.271)" fill="#fff"/>
      <path id="Path_1371" data-name="Path 1371" d="M3.142.449A2.877,2.877,0,0,1,4.489.808L28.731,14.814a2.7,2.7,0,0,1,0,4.669L4.489,33.489a2.742,2.742,0,0,1-1.347.359A2.7,2.7,0,0,1,.449,31.155V3.142A2.7,2.7,0,0,1,3.142.449m0-.449A3.15,3.15,0,0,0,0,3.142V31.155A3.15,3.15,0,0,0,3.142,34.3a3.276,3.276,0,0,0,1.571-.4L28.955,19.887a3.122,3.122,0,0,0,0-5.432L4.714.449A2.888,2.888,0,0,0,3.142,0Z" transform="translate(0 0)" fill="#fff"/>
    </g>
  </g>
</svg>
