<svg xmlns="http://www.w3.org/2000/svg" xmlns:xlink="http://www.w3.org/1999/xlink" width="64" height="64" viewBox="0 0 64 64">
  <defs>
    <clipPath id="clip-path">
      <path id="Path_25952" data-name="Path 25952" d="M0,0H64V64H0Z" transform="translate(440 4460)" fill="#fff"/>
    </clipPath>
    <linearGradient id="linear-gradient" x1="1.023" y1="1.25" x2="-0.023" y2="-0.25" gradientUnits="objectBoundingBox">
      <stop offset="0" stop-color="#0877bb"/>
      <stop offset="1" stop-color="#19abc9"/>
    </linearGradient>
    <filter id="Ellipse_1" x="-3" y="1" width="68.804" height="68.592" filterUnits="userSpaceOnUse">
      <feOffset dy="3" input="SourceAlpha"/>
      <feGaussianBlur stdDeviation="4" result="blur"/>
      <feFlood flood-color="#0780e9" flood-opacity="0.698"/>
      <feComposite operator="in" in2="blur"/>
      <feComposite in="SourceGraphic"/>
    </filter>
  </defs>
  <g id="Mask_Group_15655" data-name="Mask Group 15655" transform="translate(-440 -4460)" clip-path="url(#clip-path)">
    <g id="Group_16229" data-name="Group 16229" transform="translate(72 23)">
      <g id="Group_5280" data-name="Group 5280" transform="translate(281 2868)">
        <g id="icon" transform="translate(139 1579)">
          <g transform="matrix(1, 0, 0, 1, -52, -10)" filter="url(#Ellipse_1)">
            <path id="Ellipse_1-2" data-name="Ellipse 1" d="M22.4,0A22.3,22.3,0,1,1,0,22.3,22.349,22.349,0,0,1,22.4,0Z" transform="translate(9 10)" fill="url(#linear-gradient)"/>
          </g>
        </g>
      </g>
      <path id="Path_7699" data-name="Path 7699" d="M122.643,290.421a.453.453,0,1,0-.619-.166A.453.453,0,0,0,122.643,290.421Zm0,0" transform="translate(271.346 4181.772)" fill="#fff"/>
      <path id="Path_7700" data-name="Path 7700" d="M4.35,38.438l2.282,3.953a1.813,1.813,0,1,0,3.14-1.812L8.412,38.223l1.177-.68a.453.453,0,0,0,.166-.619L9.166,35.9l8.68-1.7a1.359,1.359,0,0,0,1.1-2.037l-1.506-2.608L18.4,28.1a.453.453,0,0,0,.014-.476l-.906-1.57a.454.454,0,0,0-.42-.226l-1.743.1-1.672-2.9a1.348,1.348,0,0,0-1.16-.68H12.5a1.348,1.348,0,0,0-1.145.627l-5.92,7.541L1.586,32.745a3.172,3.172,0,0,0,2.763,5.693Zm4.637,2.594a.906.906,0,0,1-1.57.906L5.151,38.013l1.57-.906,2.266,3.925ZM7.958,37.438l-.453-.785L8.29,36.2l.453.785Zm8.908-10.69.626,1.085-.558.846-1.079-1.87Zm-4.754-3.269a.453.453,0,0,1,.779.009l5.271,9.13a.453.453,0,0,1-.381.679,1.665,1.665,0,0,0-.249.042l-5.575-9.657c.117-.15.132-.165.155-.2Zm-.758.971,5.238,9.073L8.687,35.074l-2.4-4.164ZM1.21,36.625a2.264,2.264,0,0,1,.829-3.1l3.532-2.039,2.266,3.924L4.305,37.455a2.269,2.269,0,0,1-3.1-.829Zm0,0" transform="translate(387.783 4436.882)" fill="#fff"/>
      <path id="Path_7701" data-name="Path 7701" d="M45.55,309.8a.453.453,0,0,0-.619-.166l-.785.453a.454.454,0,0,1-.619-.166.453.453,0,0,0-.785.453,1.361,1.361,0,0,0,1.857.5l.785-.453a.453.453,0,0,0,.166-.619Zm0,0" transform="translate(347.036 4162.681)" fill="#fff"/>
      <path id="Path_7702" data-name="Path 7702" d="M439.033,42.538l-2.525,1.405a.453.453,0,0,0,.441.792l2.525-1.405a.453.453,0,1,0-.441-.792Zm0,0" transform="translate(-28.722 4417.669)" fill="#fff"/>
      <path id="Path_7703" data-name="Path 7703" d="M442.385,137.106l-1.751-.469a.453.453,0,1,0-.235.875l1.751.469a.453.453,0,1,0,.234-.875Zm0,0" transform="translate(-32.338 4327.795)" fill="#fff"/>
      <path id="Path_7704" data-name="Path 7704" d="M383.977.336l-.47,1.751a.453.453,0,0,0,.876.235l.469-1.751a.453.453,0,1,0-.875-.235Zm0,0" transform="translate(21.669 4458.225)" fill="#fff"/>
    </g>
  </g>
</svg>
