<svg xmlns="http://www.w3.org/2000/svg" xmlns:xlink="http://www.w3.org/1999/xlink" width="64" height="64" viewBox="0 0 64 64">
  <defs>
    <clipPath id="clip-path">
      <path id="Path_25945" data-name="Path 25945" d="M0,0H64V64H0Z" transform="translate(456 4247)" fill="#fff"/>
    </clipPath>
    <linearGradient id="linear-gradient" x1="1.023" y1="1.25" x2="-0.023" y2="-0.25" gradientUnits="objectBoundingBox">
      <stop offset="0" stop-color="#0877bb"/>
      <stop offset="1" stop-color="#19abc9"/>
    </linearGradient>
    <filter id="Ellipse_1" x="-2" y="1" width="68.804" height="68.592" filterUnits="userSpaceOnUse">
      <feOffset dy="3" input="SourceAlpha"/>
      <feGaussianBlur stdDeviation="4" result="blur"/>
      <feFlood flood-color="#0780e9" flood-opacity="0.698"/>
      <feComposite operator="in" in2="blur"/>
      <feComposite in="SourceGraphic"/>
    </filter>
  </defs>
  <g id="Mask_Group_15652" data-name="Mask Group 15652" transform="translate(-456 -4247)" clip-path="url(#clip-path)">
    <g id="Group_16226" data-name="Group 16226" transform="translate(89 10)">
      <g transform="matrix(1, 0, 0, 1, 367, 4237)" filter="url(#Ellipse_1)">
        <ellipse id="Ellipse_1-2" data-name="Ellipse 1" cx="22.402" cy="22.296" rx="22.402" ry="22.296" transform="translate(10 10)" fill="url(#linear-gradient)"/>
      </g>
      <g id="Group_5794" data-name="Group 5794" transform="translate(-3750.025 4044.975)">
        <g id="Group_5793" data-name="Group 5793" transform="translate(4139 214)">
          <g id="Group_5792" data-name="Group 5792" transform="translate(0 0)">
            <path id="Path_7679" data-name="Path 7679" d="M4159.05,218.177a1.254,1.254,0,0,0-1.253-1.253h-1.671v.835h1.671a.418.418,0,0,1,.417.418v11.148l-2.082-2.082a4.69,4.69,0,0,0-.776-5.6l-.066-.064v-7.157a.417.417,0,0,0-.417-.418H4146.1a.408.408,0,0,0-.066.006l-.015,0-.019,0-.021.005-.014,0-.025.009-.01,0-.027.013-.009.005-.026.016-.013.01-.02.015-.031.028-2.924,2.924a.418.418,0,0,0-.122.3V225.7h-.836v.835h5.7a4.688,4.688,0,0,0,6.708,2.511l1.248,1.249h-15.329a.418.418,0,0,1-.418-.418v-11.7a.418.418,0,0,1,.418-.418h1.67v-.835h-1.67a1.253,1.253,0,0,0-1.253,1.253v11.7a1.253,1.253,0,0,0,1.253,1.253h6.036a2.106,2.106,0,0,1-2.068,2.089.418.418,0,0,0,0,.835h9.607a.418.418,0,1,0,0-.835,2.123,2.123,0,0,1-2.068-2.089h4.656l.463.464a1.272,1.272,0,0,0,2.168-.881h0Zm-7.231,15.038h-5.588a3.31,3.31,0,0,0,.915-2.089h3.758A3.3,3.3,0,0,0,4151.819,233.215Zm-8.224-7.519v-8.181l2.089-2.089v1.5h-.836v.835h1.253a.418.418,0,0,0,.417-.418v-2.506h7.937v6.1a4.692,4.692,0,0,0-4.35-.252h-5.257v.835h4a4.721,4.721,0,0,0-.96,1.253h-3.044v.835h2.7a4.659,4.659,0,0,0-.2,1.346,4.712,4.712,0,0,0,.059.743h-3.818Zm4.6-.742a3.852,3.852,0,1,1,6.594,2.706l-.036.035a3.852,3.852,0,0,1-6.558-2.741Zm7.475,3.008.616.616-.617.617-.616-.616Zm1.806,3.04-1.216-1.216.617-.617,1.216,1.216a.433.433,0,0,1,.127.306v0a.433.433,0,0,1-.127.306A.437.437,0,0,1,4157.47,231Z" transform="translate(-4139 -214)" fill="#f5f5f5"/>
            <path id="Path_7680" data-name="Path 7680" d="M4418.232,418.522l.59.591a2.147,2.147,0,0,1,3.033,0l.59-.591A2.983,2.983,0,0,0,4418.232,418.522Z" transform="translate(-4407.297 -409.676)" fill="#f5f5f5"/>
            <path id="Path_7681" data-name="Path 7681" d="M4181.667,555.333V557a.417.417,0,0,0,.418.418h1.671v-.835H4182.5v-1.253h-.835Z" transform="translate(-4179.996 -541.966)" fill="#f5f5f5"/>
            <rect id="Rectangle_4615" data-name="Rectangle 4615" width="0.835" height="0.835" transform="translate(4.595 14.62)" fill="#f5f5f5"/>
            <rect id="Rectangle_4616" data-name="Rectangle 4616" width="8.354" height="0.835" transform="translate(5.848 4.595)" fill="#f5f5f5"/>
          </g>
        </g>
      </g>
    </g>
  </g>
</svg>
