<svg xmlns="http://www.w3.org/2000/svg" xmlns:xlink="http://www.w3.org/1999/xlink" width="80" height="80" viewBox="0 0 80 80">
  <defs>
    <clipPath id="clip-path">
      <rect id="Rectangle_15179" data-name="Rectangle 15179" width="80" height="80" transform="translate(5105 629)" fill="#fff" stroke="#707070" stroke-width="1"/>
    </clipPath>
    <linearGradient id="linear-gradient" x1="0.807" y1="0.363" x2="0.214" y2="0.363" gradientUnits="objectBoundingBox">
      <stop offset="0" stop-color="#fa9414"/>
      <stop offset="0.645" stop-color="#ef3906"/>
      <stop offset="1" stop-color="#991748"/>
    </linearGradient>
    <linearGradient id="linear-gradient-2" x1="0.691" y1="0.175" x2="0.075" y2="0.955" gradientUnits="objectBoundingBox">
      <stop offset="0" stop-color="#c2e12d"/>
      <stop offset="0.19" stop-color="#f8c835"/>
      <stop offset="0.229" stop-color="#f8cc37"/>
      <stop offset="0.344" stop-color="#f9de32"/>
      <stop offset="0.42" stop-color="#f6c106"/>
      <stop offset="0.837" stop-color="#fa9414"/>
      <stop offset="1" stop-color="#f39315"/>
    </linearGradient>
    <linearGradient id="linear-gradient-3" x1="0.135" y1="0.792" x2="0.874" y2="0.17" gradientUnits="objectBoundingBox">
      <stop offset="0" stop-color="#1b83b0"/>
      <stop offset="1" stop-color="#2ea8d8"/>
    </linearGradient>
    <linearGradient id="linear-gradient-4" y1="0.625" x2="0.905" y2="0.256" gradientUnits="objectBoundingBox">
      <stop offset="0" stop-color="#fa9414"/>
      <stop offset="1" stop-color="#f8c634"/>
    </linearGradient>
    <linearGradient id="linear-gradient-5" x1="0.112" y1="0.3" x2="0.87" y2="0.747" gradientUnits="objectBoundingBox">
      <stop offset="0" stop-color="#ea441a"/>
      <stop offset="1" stop-color="#e58c29"/>
    </linearGradient>
    <linearGradient id="linear-gradient-6" x1="0.754" y1="0.754" x2="0.171" y2="0.132" gradientUnits="objectBoundingBox">
      <stop offset="0" stop-color="#f2350e"/>
      <stop offset="1" stop-color="#a80c0c"/>
    </linearGradient>
    <linearGradient id="linear-gradient-7" x1="1.098" y1="0.441" x2="-0.15" y2="0.859" gradientUnits="objectBoundingBox">
      <stop offset="0" stop-color="#f62a2a"/>
      <stop offset="1" stop-color="#a80c0c"/>
    </linearGradient>
    <linearGradient id="linear-gradient-8" x1="0.914" y1="0.961" x2="-0.033" y2="0.084" gradientUnits="objectBoundingBox">
      <stop offset="0" stop-color="#0f6e97"/>
      <stop offset="0.096" stop-color="#2698c7"/>
      <stop offset="0.207" stop-color="#2ea8d8"/>
      <stop offset="0.36" stop-color="#60c2e9"/>
      <stop offset="0.464" stop-color="#7cd2f5"/>
      <stop offset="0.568" stop-color="#7ea6c9"/>
      <stop offset="0.891" stop-color="#c11e1e"/>
      <stop offset="1" stop-color="#f20a0a"/>
    </linearGradient>
    <linearGradient id="linear-gradient-9" x1="-0.023" y1="0.548" x2="0.858" y2="0.129" gradientUnits="objectBoundingBox">
      <stop offset="0" stop-color="#15a8da"/>
      <stop offset="0.191" stop-color="#1a917e"/>
      <stop offset="0.313" stop-color="#1b8830"/>
      <stop offset="0.467" stop-color="#1b8815"/>
      <stop offset="0.636" stop-color="#47b041"/>
      <stop offset="1" stop-color="#c2e12d"/>
    </linearGradient>
    <linearGradient id="linear-gradient-10" x1="0.172" y1="0.1" x2="0.785" y2="0.802" gradientUnits="objectBoundingBox">
      <stop offset="0" stop-color="#c2e12d"/>
      <stop offset="0.692" stop-color="#47b041"/>
      <stop offset="1" stop-color="#187e48"/>
    </linearGradient>
  </defs>
  <g id="Mask_Group_15748" data-name="Mask Group 15748" transform="translate(-5105 -629)" clip-path="url(#clip-path)">
    <g id="Group_26207" data-name="Group 26207" transform="matrix(-0.276, -0.961, 0.961, -0.276, 5265.271, 735.887)">
      <g id="Group_9746" data-name="Group 9746" transform="matrix(0.914, -0.407, 0.407, 0.914, 43.826, -122.423)">
        <g id="Group_16" data-name="Group 16" transform="translate(7.945 53.204)">
          <path id="Path_4" data-name="Path 4" d="M37.164,24.317a4.773,4.773,0,0,1-4.377-2.867c-.609-1.4-4.057-8.5-12.112-11.044a20.029,20.029,0,0,0-13.948.883,4.771,4.771,0,1,1-3.909-8.7A29.725,29.725,0,0,1,23.544,1.306C35.242,4.994,40.272,14.74,41.535,17.64a4.773,4.773,0,0,1-4.371,6.678Z" transform="translate(0 0)" stroke="#fff" stroke-width="1" fill="url(#linear-gradient)"/>
        </g>
        <g id="Group_17" data-name="Group 17" transform="translate(40.468 41.148)">
          <path id="Path_5" data-name="Path 5" d="M4.833,35.8a4.769,4.769,0,0,1-4.75-4.392A29.713,29.713,0,0,1,5.847,11.462C13.253,1.684,24.123.225,27.279.01a4.771,4.771,0,1,1,.647,9.52c-1.522.1-9.373.961-14.473,7.693A20.02,20.02,0,0,0,9.594,30.655,4.77,4.77,0,0,1,5.217,35.79Q5.024,35.805,4.833,35.8Z" transform="translate(0 0)" stroke="#fff" stroke-width="1" fill="url(#linear-gradient-2)"/>
        </g>
        <g id="Group_9752" data-name="Group 9752" transform="matrix(0.326, -0.946, 0.946, 0.326, 21.465, 17.91)">
          <ellipse id="Ellipse_1" data-name="Ellipse 1" cx="6.744" cy="6.744" rx="6.744" ry="6.744" stroke="#fff" stroke-width="1" fill="url(#linear-gradient-3)"/>
        </g>
        <g id="Group_20" data-name="Group 20" transform="translate(55.284 57.265)">
          <circle id="Ellipse_3" data-name="Ellipse 3" cx="6.744" cy="6.744" r="6.744" transform="translate(0 0)" stroke="#fff" stroke-width="1" fill="url(#linear-gradient-4)"/>
        </g>
        <g id="Group_21" data-name="Group 21" transform="translate(19.317 67.147)">
          <circle id="Ellipse_4" data-name="Ellipse 4" cx="6.744" cy="6.744" r="6.744" transform="translate(0 0)" stroke="#fff" stroke-width="1" fill="url(#linear-gradient-5)"/>
        </g>
        <g id="Group_22" data-name="Group 22" transform="translate(0 35.34)">
          <circle id="Ellipse_5" data-name="Ellipse 5" cx="6.744" cy="6.744" r="6.744" transform="translate(0 0)" stroke="#fff" stroke-width="1" fill="url(#linear-gradient-6)"/>
        </g>
        <g id="Group_23" data-name="Group 23" transform="translate(7.944 19.526)">
          <path id="Path_2" data-name="Path 2" d="M4.958,45.392a4.948,4.948,0,0,1-3.29-8.651c1.148-1.014,6.855-6.511,6.6-15.067A21.052,21.052,0,0,0,2.63,8.318a4.952,4.952,0,0,1,7.258-6.74,31.112,31.112,0,0,1,8.287,19.8C18.554,34.014,10.67,42,8.245,44.147A4.948,4.948,0,0,1,4.958,45.392Z" transform="translate(0 0)" stroke="#fff" stroke-width="1" fill="url(#linear-gradient-7)"/>
        </g>
        <g id="Group_9751" data-name="Group 9751" transform="matrix(0.326, -0.946, 0.946, 0.326, 8.114, 28.163)">
          <path id="Path_1" data-name="Path 1" d="M24.728,39.861a5.289,5.289,0,0,1-1.206-.139A31.7,31.7,0,0,1,5.347,27.853,29.122,29.122,0,0,1,.944,3.627,5.086,5.086,0,0,1,7.1.153a4.813,4.813,0,0,1,3.641,5.876A20.006,20.006,0,0,0,13.68,22.374a21.357,21.357,0,0,0,12.245,7.969,4.819,4.819,0,0,1,3.714,5.835A5.022,5.022,0,0,1,24.728,39.861Z" transform="translate(0 0)" stroke="#fff" stroke-width="1" fill="url(#linear-gradient-8)"/>
        </g>
        <g id="Group_9753" data-name="Group 9753" transform="translate(61.146 6.947) rotate(72)">
          <path id="Path_3" data-name="Path 3" d="M17.925,22.35A31.705,31.705,0,0,1,2.41,18.171,4.88,4.88,0,0,1,7.352,9.754c1.346.79,8.47,4.591,16.664,1.837a20.492,20.492,0,0,0,11-9.131A4.88,4.88,0,1,1,43.49,7.3,30.4,30.4,0,0,1,27.124,20.842,28.736,28.736,0,0,1,17.925,22.35Z" transform="translate(0 0)" stroke="#fff" stroke-width="1" fill="url(#linear-gradient-9)"/>
        </g>
        <g id="Group_9754" data-name="Group 9754" transform="matrix(0.259, 0.966, -0.966, 0.259, 69.175, 18.408)">
          <ellipse id="Ellipse_2" data-name="Ellipse 2" cx="6.744" cy="6.744" rx="6.744" ry="6.744" stroke="#fff" stroke-width="1" fill="url(#linear-gradient-10)"/>
        </g>
      </g>
    </g>
  </g>
</svg>
