<svg xmlns="http://www.w3.org/2000/svg" xmlns:xlink="http://www.w3.org/1999/xlink" width="68" height="68" viewBox="0 0 68 68">
  <defs>
    <filter id="Ellipse_2533" x="0" y="0" width="68" height="68" filterUnits="userSpaceOnUse">
      <feOffset dy="3" input="SourceAlpha"/>
      <feGaussianBlur stdDeviation="3" result="blur"/>
      <feFlood flood-color="#030303" flood-opacity="0.369"/>
      <feComposite operator="in" in2="blur"/>
      <feComposite in="SourceGraphic"/>
    </filter>
  </defs>
  <g id="Play" transform="translate(23 14.065)">
    <g id="Group_19574" data-name="Group 19574" transform="translate(-14 -8)">
      <g transform="matrix(1, 0, 0, 1, -9, -6.07)" filter="url(#Ellipse_2533)">
        <g id="Ellipse_2533-2" data-name="Ellipse 2533" transform="translate(9 6)" fill="#212121" stroke="#fff" stroke-width="1.5" opacity="0.5">
          <circle cx="25" cy="25" r="25" stroke="none"/>
          <circle cx="25" cy="25" r="24.25" fill="none"/>
        </g>
      </g>
      <path id="Path_28000" data-name="Path 28000" d="M2.914,28.5A2.409,2.409,0,0,1,.5,26.086V2.914A2.409,2.409,0,0,1,2.914.5,2.3,2.3,0,0,1,4.1.834L24.154,12.42A2.451,2.451,0,0,1,25.38,14.5a2.331,2.331,0,0,1-1.225,2.08L4.139,28.166a2.539,2.539,0,0,1-1.225.334Z" transform="translate(14.412 10.435)" fill="#fff"/>
    </g>
  </g>
</svg>
