<svg xmlns="http://www.w3.org/2000/svg" xmlns:xlink="http://www.w3.org/1999/xlink" width="67" height="66" viewBox="0 0 67 66">
  <defs>
    <filter id="Ellipse_506" x="1" y="0" width="66" height="66" filterUnits="userSpaceOnUse">
      <feOffset dx="2" dy="1" input="SourceAlpha"/>
      <feGaussianBlur stdDeviation="3" result="blur"/>
      <feFlood flood-color="#0780e9" flood-opacity="0.698"/>
      <feComposite operator="in" in2="blur"/>
      <feComposite in="SourceGraphic"/>
    </filter>
  </defs>
  <g id="LD_2" data-name="LD 2" transform="translate(-573 -3453)">
    <g id="Group_14059" data-name="Group 14059" transform="translate(258 195)">
      <g transform="matrix(1, 0, 0, 1, 315, 3258)" filter="url(#Ellipse_506)">
        <circle id="Ellipse_506-2" data-name="Ellipse 506" cx="24" cy="24" r="24" transform="translate(8 8)" fill="#0877bb"/>
      </g>
      <g id="ic_BaoCaoHoatDong_24" transform="translate(335 3278)">
        <path id="Path_1687" data-name="Path 1687" d="M15,7.8H8A.773.773,0,0,1,7.3,7,.684.684,0,0,1,8,6.3h7a.789.789,0,0,1,.8.8A.709.709,0,0,1,15,7.8Z" fill="#fff"/>
        <path id="Path_1688" data-name="Path 1688" d="M12,10.8H8a.789.789,0,0,1-.8-.8A.709.709,0,0,1,8,9.3h4a.789.789,0,0,1,.8.8A.709.709,0,0,1,12,10.8Z" fill="#fff"/>
        <path id="Path_1689" data-name="Path 1689" d="M18,21.8a.764.764,0,0,1-.5-.2L16,20.1l-1.5,1.5a.785.785,0,0,1-1.1,0L12,20.1l-1.5,1.5a.785.785,0,0,1-1.1,0L8,20.1,6.5,21.6a.785.785,0,0,1-1.1,0l-2-2a.764.764,0,0,1-.2-.5V5.6a3.136,3.136,0,0,1,3-3.3H17.6a3.166,3.166,0,0,1,3,3.4V7.1a.789.789,0,0,1-.8.8c-.5,0-.5-.5-.5-.9V5.6a1.781,1.781,0,0,0-1.6-1.9H6.3A1.858,1.858,0,0,0,4.7,5.6V18.7L6,19.9l1.5-1.5a.785.785,0,0,1,1.1,0l1.5,1.5,1.5-1.5a.785.785,0,0,1,1.1,0l1.5,1.5,1.5-1.5a.785.785,0,0,1,1.1,0l1.5,1.5,1.3-1.3V18a.789.789,0,0,1,.8-.8.736.736,0,0,1,.8.8v1a.764.764,0,0,1-.2.5l-2,2A4.284,4.284,0,0,1,18,21.8Z" fill="#fff"/>
        <path id="Path_1690" data-name="Path 1690" d="M10,16.8a.713.713,0,0,1-.6-.3.775.775,0,0,1,.2-1l3-2a.6.6,0,0,1,.8,0l2.4,1.6,3.6-4.5a.778.778,0,0,1,.8-.2.752.752,0,0,1,.5.7v3a.789.789,0,0,1-.8.8.736.736,0,0,1-.8-.8v-.9l-2.7,3.3a.775.775,0,0,1-1,.2L13,14.9l-2.6,1.7A.758.758,0,0,1,10,16.8Z" fill="#fff"/>
        <path id="Path_1691" data-name="Path 1691" d="M20,11.8H17a.789.789,0,0,1-.8-.8.736.736,0,0,1,.8-.8h3a.8.8,0,0,1,0,1.6Z" fill="#fff"/>
        <rect id="Rectangle_253" width="24" height="24" fill="none"/>
      </g>
    </g>
    <rect id="Rectangle_8745" data-name="Rectangle 8745" width="64" height="64" transform="translate(573 3453)" fill="none"/>
  </g>
</svg>
