<svg xmlns="http://www.w3.org/2000/svg" xmlns:xlink="http://www.w3.org/1999/xlink" width="67" height="66" viewBox="0 0 67 66">
  <defs>
    <filter id="Ellipse_505" x="1" y="0" width="66" height="66" filterUnits="userSpaceOnUse">
      <feOffset dx="2" dy="1" input="SourceAlpha"/>
      <feGaussianBlur stdDeviation="3" result="blur"/>
      <feFlood flood-color="#03a52e" flood-opacity="0.702"/>
      <feComposite operator="in" in2="blur"/>
      <feComposite in="SourceGraphic"/>
    </filter>
  </defs>
  <g id="LD_5" data-name="LD 5" transform="translate(-999 -3341)">
    <g id="Group_14063" data-name="Group 14063" transform="translate(198 200)">
      <g transform="matrix(1, 0, 0, 1, 801, 3141)" filter="url(#Ellipse_505)">
        <circle id="Ellipse_505-2" data-name="Ellipse 505" cx="24" cy="24" r="24" transform="translate(8 8)" fill="#34a853"/>
      </g>
      <g id="ic_ChinhSachBaoMat_24" transform="translate(808 2689)">
        <rect id="Rectangle_566" width="24" height="24" transform="translate(13 474)" fill="none"/>
        <path id="Path_2473" d="M33.1,478.2l-3.1-.3a5.562,5.562,0,0,1-2.1-.6L25.4,476a.637.637,0,0,0-.6,0l-3,1.3a4.192,4.192,0,0,1-1.6.4l-3.2.4a.921.921,0,0,0-.7,1.1l.9,7.7a10.553,10.553,0,0,0,7.4,8.9.854.854,0,0,0,.7,0,12.022,12.022,0,0,0,7.5-9.7l.9-6.9C34,478.9,33.7,478.4,33.1,478.2Zm-11.4,7.5,3.1,3.1,5-5.7" fill="none" stroke="#fff" stroke-linecap="round" stroke-linejoin="round" stroke-miterlimit="10" stroke-width="1.5"/>
      </g>
    </g>
    <rect id="Rectangle_8748" data-name="Rectangle 8748" width="64" height="64" transform="translate(999 3341)" fill="none"/>
  </g>
</svg>
