<svg xmlns="http://www.w3.org/2000/svg" xmlns:xlink="http://www.w3.org/1999/xlink" width="67" height="66" viewBox="0 0 67 66">
  <defs>
    <filter id="Ellipse_507" x="1" y="0" width="66" height="66" filterUnits="userSpaceOnUse">
      <feOffset dx="2" dy="1" input="SourceAlpha"/>
      <feGaussianBlur stdDeviation="3" result="blur"/>
      <feFlood flood-color="#03a52e" flood-opacity="0.702"/>
      <feComposite operator="in" in2="blur"/>
      <feComposite in="SourceGraphic"/>
    </filter>
  </defs>
  <g id="LD_6" data-name="LD 6" transform="translate(-1069 -3447)">
    <g id="Group_14065" data-name="Group 14065" transform="translate(268 193)">
      <g transform="matrix(1, 0, 0, 1, 801, 3254)" filter="url(#Ellipse_507)">
        <circle id="Ellipse_507-2" data-name="Ellipse 507" cx="24" cy="24" r="24" transform="translate(8 8)" fill="#34a853"/>
      </g>
      <g id="ic_GioiThieuBanBe_24" transform="translate(821 3274)">
        <path id="Path_1695" data-name="Path 1695" d="M15.9,9.4a3.585,3.585,0,0,1-3.6-3.6,3.55,3.55,0,0,1,7.1,0A3.564,3.564,0,0,1,15.9,9.4Zm0-5.6a2.094,2.094,0,0,0-2.1,2,2.112,2.112,0,0,0,2.1,2.1,2.03,2.03,0,0,0,2-2.1A1.944,1.944,0,0,0,15.9,3.8Z" fill="#f2f9ff"/>
        <path id="Path_1696" data-name="Path 1696" d="M5.8,16.2a3.5,3.5,0,0,1-3.5-3.6A3.5,3.5,0,0,1,5.8,9a3.6,3.6,0,0,1,0,7.2Zm0-5.7a2.03,2.03,0,0,0-2,2.1,2.03,2.03,0,0,0,2,2.1,2.1,2.1,0,0,0,0-4.2Z" fill="#f2f9ff"/>
        <path id="Path_1697" data-name="Path 1697" d="M17.5,21.8a4.332,4.332,0,0,1-4.3-4.3,4.3,4.3,0,1,1,8.6,0A4.332,4.332,0,0,1,17.5,21.8Zm0-7a2.8,2.8,0,0,0-2.8,2.8,2.8,2.8,0,0,0,5.6,0A2.8,2.8,0,0,0,17.5,14.8Z" fill="#f2f9ff"/>
        <path id="Path_1698" data-name="Path 1698" d="M14,16.8a.367.367,0,0,1-.3-.1l-5-2a.762.762,0,1,1,.6-1.4l5,2a.731.731,0,0,1,.4,1A.752.752,0,0,1,14,16.8Z" fill="#f2f9ff"/>
        <path id="Path_1699" data-name="Path 1699" d="M8,11.5a.548.548,0,0,1-.6-.4.693.693,0,0,1,.3-1l5.6-3.4a.693.693,0,0,1,1,.3A.693.693,0,0,1,14,8L8.4,11.4A.6.6,0,0,1,8,11.5Z" fill="#f2f9ff"/>
        <rect id="Rectangle_272" width="24" height="24" fill="none"/>
      </g>
    </g>
    <rect id="Rectangle_8749" data-name="Rectangle 8749" width="64" height="64" transform="translate(1069 3447)" fill="none"/>
  </g>
</svg>
