<svg xmlns="http://www.w3.org/2000/svg" xmlns:xlink="http://www.w3.org/1999/xlink" width="67" height="66" viewBox="0 0 67 66">
  <defs>
    <filter id="Ellipse_509" x="1" y="0" width="66" height="66" filterUnits="userSpaceOnUse">
      <feOffset dx="2" dy="1" input="SourceAlpha"/>
      <feGaussianBlur stdDeviation="3" result="blur"/>
      <feFlood flood-color="#03a52e" flood-opacity="0.702"/>
      <feComposite operator="in" in2="blur"/>
      <feComposite in="SourceGraphic"/>
    </filter>
  </defs>
  <g id="LD_7" data-name="LD 7" transform="translate(-1069 -3559)">
    <g id="Group_14071" data-name="Group 14071" transform="translate(268 189)">
      <g transform="matrix(1, 0, 0, 1, 801, 3370)" filter="url(#Ellipse_509)">
        <circle id="Ellipse_509-2" data-name="Ellipse 509" cx="24" cy="24" r="24" transform="translate(8 8)" fill="#34a853"/>
      </g>
      <g id="star_1_" data-name="star (1)" transform="translate(820 3380.348)">
        <path id="Path_3199" data-name="Path 3199" d="M75.441,29.741l-6.582-.61L66.245,23.06a.527.527,0,0,0-.969,0l-2.614,6.071-6.582.61a.527.527,0,0,0-.3.921l4.966,4.362-1.453,6.448a.527.527,0,0,0,.784.569l5.683-3.375,5.683,3.375a.527.527,0,0,0,.784-.569l-1.453-6.448,4.966-4.362A.527.527,0,0,0,75.441,29.741Z" transform="translate(-52.783 -11.476)" fill="none" stroke="#f9f9f9" stroke-width="1"/>
        <g id="Group_1629" data-name="Group 1629" transform="translate(0.38 11.033)">
          <path id="Path_3200" data-name="Path 3200" d="M95.38,18.5c.336.466,1.283,2.467,1.824,3.634a.183.183,0,0,1-.292.21c-.934-.883-2.532-2.417-2.867-2.883A.823.823,0,0,1,95.38,18.5Z" transform="translate(-89.51 -18.161)" fill="#f9f9f9"/>
          <path id="Path_3201" data-name="Path 3201" d="M354.217,18.5c-.336.466-1.283,2.467-1.824,3.634a.183.183,0,0,0,.292.21c.934-.883,2.532-2.417,2.867-2.883a.823.823,0,0,0-1.335-.961Z" transform="translate(-334.891 -18.161)" fill="#f9f9f9"/>
          <path id="Path_3202" data-name="Path 3202" d="M414.217,282.575c-.546-.178-2.74-.472-4.016-.634a.183.183,0,0,0-.112.342c1.126.622,3.072,1.678,3.618,1.856a.823.823,0,1,0,.51-1.564Z" transform="translate(-389.588 -268.567)" fill="#f9f9f9"/>
          <path id="Path_3203" data-name="Path 3203" d="M8.074,282.575c.546-.178,2.741-.472,4.016-.634a.183.183,0,0,1,.111.342c-1.126.622-3.072,1.678-3.618,1.856a.823.823,0,1,1-.51-1.564Z" transform="translate(-7.506 -268.567)" fill="#f9f9f9"/>
          <path id="Path_3204" data-name="Path 3204" d="M240.27,399.656c0-.574.4-2.752.643-4.015a.183.183,0,0,1,.36,0c.242,1.263.643,3.44.643,4.015a.823.823,0,1,1-1.645,0Z" transform="translate(-228.469 -376.362)" fill="#f9f9f9"/>
        </g>
        <path id="Path_3206" data-name="Path 3206" d="M132.958,92.045l4.8-4.213a.908.908,0,0,0-.515-1.586l-6.357-.59-1.19-2.764a.38.38,0,0,0-.7.3l1.28,2.971a.38.38,0,0,0,.314.228l6.582.61a.147.147,0,0,1,.083.257l-4.966,4.362a.38.38,0,0,0-.12.369l1.453,6.448a.147.147,0,0,1-.219.159l-5.683-3.375a.381.381,0,0,0-.388,0L121.646,98.6a.147.147,0,0,1-.219-.159l.75-3.328a.38.38,0,1,0-.742-.167l-.75,3.328a.912.912,0,0,0,.884,1.11.908.908,0,0,0,.465-.13l5.489-3.259,5.489,3.259a.908.908,0,0,0,1.349-.98Z" transform="translate(-114.545 -68.36)" fill="#f9f9f9"/>
        <path id="Path_3207" data-name="Path 3207" d="M48.4,23.829l4.8,4.213-.312,1.383a.38.38,0,1,0,.742.167l.361-1.6a.38.38,0,0,0-.12-.369L48.9,23.258A.147.147,0,0,1,48.981,23l6.581-.61a.38.38,0,0,0,.314-.228l2.614-6.071a.147.147,0,0,1,.27,0l.71,1.649a.38.38,0,1,0,.7-.3l-.71-1.649a.908.908,0,0,0-1.667,0l-2.525,5.863-6.357.59a.908.908,0,0,0-.515,1.586Z" transform="translate(-45.647 -4.357)" fill="#f9f9f9"/>
        <path id="Path_3208" data-name="Path 3208" d="M90.225,16.14a.38.38,0,0,0,.605-.436c-.179-.394-1.765-3.873-2.254-4.552h0a1.2,1.2,0,0,0-1.953,1.406C87.112,13.237,89.908,15.845,90.225,16.14ZM87.341,11.5a.439.439,0,0,1,.258-.083.45.45,0,0,1,.072.006.44.44,0,0,1,.288.178h0A28.449,28.449,0,0,1,89.3,14.219a28.477,28.477,0,0,1-2.061-2.1A.443.443,0,0,1,87.341,11.5Z" transform="translate(-82.017 0)" fill="#f9f9f9"/>
        <path id="Path_3209" data-name="Path 3209" d="M337.651,16.174a.38.38,0,0,0,.481-.03c.317-.3,3.113-2.9,3.6-3.582a1.2,1.2,0,0,0-1.953-1.406c-.489.679-2.075,4.157-2.254,4.552A.38.38,0,0,0,337.651,16.174ZM340.4,11.6h0a.439.439,0,0,1,.288-.178.451.451,0,0,1,.072-.006.443.443,0,0,1,.358.7,28.5,28.5,0,0,1-2.061,2.1A28.486,28.486,0,0,1,340.4,11.6Z" transform="translate(-320.383 -0.004)" fill="#f9f9f9"/>
        <path id="Path_3210" data-name="Path 3210" d="M394.335,273.573a1.2,1.2,0,0,0-.7-.6h0c-.8-.259-4.591-.714-5.021-.765a.38.38,0,0,0-.231.709c.378.212,3.712,2.084,4.507,2.343a1.2,1.2,0,0,0,1.445-1.688Zm-.652.682a.442.442,0,0,1-.558.283,28.489,28.489,0,0,1-2.632-1.324,28.453,28.453,0,0,1,2.906.482.442.442,0,0,1,.283.558Z" transform="translate(-368.509 -248.295)" fill="#f9f9f9"/>
        <path id="Path_3211" data-name="Path 3211" d="M6.258,272.469a.38.38,0,0,0-.406-.26c-.43.051-4.226.505-5.021.764h0a1.2,1.2,0,1,0,.746,2.287c.8-.259,4.129-2.13,4.507-2.343A.38.38,0,0,0,6.258,272.469Zm-4.917,2.069a.443.443,0,0,1-.274-.841,28.48,28.48,0,0,1,2.906-.482A28.457,28.457,0,0,1,1.341,274.538Z" transform="translate(0 -248.294)" fill="#f9f9f9"/>
        <path id="Path_3212" data-name="Path 3212" d="M233.972,372.751a.38.38,0,0,0-.373.306c-.085.425-.83,4.175-.83,5.011a1.2,1.2,0,0,0,2.406,0c0-.836-.745-4.586-.83-5.011A.38.38,0,0,0,233.972,372.751Zm0,5.759a.443.443,0,0,1-.443-.443,28.489,28.489,0,0,1,.443-2.912,28.482,28.482,0,0,1,.443,2.912A.443.443,0,0,1,233.972,378.51Z" transform="translate(-220.968 -343.741)" fill="#f9f9f9"/>
      </g>
    </g>
    <rect id="Rectangle_8750" data-name="Rectangle 8750" width="64" height="64" transform="translate(1069 3559)" fill="none"/>
  </g>
</svg>
