<svg xmlns="http://www.w3.org/2000/svg" xmlns:xlink="http://www.w3.org/1999/xlink" width="105" height="105" viewBox="0 0 105 105">
  <defs>
    <clipPath id="clip-path">
      <rect id="Rectangle_10403" data-name="Rectangle 10403" width="105" height="105" transform="translate(-2450 5661)" fill="#fff"/>
    </clipPath>
  </defs>
  <g id="trai_dat" data-name="trai dat" transform="translate(2450 -5661)" clip-path="url(#clip-path)">
    <g id="Group_16204" data-name="Group 16204" transform="translate(-2447 5663)">
      <ellipse id="Ellipse_57" data-name="Ellipse 57" cx="45.388" cy="45.388" rx="45.388" ry="45.388" transform="translate(6.237 6.201)" fill="#f2f9ff"/>
      <path id="Path_1395" data-name="Path 1395" d="M118.549,104.489c-.6.021-1.375.3-1.4.494,0,.215-.838.58-1.117.687a3.548,3.548,0,0,0-.924,1.224c-.107.279-.795.193-1.031.3s-.752.516-.773.773c0,.236-.15.215-.3-.064l-.322.344-.387.43a3.352,3.352,0,0,1-1.224,1.654c-.258.064-.3,1.289-.3,1.783a2.306,2.306,0,0,0,.43,1.353l.043.387.086.773a1.445,1.445,0,0,0,.451,1.246,6,6,0,0,0,1.675-.3,3.507,3.507,0,0,0,.623-.258,44.925,44.925,0,0,0,4.683-10.869A.322.322,0,0,1,118.549,104.489Zm-75.073,1.16c-.064.129.752.967,1.074,1.246A7.576,7.576,0,0,1,45.667,109a3.592,3.592,0,0,1,.021,1.353c-.043.172.15.559.193.709a11.636,11.636,0,0,0-.172,2.041c.107.537-.623,2.212-.623,3.05.021.838.387,1.912.558,1.847.15-.086.215.752-.043.859s-.558.773-.408.795c.15.043,0,.687.021.945.043.258.258,2,.3,2.427a12.931,12.931,0,0,0,.795,1.847c.129.365.258,1.031.3,1.138s.107.215.129.215a3.184,3.184,0,0,1,.644.3,4.077,4.077,0,0,0,1.439-.021c.322-.064.021-.365-.107-.516-.15-.15-.279-.924-.43-1.01-.172-.064-.236-1.053-.086-1.267s.73-.558.795-.752c.064-.172.086-1.031-.086-1.16-.15-.107.043-1.16-.064-1.675s.9-.988.945-1.4c.064-.408,1.16-.838,1.4-1.053a2.752,2.752,0,0,0,.344-1.632c-.129-.258.408-.451.644-.451a2.772,2.772,0,0,0,.58-.172c.086,0,.365-.516.516-.644s.451-1.353.73-1.547a2.041,2.041,0,0,0,.494-1.16,3.335,3.335,0,0,1,.558-1.053,5.777,5.777,0,0,1,1.332-.73,9.306,9.306,0,0,0,.537-2.3,15.19,15.19,0,0,1,.408-1.568c.021-.193.344-.365.408-.43a7.843,7.843,0,0,1,.473-.988,4.441,4.441,0,0,0,.73-1.053c.021-.15.107-.558.193-.9V102c-.172-.494-.73-1.117-.859-.967-.15.129-.773-.43-1.1-.558a6.805,6.805,0,0,0-1.332-.215c-.193,0-.9-.58-1.224-.687a12.669,12.669,0,0,1-1.267-.344c-.15-.086-.344-1.289-.988-1.675a7.3,7.3,0,0,1-1.912-1.633A6.586,6.586,0,0,0,48.7,94.672a1.634,1.634,0,0,0-1.031-.193c-.086.064-.558-.644-.795-.859-.258-.193-.988-.365-1.031-.193-.043.193-.537.086-.644-.064s-.494.064-.687.129c-.172.064-.795,1.01-1.074,1.224s-.623-.215-.816-.3a2.083,2.083,0,0,0-1.1.279c-.193.129-.644-1.01-.537-1.525s-.473-1.568-.924-1.59c-.43-.021-.58-1.117-.494-1.525s-.795-.644-1.031-.687c-.236-.021-.773.537-.881.816-.086.279-2.105-.365-1.869-1.568a5.585,5.585,0,0,1,1.418-2.6,3.729,3.729,0,0,1,1.826-.064.469.469,0,0,0,.6-.086,4.091,4.091,0,0,1,1.418.15c.322.129.773,1.353,1.1,1.5s.451-.795.494-1.01a2.011,2.011,0,0,0-.236-.967,3.292,3.292,0,0,1,1.01-1.89,2.265,2.265,0,0,0,.967-1.224c-.043-.15.387-.258.516-.322s-.021-1.246.172-1.5a5.759,5.759,0,0,1,1.418-.924,1.105,1.105,0,0,0,.408-1.01c-.107-.129.752-.881,1.2-1.01s.838.258.73.322c.086-.043.709-.365.967-.537.3-.193,0-.773-.193-.924s-.086-.816.15-.859a.844.844,0,0,0,.387-.73c-.064-.129.988.107,1.4-.193.387-.3.107.709-.172,1.117a.458.458,0,0,0,.408.709c.193-.086.387.215.43.322s.451-.129.709,0c.258.107.43-.365.451-.58s-.644-.687-.73-.945a13.581,13.581,0,0,1-.15-2.127c-.021-.322-.43-.838-.58-.73-.129.086-.408-.816-.623-1.01a1.08,1.08,0,0,1-.258-.773c0-.15-.752-.945-.924-1.31s-.43-.3-.451-.129-.537.193-.752.172-.387-.859-.387-1.16c0-.322-.967-.365-1.138-.623-.15-.258-.795-.129-.9-.3a1.051,1.051,0,0,0-.773-.279c-.107.064-.064,2.32-.172,2.943-.107.6-.623,1.138-.816,1.138-.193-.021-.064.43.064.387s-.365.666-.43,1.138-.537-.021-.6-.43c-.086-.43-.537-.988-.623-.838s-.408-.172-.537-.086-1.01-.494-1.353-.687-.537-1.267-.752-1.353c-.215-.107-.043-.215-.043-.387s.687-.795.881-1.031a15.733,15.733,0,0,1,1.246-1.439c.3-.215.537-.773.473-.881a7.716,7.716,0,0,1,1.632-.644c.365-.129.666-1.117.709-1.418a1.264,1.264,0,0,0-.387-.9c-.172-.064.494-.086.73.021.215.107.9-.193,1.181-.064.258.15.816.473,1.2.709l-.086.73-.172,1.246c-1.053.43-1.353,1.181-.988,1.16a9,9,0,0,1,2.513,1.053c.473.344.623-.494.752-.773a1.961,1.961,0,0,0-.021-1.224c-.107-.15.537-.107.73.064s.408-.193.537-.236c.15-.064.215-.752.3-.881.064-.15-.322-.279-.322-.451-.021-.172-.773-.494-1.01-.623-.236-.107-.3-.644-.172-.73s-.086-.752-.215-.967c-.107-.215-.9-.387-1.16-.387s-.537-.6-.687-.687a4.181,4.181,0,0,0-1.4-.129c-.258.064-.709-.709-1.117-.473-.43.236-.859-.279-1.053-.387s-1.181.945-1.16,1.7a2.113,2.113,0,0,0,.537,1.482c.15.021-.043.687-.215.881s-.58-.193-.43-.365-.43-.945-.623-1.267a2.5,2.5,0,0,0-1.01-.58c-.215.215-.408.451-.6.666a1.575,1.575,0,0,1,.086.881c-.15.451-.516.516-.537.322,0-.086-.193-.15-.43-.172A44.4,44.4,0,0,0,29.9,86.81a3.324,3.324,0,0,1,.537.752c.129.408.816.666.945.752s.172-.773.086-.988.172-.344.172-.193a5.725,5.725,0,0,0,.881,1.181c.215.258.451,2,.644,2.384a8.815,8.815,0,0,0,2.857,1.289,3.4,3.4,0,0,1,1.59,1.074c.129.215.988.322,1.16.387.193.086.623.666.816.795a1.09,1.09,0,0,1,.322.558c0,.086,1.138.516,1.4.816a.609.609,0,0,0,.816.086c.086-.129.3.6.43.859a1.724,1.724,0,0,1,.064.967,13.282,13.282,0,0,1-.451,1.461,5.957,5.957,0,0,0-.516,2.212,2.615,2.615,0,0,0,.838,1.1.258.258,0,0,1-.043.473c-.172.021-.107,1.611.322,1.826C43.175,104.832,43.54,105.52,43.476,105.649Zm5.349-27.688ZM45.709,58.779a4.3,4.3,0,0,0,1.5-.387,1.035,1.035,0,0,0-.043-.623h.258c.215,0,.558-1.138.773-1.4a13.347,13.347,0,0,1,1.761-.838c.3-.172.945-.795,1.2-.881s.623-.666.558-.773.838-.666,1.181-.795c.344-.15.516-.537.387-.558-.086-.021-1.976.988-3.716,1.976a48.881,48.881,0,0,0-5.606,4.489C44.507,58.929,45.366,58.822,45.709,58.779Zm32.886,56.6a16.341,16.341,0,0,0,1.89-2.105,4.787,4.787,0,0,0,.623-1.654,1.548,1.548,0,0,1,.752-.687c.172-.043.773-2.513,1.289-3.05a9.014,9.014,0,0,0,1.053-4.06,13.8,13.8,0,0,1,.451-3.136,4.186,4.186,0,0,1,.967-1.332,29.406,29.406,0,0,0,1.847-2.664,6,6,0,0,0,.709-2.47c-.086-.344-.945-.58-1.117-.408a2.958,2.958,0,0,1-1.246.3c-.258,0-.859-1.4-1.246-1.7-.365-.279-.709-1.89-.924-2.191a13.27,13.27,0,0,0-1.01-1.246c-.193-.172-.215-1.031-.258-1.267s.365.15.43.494a14.847,14.847,0,0,0,1.332,2.169c.3.473,1.1,1.933,1.289,2.384s1.955.236,2.513-.043a4.379,4.379,0,0,0,1.31-.881c.021-.15.924-.58,1.181-.773s.473-1.246.644-1.418-.129-1.181-.322-1.482a1.633,1.633,0,0,0-1.267-.43c-.193.107-.58-.666-.709-.967s-.838-.644-.9-.838.193-.516.3-.58a6.131,6.131,0,0,1,1.761,1.267,8.745,8.745,0,0,1,.859,1.418,1.8,1.8,0,0,0,1.31.043.359.359,0,0,1,.58.086l.322-.064,1.117-.172a2.321,2.321,0,0,1,.666,1.181c0,.107.322.58.537.623s.365.773.43.945.687,1.267.816,1.718a10.908,10.908,0,0,0,.795,1.59,3.721,3.721,0,0,1,.236,1.117.8.8,0,0,0,.666.537c.258-.021.752-1.611.881-2.191a1.581,1.581,0,0,1,.644-1.074c.107,0,.215-.322.215-.451s.644-.107.709-.279.236-1.2.473-1.375a11.478,11.478,0,0,1,1.332-.795c.279-.107,1.01.537,1.181.816a2.363,2.363,0,0,1,.236,1.16c-.064.129.387.773.773.752s.516.494.516.666c.021.172.537.709.623.924a2,2,0,0,1,0,1.01A3.851,3.851,0,0,0,105.9,96a10.739,10.739,0,0,0,1.718,1.8c.451.365.666-.752.43-1.1s-1.01-1.16-1.181-1.4a2.885,2.885,0,0,1-.15-1.482c.064-.279.687.15.945.344a1.991,1.991,0,0,1,.6.773c0,.15,1.611-.752,1.654-1.718a9.764,9.764,0,0,1,.644-2.32c.043-.258-.15-.6-.3-.623-.129-.021.236-.752.687-.73s1.525-1.181,1.783-1.675a3.718,3.718,0,0,1,.838-.924,8.282,8.282,0,0,0,.494-1.654,4.295,4.295,0,0,0-.838-2.406,1.9,1.9,0,0,1-.129-.945c.064-.129.473-.258.494-.365.043-.107.516-.6.473-.816s.279.279.494.451.451,1.332.709,1.461,1.31-1.224,1.181-2.105A2.744,2.744,0,0,1,117,78.476a5.33,5.33,0,0,0,1.031-1.289,45.834,45.834,0,0,0-11.191-17.657h-.172l-.387-.086c-.644-.129-1.031-.838-.924-.988.043-.043.021-.172,0-.3-.365-.322-.73-.644-1.117-.967h-.816a3.679,3.679,0,0,1-1.4-.451c-.15-.15-.666.129-.687.408-.043.279-.924.408-1.01.623a.482.482,0,0,1-.644.107c-.086-.129-.924.3-1.332.344A6.906,6.906,0,0,0,97,58.693a2.1,2.1,0,0,0-.687.687c-.064.172-.6.473-.773.537s-.129.838.086.945-.408-.086-.687-.236c-.279-.129-.58.322-.666.494-.086.15-.344-.107-.322-.322,0-.236-.687-.408-.773-.236-.086.193-.58-.064-.773-.172s-1.053.795-1.375,1.117a3.861,3.861,0,0,1-2.127.451c-.279-.129-.559.666-.322.73.236.043-.623-.043-1.1,0a7.728,7.728,0,0,0-2.17.838.369.369,0,0,1-.6-.236c0-.193-.516-.365-.687-.408-.15-.043-.451,1.031-.73,1.224-.279.215-.6-.838-1.246-1.01s-1.632-.795-1.933-.859a3.891,3.891,0,0,1-1.01-.838,2.971,2.971,0,0,0-1.246-.322,4.3,4.3,0,0,0-1.332.666c-.236.193-.58.15-.687.215s-1.074,1.01-1.439,1.31a11.591,11.591,0,0,0-1.224,1.869.837.837,0,0,1-.644.365c-.129,0-.236.344-.236.473s-1.1.687-1.224,1.2a12.463,12.463,0,0,0,.107,2.041c0,.408.408,1.2.709,1.224s.15.687.064.881.193.387.193.558-.773.387-1.01.473a1.739,1.739,0,0,0-.666.816c-.043.172-.773.3-1.01.537.064-.172.15-.408.215-.537a.853.853,0,0,0-.172-.816c-.107-.107-.172-1.418-.365-1.7a5.4,5.4,0,0,0-.773-.859c-.107-.086.086-.451.15-.58.064-.15-.623-.236-.795-.129-.193.107-.279,1.418-.365,1.783a1.12,1.12,0,0,0,.451.924c.107.021.086.666-.15.687s-.451.967-.344,1.181c.129.215-.172.644-.322.73s.924.043,1.4.021a1.066,1.066,0,0,1,.816.236c-.043.043-.924.172-1.1.387-.15.215-.752.6-.859.773-.107.15.193.516.451.494s.537.881.73,1.031a.734.734,0,0,1,.043.752c-.086.129-1.267-.086-1.718.021s-1.031,1.074-1.053,1.418a8.291,8.291,0,0,0,.129,1.675c.064.279.988.473,1.181.6s1.1,0,1.289.086c.172.086.795-.924.924-1.375.107-.473,1.074-1.31,1.289-1.632.193-.322,1.246-.279,1.482-.451.258-.172.107.795.236,1.31s1.117.451.967-.043.107-.709.129-.516c.043.172.988.558,1.181.838.172.279.129.859-.086.859s-.215.644,0,.709.516-.73.773-.838c.236-.129.43-.623.322-.666s.215-.494.344-.344a6.028,6.028,0,0,0-.924-1.375c-.408-.408-.129-.236.644.408l.516.73a6.729,6.729,0,0,1,.322.687l.129.215a4.838,4.838,0,0,1,.193,1.16.8.8,0,0,0,.666.537c.258-.021.43.129.387.129s.172.494.408.516c.236,0,.344-.623.107-.644-.258-.021-.215-.945-.236-1.332-.021-.408.172-.73.258-.73s-.021.816,0,1.01a3,3,0,0,0,.215.838l.258.193.58.451c.816-.236,1.933-.064,1.89.107s.6.215.644-.064.064,0,.064.193-.537.924-.623,1.267-2,.107-2.814.043a3.491,3.491,0,0,0-2.127.451c-.086.236-1.375-.558-1.955-.816s-1.053-1.138-1.16-1.246c-.129-.107.107-.408.043-.58a3.19,3.19,0,0,0-1.783-.064c-.387.15-2.384.365-2.878.559a2.762,2.762,0,0,1-1.418-.043c-.215-.043-.752.623-1.01.73-.279.107-.623,1.053-.752,2.062l-.365.709-.236.451A10.306,10.306,0,0,0,63.3,88.808a16.121,16.121,0,0,0-.387,3.566,11.577,11.577,0,0,0,.9,3.007,6.954,6.954,0,0,0,1.847,1.783,6.825,6.825,0,0,0,2.191.279,1.321,1.321,0,0,0,1.1-.924l.644.064.3.021c.021.365.967.644,1.2.773a2.076,2.076,0,0,0,1.031-.021c.193-.043.387,1.611.258,2.105a9.3,9.3,0,0,0,.473,2.685c.129.516.709,1.912.773,2.406a22.428,22.428,0,0,1-.408,2.749,10.581,10.581,0,0,0,.945,2.771,8.748,8.748,0,0,1,.365,2.041c0,.279.859,1.976,1.053,2.664C75.846,115.551,78.016,115.723,78.6,115.379Zm37.5-20.664c.064.129.6-.3.924-.365.322-.043.537-.924.279-.988s-.58-.752-.773-.838-.537.3-.537.558c.021.258-.6.365-.709.6-.107.215-.107.387.021.365S116.036,94.608,116.1,94.715Zm-.687,4.79c.172-.064-.021-.924-.365-1.01-.344-.064-1.289,1.138-1.1,1.847.172.687.387.644.473.516.107-.15.666.086.816.15.172.043.172-.107,0-.365A1.389,1.389,0,0,1,115.413,99.505Zm-1.847-.859c.043-.3.107-1.289.15-1.482s-.537-.752-.816-.859-1.2,1.89-1.847,2.234a1.854,1.854,0,0,0-.73,1.847c.172.279,1.547.43,1.783.644s.516-.043.644-.064c.15-.043.107-.129.043-.172s.473-.6.558-.967A11.386,11.386,0,0,0,113.566,98.646Zm-3.738,3.329a1.023,1.023,0,0,0-1.16.3c-.043.193,1.976.516,2.664.709.666.193,1.1.236.945.129C112.1,102.985,110.344,102.169,109.828,101.976Zm4.124-13.232c.172-.215-.236-1.289-.43-1.053s-.043.859,0,1.074C113.609,88.98,113.78,88.958,113.952,88.744Zm1.224,2.277c.107-.279-.15-.58-.58-.666-.451-.086-.387,1.224-.172,1.4C114.6,91.923,115.069,91.3,115.177,91.021Zm2.3,8.205c.537.365,1.7.193,1.74-.516C118.7,98.367,117.432,98.431,117.475,99.226ZM117.2,82.987a.7.7,0,0,0-.258.709h-.086c-.172,0-.193.687,0,.816.172.107.623-.537.859-.709a1.224,1.224,0,0,1,.773-.193,1.938,1.938,0,0,0,.9-.279.744.744,0,0,0,.258-.3c-.107-.516-.215-1.01-.344-1.5-.215.172-.473.344-.58.43C118.442,82.171,117.475,82.794,117.2,82.987ZM105.167,96.949h0C105.081,96.885,105.059,96.885,105.167,96.949Zm3.265,3.05a5.451,5.451,0,0,0-1.4-1.611l-.215-.365-.236-.408c-.215-.43-.859-.773-.924-.9s-.258.387-.494.236c.107.086.365.258.709.494.6.43,1.783,3.394,2.062,3.609C108.2,101.267,108.625,100.429,108.432,100Zm-9.387-4.79c-.172.344.881,1.053.945.881a1.842,1.842,0,0,0-.322-1.16C99.5,94.758,99.217,94.887,99.045,95.209ZM85.319,111.04c.043.344.752.623.967.58a3.685,3.685,0,0,0,.859-1.418,6.444,6.444,0,0,0,.15-1.117c0-.15.086-.516.172-.558a1.652,1.652,0,0,0,.279-.795,19.262,19.262,0,0,0-.451-2.6c-.021-.322-.387.172-.473.494-.107.322-1.031,1.01-1.246,1.289a2.661,2.661,0,0,0-.344,1.4,2.012,2.012,0,0,1-.172.988A10.038,10.038,0,0,0,85.319,111.04ZM51.788,123.971h.623C52.519,123.284,51.745,123.413,51.788,123.971ZM68.457,53.6a2.18,2.18,0,0,1-1.053-.236,2.531,2.531,0,0,0-1.418-.107c-.3.129-.086-.709.322-.795s.064-.666-.365-.666-1.5-.172-1.761-.107-.752-.172-.924-.193a18.7,18.7,0,0,1-2.084.365,16.043,16.043,0,0,0-2.427.129c-.322.086-.558.73-.516.945.043.236-1.439.215-1.912.236a14.924,14.924,0,0,0-3.63.9c-.644.365-1.16,1.289-.945,1.289.215.021-.365.537-.709.666s-1.181.172-1.4.365c-.193.193.215.322.279.473.086.129.3-.107.537.021a7.822,7.822,0,0,0,1.138.258c.193.086-.623.236-1.01.258s-.3.773.021.881,1.117.215,1.2.086.945.15,1.353.193c.387.043.687,1.031.816,1.246a2.773,2.773,0,0,1,.107,1.181c-.021.215.687.6.816.473s.086.344-.193.322-.107.816.258.924c.344.129.107.623-.086.795-.215.15-.086.644-.3.816s.752,1.826.752,2.685.537,1.547.73,1.547c.215,0,.9.172.988.344s.43-.129.558-.258a7.626,7.626,0,0,0,.623-.9,21.258,21.258,0,0,0,.752-2.255c.064-.193.859-.064,1.053-.172.172-.086.709-.516.859-.623.15-.129,1.289-.6,1.611-.838.3-.215.838-1.2,1.074-1.4.236-.215-.129-.15-.43-.344a.33.33,0,0,1-.086-.537,3.76,3.76,0,0,1,1.332.279c.322.129.924-.322.687-.494s-.107-.172,0-.086c.107.064.236-.558.107-.687s.924-.9.752-1.611c-.193-.73.279-1.482.58-1.482.279,0,.193-.816-.129-.9-.344-.086-.021-.15.107-.258a1.758,1.758,0,0,0,.215-.988c-.086-.15.516-.3.623-.473a2.621,2.621,0,0,1,1.031-.537C68.586,54.2,68.715,53.581,68.457,53.6Zm5.907.6c-.322-.107-.988.258-.9.451.086.215-.537-.258-.967-.043-.43.236-.559.988-.344,1.074.193.107.344.709.344.816,0,.129.838.043,1.053-.15.215-.172.172.6-.021.816-.215.215.064.644.3.666.236.043.558.58.795.58s.644-.924.73-1.267.881-.064,1.246.043.494-1.267.107-1.482c-.387-.193-.881-.107-1.053-.258a1.34,1.34,0,0,0-.623-.322C74.858,55.127,74.686,54.311,74.364,54.2Zm3.179.644a2.3,2.3,0,0,0,1.525-.58c.15-.15-1.783-.537-2.513-.558s-1.332.086-1.31.215A6.67,6.67,0,0,0,77.543,54.848ZM65.836,72.2c-.172-.064-.258.558-.215.795s.623.215.881.172a.461.461,0,0,0,.43-.451c-.021-.215-.365-1.16-.516-1.16C66.288,71.581,66.008,72.268,65.836,72.2Zm1.912-7.368c-.129-.236-1.138-.215-1.375-.215a2.917,2.917,0,0,1-1.138-.43c-.129-.15-.258.623-.473.73-.236.107.107.258.215.172.086-.086,0,.408-.107.558-.107.172.666.279.752.537a.647.647,0,0,0,.709.365c.3-.043.9-.365,1.117-.387C67.641,66.125,67.877,65.073,67.748,64.836Zm21.137-5.778c.344-.344,1.761-.816,1.933-1.181a.458.458,0,0,0-.236-.644.477.477,0,0,0-.344.236c-.043.064-1.675.451-2.17.687a4.935,4.935,0,0,0-1.289.838,20.4,20.4,0,0,0-.687,2.019c-.129.172.537.838.838,1.031a1.092,1.092,0,0,0,.816.043,4.478,4.478,0,0,0-.3-1.568C87.252,60.132,88.541,59.423,88.885,59.058Zm-1.761-4.21c.537.537.838-.236,1.418-.172C88.541,53.6,87.08,53.967,87.123,54.848Zm10.461.193c-.021.193,1.482.365,1.933.279.43-.086-.086-.752-.73-.73C98.121,54.655,97.584,54.848,97.584,55.041ZM43.175,66.189c-.15.15-.021.881.279.9s.773-1.117,1.138-.881.623.322.558.193a9.756,9.756,0,0,0-1.246-.666C43.776,65.674,43.325,66.061,43.175,66.189Zm3.845,24.96c0,.129.666.107.773-.086s.043-.365-.129-.365C47.471,90.677,47.02,91.021,47.02,91.149ZM44.1,90.075c.322-.064.172.451.236.623.086.172.838.322.988.451s.537-.236.838-.193-.107-1.031-.6-1.01c-.494.043-.9-.451-1.01-.516a6.944,6.944,0,0,1-.881-.537,7.289,7.289,0,0,0-1.89-.258,1.5,1.5,0,0,0-.988.58c-.064.15.687.236.9.129a2.233,2.233,0,0,1,1.439.365A1.175,1.175,0,0,0,44.1,90.075Zm-1.375,1.074c0,.129.666.043.816.043.172,0,.15-.107-.021-.236C43.368,90.827,42.724,91.021,42.724,91.149Zm.473-3.415c-.172-.064-.3.193-.3.322a.221.221,0,0,0,.215.236C43.218,88.314,43.368,87.82,43.2,87.734Zm1.375.107a.67.67,0,0,0-.43-.236c-.086,0-.15.215-.129.494S44.635,87.97,44.571,87.842Zm1.01,1.547c.258-.129.3-.451.15-.43s-.451-.451-.623-.537c-.172-.064-.322.279-.322.451,0,.15.107.258.215.236C45.108,89.066,45.3,89.517,45.581,89.388Zm73.871,10.375c-.129.064-.795.15-.881.021s-.215.279-.365.344-.064.408.15.3c.15-.064.773.279,1.289.6.107-.516.193-1.031.279-1.547C119.73,99.591,119.537,99.72,119.451,99.763Z" transform="translate(-23.469 -40.442)" fill="#0877bb" stroke="#fff" stroke-width="0.5"/>
      <g id="Group_931" data-name="Group 931" transform="translate(19.083 31.633)" opacity="0.5">
        <g id="Group_928" data-name="Group 928" transform="translate(2.943 2.943)">
          <path id="Path_1396" data-name="Path 1396" d="M107.569,171.139a5.069,5.069,0,1,1,5.069-5.069A5.079,5.079,0,0,1,107.569,171.139Zm0-10.1a5.026,5.026,0,1,0,5.026,5.026A5.033,5.033,0,0,0,107.569,161.043Z" transform="translate(-102.5 -161)" fill="#fff"/>
        </g>
        <g id="Group_929" data-name="Group 929">
          <path id="Path_1397" data-name="Path 1397" d="M96.812,163.324a8.012,8.012,0,1,1,8.012-8.012A8.012,8.012,0,0,1,96.812,163.324Zm0-15.96a7.948,7.948,0,1,0,7.948,7.948A7.957,7.957,0,0,0,96.812,147.364Z" transform="translate(-88.8 -147.3)" fill="#fff"/>
        </g>
        <g id="Group_930" data-name="Group 930" transform="translate(5.499 5.477)">
          <path id="Path_1398" data-name="Path 1398" d="M116.913,177.826a2.513,2.513,0,1,1,2.513-2.513A2.516,2.516,0,0,1,116.913,177.826Zm0-4.962a2.47,2.47,0,1,0,2.47,2.47A2.457,2.457,0,0,0,116.913,172.864Z" transform="translate(-114.4 -172.8)" fill="#fff"/>
        </g>
      </g>
      <g id="Group_935" data-name="Group 935" transform="translate(75.21 39.731)" opacity="0.5">
        <g id="Group_932" data-name="Group 932" transform="translate(2.212 2.212)">
          <path id="Path_1399" data-name="Path 1399" d="M365.018,204.537a4.618,4.618,0,1,1,4.618-4.618A4.625,4.625,0,0,1,365.018,204.537Zm0-9.194a4.575,4.575,0,1,0,4.575,4.575A4.579,4.579,0,0,0,365.018,195.343Z" transform="translate(-360.4 -195.3)" fill="#fff"/>
        </g>
        <g id="Group_933" data-name="Group 933">
          <path id="Path_1400" data-name="Path 1400" d="M356.931,198.661a6.831,6.831,0,1,1,6.831-6.831A6.848,6.848,0,0,1,356.931,198.661Zm0-13.6a6.766,6.766,0,1,0,6.766,6.766A6.765,6.765,0,0,0,356.931,185.064Z" transform="translate(-350.1 -185)" fill="#fff"/>
        </g>
        <g id="Group_934" data-name="Group 934" transform="translate(4.06 4.06)">
          <path id="Path_1401" data-name="Path 1401" d="M371.771,209.442a2.771,2.771,0,1,1,2.771-2.771A2.778,2.778,0,0,1,371.771,209.442Zm0-5.5a2.728,2.728,0,1,0,2.728,2.728A2.732,2.732,0,0,0,371.771,203.943Z" transform="translate(-369 -203.9)" fill="#fff"/>
        </g>
      </g>
      <g id="Group_938" data-name="Group 938" transform="translate(72.031 73.219)" opacity="0.5">
        <g id="Group_936" data-name="Group 936">
          <path id="Path_1402" data-name="Path 1402" d="M338.823,347.946a3.523,3.523,0,1,1,3.523-3.523A3.539,3.539,0,0,1,338.823,347.946Zm0-7.024a3.5,3.5,0,1,0,3.5,3.5A3.5,3.5,0,0,0,338.823,340.922Z" transform="translate(-335.3 -340.9)" fill="#fff"/>
        </g>
        <g id="Group_937" data-name="Group 937" transform="translate(1.418 1.418)">
          <path id="Path_1403" data-name="Path 1403" d="M344.005,351.71a2.105,2.105,0,1,1,2.105-2.105A2.081,2.081,0,0,1,344.005,351.71Zm0-4.189a2.084,2.084,0,1,0,2.084,2.084A2.086,2.086,0,0,0,344.005,347.522Z" transform="translate(-341.9 -347.5)" fill="#fff"/>
        </g>
      </g>
      <g id="Group_941" data-name="Group 941" transform="translate(36.782 79.556)" opacity="0.5">
        <g id="Group_939" data-name="Group 939">
          <path id="Path_1404" data-name="Path 1404" d="M176.14,380.281a4.94,4.94,0,1,1,4.94-4.94A4.941,4.941,0,0,1,176.14,380.281Zm0-9.838a4.9,4.9,0,1,0,4.9,4.9A4.9,4.9,0,0,0,176.14,370.443Z" transform="translate(-171.2 -370.4)" fill="#fff"/>
        </g>
        <g id="Group_940" data-name="Group 940" transform="translate(1.976 1.976)">
          <path id="Path_1405" data-name="Path 1405" d="M183.364,385.529a2.964,2.964,0,1,1,2.964-2.964A2.97,2.97,0,0,1,183.364,385.529Zm0-5.885a2.921,2.921,0,1,0,2.921,2.921A2.924,2.924,0,0,0,183.364,379.643Z" transform="translate(-180.4 -379.6)" fill="#fff"/>
        </g>
      </g>
      <g id="Group_942" data-name="Group 942" transform="translate(0 0)">
        <path id="Path_1406" data-name="Path 1406" d="M148.26,31.085a14.467,14.467,0,0,0-2.32-.709c-7.046-1.568-14.542,2.041-20.986,9.151-6.358,7-11.685,17.42-14.5,29.6,0,.021,0,.043-.021.043-2.814,12.179-2.578,23.843.064,32.865,2.427,8.248,6.874,14.306,12.91,16.561-5.864-2.341-10.2-8.334-12.587-16.432-2.642-9-2.878-20.664-.064-32.865,0-.021,0-.043.021-.043,2.814-12.179,8.162-22.6,14.5-29.6,6.444-7.11,13.962-10.719,20.986-9.151A11.674,11.674,0,0,1,148.26,31.085Z" transform="translate(-85.121 -23.574)" fill="#fff" opacity="0.6"/>
        <path id="Path_1407" data-name="Path 1407" d="M35,252.479a13.118,13.118,0,0,0,.279,2.406c1.375,7.067,7.668,12.48,16.733,15.53,8.936,3.007,20.578,3.716,32.822,1.439h.043c12.244-2.3,22.812-7.153,29.986-13.167,6.573-5.5,10.311-11.986,9.967-18.387.193,6.294-3.544,12.652-9.988,18.065-7.174,6.014-17.721,10.869-29.986,13.167h-.043c-12.244,2.277-23.908,1.568-32.822-1.439-9.065-3.05-15.358-8.463-16.733-15.53A11.748,11.748,0,0,1,35,252.479Z" transform="translate(-27.474 -188.69)" fill="#fff" opacity="0.6"/>
        <path id="Path_1408" data-name="Path 1408" d="M77.273,71.9a15.706,15.706,0,0,0-2.084,1.246c-5.864,4.21-8.184,12.2-7.2,21.738.988,9.408,5.177,20.32,12.373,30.566,0,.021.021.021.021.043,7.2,10.225,16.024,17.829,24.509,21.867,7.754,3.695,15.251,4.425,20.943,1.439-5.671,2.792-13.017,2.041-20.643-1.59-8.485-4.038-17.313-11.642-24.509-21.867,0-.021-.021-.021-.021-.043-7.2-10.225-11.385-21.158-12.373-30.566C67.306,85.2,69.626,77.184,75.49,73A15.272,15.272,0,0,1,77.273,71.9Z" transform="translate(-53.207 -56.463)" fill="#fff" opacity="0.6"/>
        <path id="Path_1409" data-name="Path 1409" d="M239.668,16.459c-3.458-9.9-8.785-15.7-14.993-16.346-4.575-.494-9.065,1.31-13.4,6.143.172,0,.344-.021.516-.021C215.975,1.68,220.271.026,224.632.477c6.057.623,11.277,6.358,14.671,16.11,3.48,9.988,4.618,22.919,3.2,36.409-1.439,13.49-5.241,25.905-10.74,34.948-5.37,8.828-11.664,13.361-17.721,12.716a12.9,12.9,0,0,1-7.84-4.146c-.236-.021-.43-.064-.6-.086a13.549,13.549,0,0,0,8.42,4.618,10.5,10.5,0,0,0,1.16.064c5.843,0,11.814-4.554,16.926-12.953,5.52-9.086,9.365-21.566,10.8-35.1C244.307,39.485,243.169,26.49,239.668,16.459Z" transform="translate(-161.428 -0.033)" fill="#fff" opacity="0.6"/>
        <path id="Path_1410" data-name="Path 1410" d="M112.641,27.586c-4.726-4.726-13.167-5.22-23.757-1.4-.15.064-.3.107-.451.172l.644.193c10.418-3.759,18.688-3.286,23.285,1.31s5.069,12.888,1.289,23.328c-3.866,10.7-11.664,22.254-22,32.585-10.332,10.311-21.888,18.129-32.586,22-10.439,3.781-18.731,3.308-23.328-1.289C31.7,100.447,30.865,93.4,33.336,84.594c-.064-.172-.15-.473-.215-.687-2.728,9.215-1.912,16.6,2.341,20.857,2.621,2.621,6.38,3.931,11.019,3.931a37.916,37.916,0,0,0,12.738-2.556c10.74-3.888,22.361-11.728,32.736-22.082l.021-.021c10.354-10.353,18.194-21.974,22.082-32.714C117.86,40.753,117.366,32.312,112.641,27.586Z" transform="translate(-24.757 -18.571)" fill="#fff" opacity="0.6"/>
        <path id="Path_1411" data-name="Path 1411" d="M85.01,187.386c-8.957-5.069-21.137-8.4-34.3-9.387h-.021c-13.146-.988-25.69.473-35.292,4.124C5.9,185.732.443,191.016-.008,197.009c-.43,5.778,3.823,11.6,12.029,16.475l-.344-.644C3.944,208.093-.051,202.53.357,197.031c.451-5.843,5.821-11.019,15.187-14.585,9.559-3.63,22.06-5.091,35.163-4.1h.021c13.1.988,25.218,4.318,34.111,9.344,8.7,4.919,13.253,10.848,12.824,16.69-.3,4.017-2.857,7.754-7.625,10.869-.129.193-.322.473-.494.752a26.563,26.563,0,0,0,3.243-2.427c3.179-2.75,4.983-5.843,5.22-9.151C98.479,198.427,93.86,192.369,85.01,187.386Z" transform="translate(0.038 -139.535)" fill="#fff" opacity="0.6"/>
      </g>
    </g>
  </g>
</svg>
