<svg xmlns="http://www.w3.org/2000/svg" xmlns:xlink="http://www.w3.org/1999/xlink" width="67" height="66" viewBox="0 0 67 66">
  <defs>
    <filter id="Ellipse_511" x="1" y="0" width="66" height="66" filterUnits="userSpaceOnUse">
      <feOffset dx="2" dy="1" input="SourceAlpha"/>
      <feGaussianBlur stdDeviation="3" result="blur"/>
      <feFlood flood-color="#03a52e" flood-opacity="0.702"/>
      <feComposite operator="in" in2="blur"/>
      <feComposite in="SourceGraphic"/>
    </filter>
  </defs>
  <g id="LD_8" data-name="LD 8" transform="translate(-1069 -3675)">
    <g id="Group_14074" data-name="Group 14074" transform="translate(268 189)">
      <g transform="matrix(1, 0, 0, 1, 801, 3486)" filter="url(#Ellipse_511)">
        <circle id="Ellipse_511-2" data-name="Ellipse 511" cx="24" cy="24" r="24" transform="translate(8 8)" fill="#34a853"/>
      </g>
      <g id="Group_1781" data-name="Group 1781" transform="translate(-7396.698 85.277)">
        <rect id="Rectangle_222" data-name="Rectangle 222" width="2.203" height="5.112" transform="translate(8220.239 3437.706) rotate(135)" fill="#f5f5f5"/>
        <path id="Path_3195" data-name="Path 3195" d="M163.886,401.084l1.734-1.589L162,395.88l-1.745,1.578Z" transform="translate(8064.465 3047.851)" fill="#f5f5f5"/>
        <path id="Path_3194" data-name="Path 3194" d="M29.457,102.326A4.218,4.218,0,0,0,26.21,99.51l-4.027-.733v-.312a6.064,6.064,0,0,0,1.8-1.595H25.2A1.81,1.81,0,0,0,27,95.063v-7.23a7.833,7.833,0,0,0-15.665,0V92.05a2.414,2.414,0,0,0,1.921,2.36,6.036,6.036,0,0,0,2.9,4.055v.312l-4.027.733a4.217,4.217,0,0,0-3.246,2.816l-.241.724L6.592,101a.6.6,0,0,1,0-.853l2.38-2.379L4.5,93.3l-2.69,2.69a4.218,4.218,0,0,0,0,5.964l8.143,8.143a4.216,4.216,0,0,0,5.946.018l2.935-2.689-.915-.913H30.852Zm-10.286-1.487-1.808-1.808V99a6.021,6.021,0,0,0,3.615,0v.028ZM25.2,95.665H24.69a5.985,5.985,0,0,0,.393-1.255,2.387,2.387,0,0,0,.716-.285v.938A.6.6,0,0,1,25.2,95.665Zm0-4.653a1.195,1.195,0,0,1,0,2.075ZM12.544,92.05a1.2,1.2,0,0,1,.6-1.038v2.075A1.2,1.2,0,0,1,12.544,92.05Zm.6-3.013v.688a2.39,2.39,0,0,0-.6.249V87.833a6.628,6.628,0,0,1,13.255,0v2.143a2.368,2.368,0,0,0-.6-.249v-.688h-.6a6.629,6.629,0,0,1-4.717-1.954l-.706-.706-.706.706a6.629,6.629,0,0,1-4.717,1.954Zm1.205,4.218V90.22a7.812,7.812,0,0,0,4.82-2.141,7.808,7.808,0,0,0,4.82,2.141v3.035a4.784,4.784,0,0,1-.652,2.41H19.171V96.87h3.178a4.812,4.812,0,0,1-8-3.615Zm-7.084,4.51-.654.654L3.85,95.656,4.5,95Zm5.672,12.361a3,3,0,0,1-2.13-.883L2.666,101.1a3.013,3.013,0,0,1,0-4.26L3,96.509,5.76,99.272l-.022.022a1.811,1.811,0,0,0,0,2.556l4.321,4.321a1.8,1.8,0,0,0,1.279.53,1.774,1.774,0,0,0,1.256-.509l.045-.04,2.776,2.776-.346.317A3,3,0,0,1,12.939,110.126Zm3.365-2.014-2.77-2.77.8-.719,2.765,2.765Zm.414-2.806-2.347-2.347-2.608,2.359a.615.615,0,0,1-.852,0L9.6,104l.431-1.3a3.014,3.014,0,0,1,2.319-2.012l4.212-.765,2.613,2.613,2.612-2.613,4.211.765a3.013,3.013,0,0,1,2.319,2.012l.867,2.6Z" transform="translate(8212.119 3339.941)" fill="#f5f5f5"/>
        <path id="Path_3193" data-name="Path 3193" d="M6.219,37.169,5.6,36.136l-1.633.98A15.67,15.67,0,0,1,23.806,25.9l.357-1.151A16.871,16.871,0,0,0,2.747,37.041l-1.142-1.9-1.033.62L2.69,39.287Z" transform="translate(8212.126 3391.723)" fill="#f5f5f5"/>
      </g>
    </g>
    <rect id="Rectangle_8751" data-name="Rectangle 8751" width="64" height="64" transform="translate(1069 3675)" fill="none"/>
  </g>
</svg>
