<svg xmlns="http://www.w3.org/2000/svg" xmlns:xlink="http://www.w3.org/1999/xlink" width="67" height="66" viewBox="0 0 67 66">
  <defs>
    <filter id="Ellipse_510" x="1" y="0" width="66" height="66" filterUnits="userSpaceOnUse">
      <feOffset dx="2" dy="1" input="SourceAlpha"/>
      <feGaussianBlur stdDeviation="3" result="blur"/>
      <feFlood flood-color="#0780e9" flood-opacity="0.698"/>
      <feComposite operator="in" in2="blur"/>
      <feComposite in="SourceGraphic"/>
    </filter>
  </defs>
  <g id="LD_4" data-name="LD 4" transform="translate(-580 -3678)">
    <g id="Group_14067" data-name="Group 14067" transform="translate(265 185)">
      <g transform="matrix(1, 0, 0, 1, 315, 3493)" filter="url(#Ellipse_510)">
        <circle id="Ellipse_510-2" data-name="Ellipse 510" cx="24" cy="24" r="24" transform="translate(8 8)" fill="#0877bb"/>
      </g>
      <path id="Path_3379" data-name="Path 3379" d="M9.2-4.028A2.236,2.236,0,0,0,8.5-5.693,6.2,6.2,0,0,0,6.166-6.918,7.49,7.49,0,0,1,2.831-8.739a4.016,4.016,0,0,1-1.047-2.852,4.129,4.129,0,0,1,1.026-2.89,4.359,4.359,0,0,1,2.82-1.343v-2.353h1.6v2.363A4.14,4.14,0,0,1,10.039-14.3a5.443,5.443,0,0,1,1,3.47H9.066a3.742,3.742,0,0,0-.72-2.414A2.365,2.365,0,0,0,6.4-14.137a2.683,2.683,0,0,0-1.955.662,2.463,2.463,0,0,0-.677,1.846A2.25,2.25,0,0,0,4.485-9.88,6.581,6.581,0,0,0,6.837-8.7,9.9,9.9,0,0,1,9.394-7.525a4.113,4.113,0,0,1,1.354,1.488,4.3,4.3,0,0,1,.435,1.987,3.982,3.982,0,0,1-1.09,2.922A4.835,4.835,0,0,1,7.036.183V2.234H5.446V.183A4.632,4.632,0,0,1,2.315-1.241,4.8,4.8,0,0,1,1.182-4.608H3.169a3.161,3.161,0,0,0,.784,2.3A2.961,2.961,0,0,0,6.177-1.5,3.335,3.335,0,0,0,8.39-2.181,2.285,2.285,0,0,0,9.2-4.028Z" transform="translate(340.819 3533.176)" fill="#fff"/>
    </g>
    <rect id="Rectangle_8747" data-name="Rectangle 8747" width="64" height="64" transform="translate(580 3678)" fill="none"/>
  </g>
</svg>
