<svg xmlns="http://www.w3.org/2000/svg" xmlns:xlink="http://www.w3.org/1999/xlink" width="67" height="66" viewBox="0 0 67 66">
  <defs>
    <filter id="Ellipse_504" x="1" y="0" width="66" height="66" filterUnits="userSpaceOnUse">
      <feOffset dx="2" dy="1" input="SourceAlpha"/>
      <feGaussianBlur stdDeviation="3" result="blur"/>
      <feFlood flood-color="#0780e9" flood-opacity="0.698"/>
      <feComposite operator="in" in2="blur"/>
      <feComposite in="SourceGraphic"/>
    </filter>
  </defs>
  <g id="LD_1" data-name="LD 1" transform="translate(-573 -3335)">
    <g id="Group_14061" data-name="Group 14061" transform="translate(258 194)">
      <g transform="matrix(1, 0, 0, 1, 315, 3141)" filter="url(#Ellipse_504)">
        <circle id="Ellipse_504-2" data-name="Ellipse 504" cx="24" cy="24" r="24" transform="translate(8 8)" fill="#0877bb"/>
      </g>
      <g id="ic_DanhSachHoaDon_24" transform="translate(335 3161)">
        <path id="Path_1692" data-name="Path 1692" d="M15,7.8H8A.773.773,0,0,1,7.3,7,.684.684,0,0,1,8,6.3h7a.789.789,0,0,1,.8.8A.709.709,0,0,1,15,7.8Z" fill="#fff"/>
        <path id="Path_1693" data-name="Path 1693" d="M12,10.8H8a.789.789,0,0,1-.8-.8A.709.709,0,0,1,8,9.3h4a.789.789,0,0,1,.8.8A.709.709,0,0,1,12,10.8Z" fill="#fff"/>
        <path id="Path_1694" data-name="Path 1694" d="M18,21.8a.764.764,0,0,1-.5-.2L16,20.1l-1.5,1.5a.785.785,0,0,1-1.1,0L12,20.1l-1.5,1.5a.785.785,0,0,1-1.1,0L8,20.1,6.5,21.6a.785.785,0,0,1-1.1,0l-2-2a.764.764,0,0,1-.2-.5V5.6a3.136,3.136,0,0,1,3-3.3H17.6a3.166,3.166,0,0,1,3,3.4V19.1a.764.764,0,0,1-.2.5l-2,2C18.4,21.7,18.2,21.8,18,21.8Zm-2-3.5a.764.764,0,0,1,.5.2L18,20l1.3-1.3V5.6a1.781,1.781,0,0,0-1.6-1.9H6.3A1.858,1.858,0,0,0,4.7,5.6V18.7L6,19.9l1.5-1.5a.785.785,0,0,1,1.1,0l1.5,1.5,1.5-1.5a.785.785,0,0,1,1.1,0l1.5,1.5,1.5-1.5C15.6,18.3,15.8,18.3,16,18.3Zm4,.7Z" fill="#fff"/>
        <rect id="Rectangle_253" width="24" height="24" fill="none"/>
      </g>
    </g>
    <rect id="Rectangle_8744" data-name="Rectangle 8744" width="64" height="64" transform="translate(573 3335)" fill="none"/>
  </g>
</svg>
