<svg xmlns="http://www.w3.org/2000/svg" xmlns:xlink="http://www.w3.org/1999/xlink" width="240" height="180" viewBox="0 0 240 180">
  <defs>
    <clipPath id="clip-path">
      <rect id="Rectangle_9008" data-name="Rectangle 9008" width="240" height="180" transform="translate(1289 1400)" fill="#fff" stroke="#707070" stroke-width="1"/>
    </clipPath>
  </defs>
  <g id="Loi_ich_4" data-name="Loi ich 4" transform="translate(-1289 -1400)" clip-path="url(#clip-path)">
    <g id="Group_14501" data-name="Group 14501" transform="translate(-5 17)">
      <ellipse id="Ellipse_56" data-name="Ellipse 56" cx="64.223" cy="64.215" rx="64.223" ry="64.215" transform="translate(1350 1410.855)" fill="none" stroke="#34a853" stroke-miterlimit="10" stroke-width="1.018" stroke-dasharray="6.906"/>
      <g id="Group_917" data-name="Group 917" transform="translate(1351.701 1407)">
        <ellipse id="Ellipse_55" data-name="Ellipse 55" cx="48.353" cy="48.345" rx="48.353" ry="48.345" transform="translate(13.55 18.67)" fill="#fff"/>
        <g id="Group_913" data-name="Group 913" transform="translate(13.515 18.46)">
          <path id="Path_1375" data-name="Path 1375" d="M90.107,170.071a.867.867,0,0,0-.391.03c-.3.09-.6.331-.9.422-.241.06-.452.09-.512.3.211.422.632-.09.933-.03.151.03.241.271.391.3a2.712,2.712,0,0,0,.753-.09c.03,0,.06-.03.09-.06C90.769,170.734,90.318,170.131,90.107,170.071Z" transform="translate(-75.231 -137.502)" fill="#0877bb"/>
          <path id="Path_1376" data-name="Path 1376" d="M95.841,175.695c.211.03.331-.572.572-.693.03,0,.03-.03.06-.03.12-.03.181.06.3.06a.34.34,0,0,0-.09-.542c-.06-.03-.181.06-.3.06s-.241-.151-.361-.151a.382.382,0,0,0-.181.03.372.372,0,0,0-.241.151c0,.151.09.181.09.331C95.51,175.062,95.63,175.665,95.841,175.695Z" transform="translate(-80.333 -140.545)" fill="#0877bb"/>
          <path id="Path_1377" data-name="Path 1377" d="M75.152,149.841c-.03.03-.06.03-.09.06-.181.09-.361.12-.361.3a.92.92,0,0,0,.572-.06,3.132,3.132,0,0,0,.3-.12c.12-.06.3-.03.331-.181-.09-.09-.211-.241-.331-.241C75.393,149.6,75.3,149.751,75.152,149.841Z" transform="translate(-65.727 -123.167)" fill="#34a853"/>
          <path id="Path_1378" data-name="Path 1378" d="M171.56,123.621c-.632-.03-1.957-.6-2.56-.06a3.432,3.432,0,0,1,1.867.723C171.138,124.133,171.469,124.073,171.56,123.621Z" transform="translate(-131.849 -104.76)" fill="#0877bb"/>
          <path id="Path_1379" data-name="Path 1379" d="M135.351,132.818c-.15.03-.3-.03-.419,0a1.511,1.511,0,0,0-.629.3,3.491,3.491,0,0,0-.6.479,5.608,5.608,0,0,0-1.407.06c-.479.15-.749.629-1.467.479-.15-.15-.389-.21-.389-.479,0-.21.239-.329.329-.479a1.854,1.854,0,0,0,.24-.718c0-.18-.09-.389-.09-.6,0-.18.09-.359.09-.509,0-.239-.12-.419-.15-.689v-.3c0-.15-.09-.3-.06-.389.03-.18.21-.18.24-.329.06-.21-.03-.269-.09-.449v-.12c0-.21.12-.3.21-.569a1.987,1.987,0,0,1,.09-.449c.06-.12.3-.21.389-.269.329-.21.629-.569.958-.629a.808.808,0,0,1,.269,0c.21-.03.449-.239.749-.3a1.816,1.816,0,0,0,.719-.18,2.259,2.259,0,0,0,.629-.778c.09-.3.06-.539.269-.629.09-.06.18,0,.3-.03a1.057,1.057,0,0,0,.389-.239c.15-.15.18-.419.359-.6a3.183,3.183,0,0,1,.329-.269c.06-.03.12-.09.18-.12a.54.54,0,0,1,.359-.09c.3.03.449.539.808.449.12-.03.24-.329.359-.509.15-.269.269-.629.569-.689.24-.06.479.09.6-.12.03-.15-.12-.269,0-.359a2.063,2.063,0,0,1,.659.3c.329-1.2.629-2.425.868-3.682-.449-.18-1.018-.15-1.168-.539-.03-.09.03-.18-.03-.3-.06-.15-.24-.18-.3-.3-.15-.329-.06-.778.21-.838a1.021,1.021,0,0,1,.778.509c.03.12-.03.239,0,.359.03.15.21.539.389.539a.226.226,0,0,0,.21-.12,49.438,49.438,0,0,0,.778-8.741,48.339,48.339,0,0,0-4.7-20.866,1.3,1.3,0,0,1-.629.15h-.09c-.359-.03-.539-.359-.868-.329-.15,0-.3.15-.419.18-.689.15-1.737-.389-1.976.3a1.227,1.227,0,0,0-.03.329,1.993,1.993,0,0,1-.18.359c-.03.09-.03.239-.06.359s-.449.569-.09.689c.09.03.12-.03.24-.03.18.03.509.389.749.389.12,0,.329-.18.419-.18a1.007,1.007,0,0,1,.509.239,2.032,2.032,0,0,0,.479.269c.21,0,.12-.18.3-.269.389.12.569.6.928.988.12.15.329.239.509.449.09.09.419.389.419.509s-.09.18-.12.3c-.03.15.06.269-.03.389-.359-.15-.449-.569-.689-.9-.09-.12-.18-.269-.329-.479-.06-.09-.3-.389-.449-.3-.269.12.15.629.21.718a2.269,2.269,0,0,1,.359.778c0,.15-.09.449-.09.689,0,.18.03.329.03.479-.03.15-.12.329-.15.479a1.5,1.5,0,0,0-.06.359c0,.09-.03.15-.03.21a.853.853,0,0,1-.569.509c-.18,0-.269-.18-.449-.15-.269.03-.329.3-.479.539,0,.269.09.329.03.509-.06.269-.389.329-.389.6,0,.239.3.3.449.419a4.681,4.681,0,0,1,.749.778,1.844,1.844,0,0,1,.3.718c0,.12-.12.239-.269.329a.793.793,0,0,1-.629.18c-.24-.09-.15-.359-.21-.629-.06-.21-.18-.269-.24-.449-.03-.09-.03-.21-.06-.3-.12-.269-.359-.12-.659-.3-.18-.12-.12-.329-.21-.539a.693.693,0,0,0-.808-.329c-.24.06-.3.3-.539.329-.329-.239.06-.778-.329-.838-.3-.03-.509.509-.689.689-.12.12-.329.12-.359.3-.03.3.269.239.479.329s.24.389.419.389c.15,0,.269-.18.419-.21a.932.932,0,0,1,.659.239c-.12.329-.719.539-.719.958,0,.24.24.269.419.449a7.642,7.642,0,0,1,.569.778c.09.12.24.18.3.269.09.18.09.389.21.479.03.15-.06.18-.03.3.06.18.3.15.359.329-.06.449.12.868-.21,1.048a3.037,3.037,0,0,1-.778,1.856,3.635,3.635,0,0,1-1.407.689.1.1,0,0,0-.06.03c-.12.06-.24.21-.359.269-.3.12-.808.06-.838.479,0,.21.24.329.24.539a.683.683,0,0,1-.389.689.385.385,0,0,1-.419-.359c-.03-.3.329-.449.359-.629a.552.552,0,0,0-.569-.629,1.769,1.769,0,0,0-.988,1.078,2.591,2.591,0,0,0,.659,1.048,2.68,2.68,0,0,1,1.168,2.6c-.15.389-.569.479-.868.689-.24.18-.359.689-.749.718-.15-.06-.06-.359-.12-.479a.472.472,0,0,0-.21-.21,2.5,2.5,0,0,1-.359-.24,5.615,5.615,0,0,1-.359-.539c-.15-.18-.389-.21-.569-.329-.12-.09-.21-.329-.329-.329-.21,0-.12.24-.18.6a3,3,0,0,0-.21,1.078c.03.18.21.329.3.479a5.577,5.577,0,0,0,.329.808c.09.12.269.15.389.239a3.313,3.313,0,0,1,.749.868,8.462,8.462,0,0,1,.06.868c.06.21.21.359.269.539a.415.415,0,0,1,0,.269c0,.03-.03.06-.06.09a2.167,2.167,0,0,1-.569-.329,2.125,2.125,0,0,1-.659-.778c-.06-.12-.15-.21-.18-.3a6.056,6.056,0,0,1-.12-.778,2.635,2.635,0,0,0-.479-.838c-.15-.18-.419-.269-.449-.509-.03-.359.09-.748.09-1.168,0-.09-.06-.18-.06-.3a4.214,4.214,0,0,0-.03-.629,2.316,2.316,0,0,0-.21-.479c-.06-.15-.12-.3-.18-.479-.09-.3-.18-.868-.389-.9s-.449.479-.748.479a.455.455,0,0,1-.389-.3c-.03-.15.06-.329.06-.479,0-.359-.21-.479-.389-.718a2.062,2.062,0,0,1-.12-.3c-.09-.15-.3-.21-.419-.359a1.405,1.405,0,0,1-.3-.479c-.09-.21-.12-.479-.24-.479-.12-.03-.269.18-.389.24a2.357,2.357,0,0,1-.6.12c-.449.03-.808-.09-.749.509-.06.269-.329.269-.479.419-.21.18-.359.509-.6.778-.12.12-.269.21-.389.329a.75.75,0,0,0-.12.21c-.03.06-.06.09-.09.15l-.12.12c-.21.18-.479.239-.629.539a2.127,2.127,0,0,0,.09.629,3.3,3.3,0,0,1,.06.539,3.619,3.619,0,0,0-.15.539,2.9,2.9,0,0,1,.03.509c-.03.09-.12.15-.18.269a2.066,2.066,0,0,0-.12.3c-.09.12-.21.18-.269.3-.12.15-.15.269-.24.3a.262.262,0,0,1-.3-.15,7.047,7.047,0,0,1-.509-1.317,6.4,6.4,0,0,1-.389-.659c-.12-.3-.15-.659-.3-.988a4.642,4.642,0,0,1-.419-.868,6.86,6.86,0,0,1-.21-.838,3.738,3.738,0,0,1-.18-.868c-.03-.329.06-.539-.18-.689-.21.06-.3.3-.569.3-.24,0-.868-.479-.689-.9-.15-.269-.539-.389-.838-.689-.18-.18-.329-.6-.629-.629a.874.874,0,0,0-.269.06c-.18.03-.509-.03-.749,0a4.537,4.537,0,0,1-.928.06,5.235,5.235,0,0,0-.719-.09,1.317,1.317,0,0,1-.808-.3c-.09-.12-.15-.449-.3-.479-.21-.06-.329.12-.509.18a1.114,1.114,0,0,1-1.018-.3c-.21-.15-.359-.24-.509-.329-.329-.269-.389-1.048-.9-1.078a.477.477,0,0,0-.479.359c-.03.18.18.479.24.6.24.419.719.569.838,1.108.09.03.269-.09.389.03.09.24,0,.689.21.778.928.18,1.2-.419,1.617-.838.24.18.15.329.24.539a.831.831,0,0,0,.389.449c.12.06.269,0,.419.09a2.126,2.126,0,0,1,.569.689,3.327,3.327,0,0,1-.389.808c-.09.12-.24.21-.269.3a1.342,1.342,0,0,0-.03.329c-.03.09-.24.24-.359.359a3.794,3.794,0,0,1-.389.329c-.15.12-.24.3-.389.359-.3.12-.569.06-.808.269-.15.12-.15.389-.359.539a8.708,8.708,0,0,1-.838.3c-.18.09-.3.3-.479.359-.06.03-.15,0-.21.03-.15.03-.269.18-.419.21-.12.03-.24.03-.329.06-.329.12-.659.509-.988.3a9.243,9.243,0,0,0-.389-1.377c-.09-.21-.3-.269-.359-.479,0-.18.15-.12.18-.269-.06-.269-.269-.419-.419-.659a4.394,4.394,0,0,0-.18-.419c-.269-.449-.778-.689-.9-1.257-.03-.15,0-.269-.03-.389a1.308,1.308,0,0,0-.269-.539c-.09-.12-.269-.18-.359-.359a1.935,1.935,0,0,1-.12-.389c0-.03-.03-.06-.06-.09a2.634,2.634,0,0,0-.18-.3,3.71,3.71,0,0,0-.659-.838c-.18.03-.389.06-.479.18a4.068,4.068,0,0,0,.389.9,4.384,4.384,0,0,1,.419.838c.03.12.03.239.06.359a1.139,1.139,0,0,0,.269.389.993.993,0,0,1,.389.629c.06.329,0,.539.06.868.09.3.449.479.629.778a8.028,8.028,0,0,1,.21.808c.12.329.509.479.778.689.24.21.419.509.629.718.12.12.269.15.3.3.03.18-.06.239-.09.389.18.21.329.6.629.629.12,0,.269-.12.449-.15.09-.03.18.03.269,0,.12-.03.21-.15.359-.18.24-.06.479-.03.778-.09.269-.03.449-.3.659-.24.24.3.06.629,0,.9a1.018,1.018,0,0,0-.03.3c-.12.449-.449.808-.569,1.227a2.658,2.658,0,0,1-.09.419,5.292,5.292,0,0,1-.778,1.168,3.641,3.641,0,0,1-.449.509c-.15.15-.359.24-.539.389a4.886,4.886,0,0,0-.749.808,2.5,2.5,0,0,0-.24.359c-.09.15-.15.329-.24.479-.15.18-.359.269-.479.479-.09.15-.15.419-.269.689-.12.3-.389.509-.329.9.03.15.15.269.18.419a1.86,1.86,0,0,1-.03.808,2.5,2.5,0,0,0,.449.988c.03.539-.03,1.048,0,1.467a1.585,1.585,0,0,1,.03.748,2.575,2.575,0,0,1-.6.778c-.21.15-.539.21-.749.389-.15.12-.3.359-.449.509a.414.414,0,0,1-.12.09c-.24.21-.509.419-.539.659a3.131,3.131,0,0,0,.12.509,2.565,2.565,0,0,1,.03,1.347c-.15.449-.988.359-1.078.838-.03.15.06.269.03.419a4.062,4.062,0,0,1-.21.748c-.09.21-.329.3-.479.479-.18.239-.269.569-.479.808-.15.18-.329.389-.509.569a5.2,5.2,0,0,1-.449.389,2.63,2.63,0,0,1-1.287.539c-.269.03-.569-.06-.838-.03a2.172,2.172,0,0,1-.359.15c-.09.03-.15-.03-.24,0-.15.03-.269.15-.389.15a.717.717,0,0,1-.479-.3.813.813,0,0,1-.18-.509c0-.15.12-.3.12-.449,0-.18-.18-.359-.3-.689-.12-.3-.18-.629-.3-.868a5.451,5.451,0,0,1-.419-.569,4.674,4.674,0,0,1-.3-1.347,2.535,2.535,0,0,1-.12-.509,4.856,4.856,0,0,0-.03-.689,2.676,2.676,0,0,0-.269-.479c-.15-.329-.269-.778-.389-1.048-.12-.239-.389-.509-.389-.778a5.766,5.766,0,0,1,.03-.718c.03-.18.15-.329.18-.509.03-.12,0-.269.03-.419.12-.6.689-.808.6-1.527-.03-.3-.21-.449-.24-.808,0-.15.06-.3.06-.479a2.42,2.42,0,0,0-.24-.748,6.535,6.535,0,0,0-.689-1.527c-.18-.239-.419-.419-.569-.629a1.705,1.705,0,0,1-.269-.659c0-.15.09-.239.12-.389v-.06c.03-.21.03-.509.09-.808a2.357,2.357,0,0,0,.12-.689,1.039,1.039,0,0,0-.539-.689c-.3-.09-.629.12-1.018.09-.329-.239-.3-.9-.808-.988a2.788,2.788,0,0,0-1.737.419,2.051,2.051,0,0,1-.749.329h-.03a3.158,3.158,0,0,1-.569-.15,2.835,2.835,0,0,0-.868.06c-.269.06-.479.269-.719.3-.419.03-.838-.449-1.108-.689l-.03-.03a5.2,5.2,0,0,0-.449-.389,3.756,3.756,0,0,1-.509-.389,2.341,2.341,0,0,1-.269-.808,4.244,4.244,0,0,0-.689-.838c-.18-.21-.629-.539-.659-.838-.03-.15.06-.3.03-.479,0-.24-.15-.359-.15-.509,0-.239.24-.419.3-.6.03-.09,0-.239.03-.359a2.016,2.016,0,0,0,.18-.808c0-.15-.12-.3-.12-.479,0-.15.09-.21.06-.329-.03-.21-.269-.269-.3-.509a.8.8,0,0,1,.09-.359,1.908,1.908,0,0,0,.24-.419c.06-.12.09-.329.15-.449.12-.21.329-.329.419-.539.06-.15.09-.389.15-.509.09-.15.24-.24.389-.449a4.375,4.375,0,0,1,.269-.449,2.258,2.258,0,0,1,.389-.18,1.761,1.761,0,0,0,.9-.958,1.148,1.148,0,0,1,.18-.868,1.9,1.9,0,0,1,.479-.689c.269-.18.539-.21.749-.539a1.953,1.953,0,0,0,.24-.659.721.721,0,0,0-.419-.629c-.21-.03-.509.18-.629-.09a1.442,1.442,0,0,1,0-.359c-.03-.18-.15-.3-.15-.419,0-.239.21-.509.269-.778a3.462,3.462,0,0,0-.03-1.108c.3-.569.988-.3,1.677-.239.09,0,.21-.03.329-.03.419,0,.719.15.868-.269a2.9,2.9,0,0,0,.06-.868,1.691,1.691,0,0,0-.479-.718c-.21-.15-.539-.09-.659-.389.09-.509.6-.09.9-.21.15-.06.12-.359.269-.419.09-.03.21.12.329.09a2.244,2.244,0,0,0,.6-.3c.15-.12.18-.359.3-.449a1.141,1.141,0,0,1,.3-.09,2.109,2.109,0,0,0,.569-.479c.03-.06.06-.09.09-.15.12-.21.21-.449.389-.479.3-.06.958.06,1.018-.3s-.269-.659-.15-1.048c.09-.3.329-.239.659-.449.15.12.12.509.12.748.21,0,.629-.06.659-.3.06-.269-.3-.539-.389-.689-.09-.18-.09-.479-.269-.509-.329-.09-.659.539-1.078.539a.8.8,0,0,1-.659-.479c-.03-.15,0-.269-.03-.419a1.75,1.75,0,0,1-.09-.718c.18-.329.569-.389.838-.569.12-.06.18-.21.3-.269.21-.09.509,0,.689-.12.12-.09.09-.21.18-.389.06-.09.18-.18.269-.3.06-.09.06-.21.12-.3.18-.269.539-.389.689-.689.06-.12-.12-.18-.06-.359s.359-.06.509-.09c.21-.03.419-.359.659-.419a6.486,6.486,0,0,0,.749-.12c.15-.06.269-.21.389-.24.06,0,.18.03.24.03a1.613,1.613,0,0,0,.3-.09,2.042,2.042,0,0,1,.569.06h0c.359,0,.689-.12.988.03.15.09.15.269.329.359.09.03.24-.03.389,0a7.478,7.478,0,0,0,.749.239,1,1,0,0,1,.3,0,6.557,6.557,0,0,1,.988.359c.269.09.808.239.808.509,0,.329-.479.449-.689.449-.359,0-.808-.239-1.168-.09a.965.965,0,0,0,1.048.958c.03-.269-.269-.12-.24-.389.21-.21.479.12.808.09.12-.03.09-.24.12-.389.269-.18.6-.449.988-.269q.045-.09.09-.09c.03-.3-.269-.419-.12-.689.03-.06.12-.09.21-.12.15,0,.329.06.359.15.03.18-.09.15-.09.3a.377.377,0,0,0,.359.239c.21,0,.269-.239.479-.359a1.141,1.141,0,0,1,.3-.09c.12-.06.24-.18.329-.21.06-.03.18,0,.3-.03s.269-.15.389-.15.24.18.389.21a1.841,1.841,0,0,0,.329-.09,1,1,0,0,0,.3,0c.21-.03.359-.18.539-.15.12,0,.329.21.419.09.15-.18-.18-.3-.09-.449.329.03.689.03,1.048.09a10.4,10.4,0,0,0,1.437.389c-.03-.359-.389-.269-.569-.419a1.479,1.479,0,0,1-.24-.539,3,3,0,0,1,.3-.629.779.779,0,0,1,1.018.09c.12.21.09.509.269.479.15,0,.24-.449.419-.479.15,0,.24.3.389.3.18,0,.3-.419.569-.419.12,0,.18.09.389.09.15-.09-.06-.239.03-.389.03-.03.06-.03.09-.06.269-.12.749,0,1.018-.12.09-.12-.12-.21-.03-.329a3.161,3.161,0,0,1,1.2-.329c.3-.06.569-.3.778-.3.24-.03.449.15.659.15a1.828,1.828,0,0,0,.389-.09c.12-.06.21-.21.329-.239.18-.06.419.03.629,0h.03c.239-.03.449-.15.629-.09.15.03.3.24.449.269.479.09.958-.09,1.377.06.09.03.15.12.24.15.3.12.479.09.539.479.24.09.359.329.629.419.18.06.359-.03.569-.03a3.418,3.418,0,0,1,.808.06c.12.03.24.12.359.15h0a1,1,0,0,0,.3,0,2.364,2.364,0,0,0,.389.09c.24,0,.419-.239.6-.3a.645.645,0,0,1,.329.06,6.562,6.562,0,0,1,1.108.03,1.764,1.764,0,0,1,.629.419,4.484,4.484,0,0,0,.329.389,1.017,1.017,0,0,0,.539.21c.15-.03.15-.21.3-.3.449-.12,1.228.15,1.587-.03.15-.06.12-.239.21-.329h.449c.509,0,1.018.06,1.5.06a4.85,4.85,0,0,1,.659-.03c.21.03.389.3.6.389.15.06.389.03.629.09.15.03.269.15.389.15a2.569,2.569,0,0,0,.689-.06,3.929,3.929,0,0,1,1.557.12c.03,0,.09.03.12.03.269.12.389.389.659.419a2.416,2.416,0,0,0,.659,0,48.666,48.666,0,0,0-83.235.12,1.064,1.064,0,0,1,.3-.06,7.342,7.342,0,0,0,.808-.06,3.159,3.159,0,0,1,.719-.18c.12,0,.21.03.329.03.12-.03.24-.18.389-.15.18.03.15.269.3.329.18-.12.389,0,.6,0s.389-.12.629-.09a.926.926,0,0,1,.24.06l.03-.659c-.3-.21-.18-.389.03-.539a3.574,3.574,0,0,1,.479-.239c.3-.15.539-.449.928-.509a4.265,4.265,0,0,1,1.018.12,3.261,3.261,0,0,1,.569.03c.21.09.329.329.509.389.09.03.21.03.3.06.21.06.389.18.569,0,.15.03.18.21.329.269.24.06.629-.479,1.018-.359a1.181,1.181,0,0,1-.18.449c-.06.12-.15.239-.21.389a4.284,4.284,0,0,0,.329.449,1.774,1.774,0,0,1-1.437.449.874.874,0,0,1-.269-.06.793.793,0,0,0,.18.15c1.048.868,1.856-.449,2.695-.269V83.573a1.66,1.66,0,0,0-.24-.18,1.765,1.765,0,0,1,.24-.12,2.665,2.665,0,0,1,1.437-.239c-.06.21-.12.449-.18.659.569-.539,1.228-1.168,1.976-.629-.719.239-2.335,1.108-.958,1.916-.03.21-.18.269-.15.509a1.48,1.48,0,0,0,1.228-.868c-.18-.09-.389-.269-.6-.359.6-2.455,3.683-.838,4.7-.419.12.06.24,0,.389.06.09.03.21.18.329.239.18.09.3.06.329.21s-.12.21-.12.359c.09.09.03.239.06.359.09.239.329.21.569.329.18.09.539.329.509.509,0,.12-.329.359-.449.419-.09.03-.449.269-.569.239-.21-.03-.3-.539-.569-.509-.12,0-.24.09-.24.3,0,.329.329.359.329.659,0,.359-.18.389-.419.6a1.632,1.632,0,0,0-.569-.239c-.15.21.24.269.12.509-.359.09-.629-.12-.958-.239a1.35,1.35,0,0,1-.329-.09c-.12-.09-.15-.329-.269-.479a.9.9,0,0,0-.569-.359c-.269,0-.659.389-.9.03.15-.6.868-.15,1.347-.359.18-.09.24-.3.389-.389.3-.18.749-.21.719-.6-.03-.18-.24-.18-.389-.3-.18-.12-.3-.6-.569-.629-.12,0-.21.12-.359.12-.3.03-.6-.15-.868,0-.12.09-.03.21-.12.359-.09.12-.269.15-.329.3-.09.15-.06.329-.18.449-.18.18-.569.21-.808.3-.09.03-.24.18-.329.18-.18,0-.269-.3-.479-.18-.03.269.24.389.419.509.18.15.389.269.449.509-.18.449-.479-.03-.749-.03-.329,0-.778.689-1.048.12.06-.3.359-.359.419-.659-.3.06-.6.359-.958.479a2.388,2.388,0,0,0-.449.09,1.214,1.214,0,0,0-.269.15,2.585,2.585,0,0,1-.479.3c-.12.06-.24.03-.359.09a6.259,6.259,0,0,0-.868.479,5.834,5.834,0,0,0-.778.539,1.744,1.744,0,0,0-.329.539c0,.15.269.21.269.359,0,.09-.15.3-.03.449.09.12.269.03.479.06.329.06.569.389.808.539a2.157,2.157,0,0,0,.719.3,3.63,3.63,0,0,1,.6.03.211.211,0,0,1,.12.15.242.242,0,0,1-.12.269v1.317h.03c.21.03.539-.269.659-.509.12-.3.06-.718.269-.958a1.629,1.629,0,0,0,1.856-1.8,1.841,1.841,0,0,1-.03-.419c.03-.21.329-.359.3-.629.3-.09.269-.659.569-.718.24-.06.539.21.868.18.12,0,.24-.12.359-.09.21.03.359.359.509.479s.3.09.329.269c-.03.3-.21.3-.21.569a.615.615,0,0,0,.329.449,1.08,1.08,0,0,0,.569-.15c.3-.15.539-.659.808-.6.21.06.359.778.389,1.048a6.01,6.01,0,0,1-.03.748c.03.449.509.389.749.629.06.06.09.239.15.329.12.18.24.18.269.359.03.449-.359.479-.3.988-.09.18-.269.18-.269.449.03.419.539.09.659.419.06.18,0,.3-.06.539.18.239.18.629-.12.629-.18,0-.24-.239-.419-.3-.09-.03-.24-.03-.389-.06l-.359-.09c-.269-.03-.569.06-.749-.12a9.037,9.037,0,0,1,.958-1.168c.09-.12.329-.18.269-.389-.18-.18-.419,0-.6.12a1.814,1.814,0,0,1-.629.329c-.359.06-.868-.12-1.168.09-.03.21.329.12.3.419a.363.363,0,0,1-.389-.09c-.09-.12-.03-.269-.12-.329a1.033,1.033,0,0,0-.749-.09.541.541,0,0,0-.479.449c.269.15.749-.15.838.239a1.33,1.33,0,0,1-.24.329.73.73,0,0,0-.24.6.577.577,0,0,0,.3.419c.12.03.18-.12.3-.09.12,0,.09.18.24.15.21-.12.329-.449.569-.449.3.419-.269.629-.569.748-.359.15-.808.24-1.078.359-.15.06-.689.689-.749.21-.06-.329.269-.239.329-.509-.359-.09-.659.18-.988.3-.449.21-1.2.329-1.317.9-.03.12.03.329-.03.419-.06.06-.359.06-.509.12-.21.09-.389.269-.539.3-.09.03-.24.03-.3.06a.508.508,0,0,0-.18.18,3.037,3.037,0,0,1-.269.389c-.09.09-.269.12-.329.21-.12.12-.12.479-.329.509-.12,0-.24-.12-.359-.03,0,.21.03.509.03.748a1.5,1.5,0,0,1-.06.359,7.776,7.776,0,0,1-.9.659c-.18.12-.359.15-.569.3-.15.09-.3.329-.479.449a1.643,1.643,0,0,0-.928,1.377,3.662,3.662,0,0,0,.09.509v.329c.03.269.21.629,0,.808-.3-.15-.689-.18-.9-.449-.06-.269.12-.479.09-.689-.03-.18-.24-.509-.389-.539s-.269.15-.389.12c-.18-.03-.329-.269-.539-.3a8.423,8.423,0,0,1-.9.03c-.329.21-.419.569-.838.539a.426.426,0,0,1-.18-.06c-.09-.03-.15-.09-.24-.12a2.335,2.335,0,0,0-.659-.09c-.389.03-.659.359-.988.539-.3.18-.689.389-.778.748-.06.18,0,.479-.06.659a1.787,1.787,0,0,1-.18.329,3.123,3.123,0,0,0-.269,2.006,3.693,3.693,0,0,0,.389.868,1.108,1.108,0,0,0,.659.359,3.133,3.133,0,0,0,.509-.12,3.232,3.232,0,0,0,.569-.09c.449-.18.389-.868.808-1.168.03,0,.03-.03.06-.03a1.944,1.944,0,0,1,.808-.15.581.581,0,0,1,.15.479c0,.12-.12.239-.18.449-.06.18-.06.359-.12.479-.06.18-.21.3-.269.479a1.342,1.342,0,0,0-.03.329c-.06.18-.24.3-.15.479.479.21,1.048-.06,1.467.03a.706.706,0,0,1,.539.6c0,.239-.15.389-.18.659-.03.329-.15.718-.15.988-.03.419.539,1.168.928,1.168.419,0,.659-.479,1.168-.24.18.09.359.419.539.389.15,0,.389-.329.479-.539.12-.269.12-.479.359-.629s.419-.06.749-.21a1.139,1.139,0,0,0,.389-.269c.12-.09.21-.3.359-.15.18.21-.21.329-.06.539.3.18.479-.359.689-.359a1.253,1.253,0,0,1,.449.269c.18.12.24.329.419.359.12.03.329-.06.479-.03.24.03.359.269.539.269.21,0,.3-.269.479-.3.389-.09.539.06.719.329.18.03.21-.269.389-.15-.09.239.03.329.12.509.06.12.03.21.09.269.12.12.3.12.479.24a1.3,1.3,0,0,1,.18.21c.09.12.15.239.269.389a1.143,1.143,0,0,0,.778.539c.24.03.449-.09.659-.06a1.992,1.992,0,0,1,1.078.629,1,1,0,0,1,.389.479c.03.15.03.329.06.479.09.329.509.479.359,1.048.06.15.21.21.389.329.12.09.24.3.389.3.09.03.18-.03.269-.03a2.919,2.919,0,0,1,.659.24,2.673,2.673,0,0,1,.389.15c.12.09.12.389.269.479.09.06.3-.03.449,0,.24.03.569.21.778.21.12,0,.24-.06.359-.06.539.06.868.808,1.377,1.048.15.06.419.03.539.09.21.09.359.808.389,1.108.06.928-.569,1.257-.928,1.856-.06.12-.12.329-.21.509-.21.359-.449.449-.419,1.108,0,.09.03.15.03.239a1.273,1.273,0,0,1,.06.329,7.337,7.337,0,0,1-.06.808c-.03.18-.15.3-.18.479a1.976,1.976,0,0,0,.03.419,3.944,3.944,0,0,1-.24.569c-.09.21-.15.419-.24.6a.817.817,0,0,1-.449.539c-.24.12-.569.06-.838.15a1.961,1.961,0,0,0-.389.239c-.389.21-.928.479-1.048.958-.09.419.12.748.06,1.227a2.533,2.533,0,0,1-.269.449c-.09.15-.15.329-.24.479-.12.21-.329.269-.419.539-.03.09,0,.21-.03.329,0,.06-.09.12-.12.239-.03.09-.03.21-.06.3-.09.24-.389.778-.629.868a1.16,1.16,0,0,1-.778-.09,1.026,1.026,0,0,0-.479-.09c.06.269.21.239.3.419a2.011,2.011,0,0,0,.18.359c.09.15.18.18.21.329a.933.933,0,0,1-.329.748,2.438,2.438,0,0,1-.659.21c-.15.03-.6.03-.659.15-.12.18.06.629-.03.808-.18.389-.6,0-.838.09a.453.453,0,0,0,.18.479c.15.09.359-.03.449.15-.06.269-.269.3-.329.539a2.915,2.915,0,0,1,.03.479c-.06.329-.509.329-.479.689.03.539.868.3.9.838,0,.3-.24.329-.329.629-.06.15.03.21,0,.329-.03.18-.21.24-.21.449,0,.239.3.509.479.718a2.849,2.849,0,0,0,.569.629c.3.21.778.15.9.509-.03.21-.21.269-.389.329h-.659c-.3-.15-.659-.269-1.018-.419-.12-.06-.269-.18-.419-.269-.12-.06-.24-.09-.3-.12-.18-.12-.419-.509-.6-.659a4.427,4.427,0,0,1-.389-.239c-.06-.09-.12-.269-.18-.389h0c-.06-.12-.21-.21-.269-.329a2.51,2.51,0,0,1-.419-.868c0-.21.18-.359.12-.539s-.389-.15-.449-.359c-.03-.12.09-.359.09-.539,0-.12-.18-.269-.12-.419.09-.18.24.03.359-.09-.09-.389,0-.988-.3-1.078-.15.15.18.509-.12.629-.269-.15-.21-.539-.269-.868a4.239,4.239,0,0,1-.12-.6c0-.12.03-.24.03-.359-.06-.359-.389-.629-.389-.988a2.8,2.8,0,0,1,.12-.479,1.692,1.692,0,0,0,0-.389c.03-.18.09-.329.12-.479a5.611,5.611,0,0,0-.03-1.018c-.06-.3-.269-.569-.3-.868,0-.12.03-.329.03-.479s-.09-.269-.09-.449c0-.15.03-.3.03-.479.03-.329-.06-.689-.03-1.018,0-.09.06-.18.03-.269,0-.269-.09-.539-.09-.808v-.838a2.738,2.738,0,0,0-.03-.479,6.878,6.878,0,0,0-.21-1.078,3.453,3.453,0,0,0-.808-.808c-.15-.09-.329-.15-.509-.24-.359-.21-1.078-.659-1.228-1.078-.06-.12-.03-.269-.09-.419a3.818,3.818,0,0,0-.449-.748c-.09-.18-.21-.389-.3-.6-.15-.329-.3-.689-.479-1.018a8.379,8.379,0,0,0-.419-.748c-.09-.12-.389-.239-.419-.419a2.689,2.689,0,0,1-.18-.748c.03-.239.449-.449.449-.689,0-.18-.21-.3-.269-.479-.12-.389.06-.629.21-.958.03-.12.09-.269.12-.359.09-.15.24-.18.359-.329a4.169,4.169,0,0,1,.18-.389.807.807,0,0,1,.21-.239c.12-.12.269-.21.3-.359a5.875,5.875,0,0,0,.03-1.467c-.03-.18-.18-.329-.24-.509-.09-.3-.12-.659-.389-.659-.18,0-.3.21-.389.359-.03.18,0,.389-.18.449-.24.09-.359-.3-.659-.419a1.485,1.485,0,0,1-.389-.09c-.21-.12-.3-.479-.509-.629-.18-.12-.359-.09-.479-.269-.06-.12,0-.359-.03-.509-.24-.18-.449-.778-.749-.928a3.161,3.161,0,0,0-.569-.15c-.03,0-.09-.03-.12-.03a3.11,3.11,0,0,1-.3-.12,1.245,1.245,0,0,1-.389-.09c-.449-.269-.689-1.078-1.228-1.078-.24,0-.449.269-.659.269a3.016,3.016,0,0,1-.838-.329c-.269-.15-.569-.239-.808-.359a5.472,5.472,0,0,0-.479-.389c-.12-.06-.3-.06-.389-.12a4.581,4.581,0,0,1-.479-.389c-.18-.15-.359-.329-.359-.509,0-.21.15-.389.18-.569a2.235,2.235,0,0,0-.569-1.437c-.18-.269-.389-.509-.569-.748v-.359a3.841,3.841,0,0,1-.389-.629c-.12-.21-.389-.449-.419-.689V103c0-.239.09-.449,0-.659-.15-.479-.719-.269-.659.359a.834.834,0,0,0,.21.389l.09.18c.06.18.06.389.12.6s.24.359.3.6c.09.359.09.748.18.958s.359.389.21.629c-.21.06-.3-.18-.419-.329-.06-.09-.329-.239-.389-.419-.03-.15.09-.359.03-.539-.09-.359-.719-.389-.719-.748,0-.24.269-.269.269-.479a.532.532,0,0,0-.12-.3,1.253,1.253,0,0,1-.24-.359c-.03-.06-.03-.15-.06-.239a49.471,49.471,0,0,0-.539,7.334,48.655,48.655,0,0,0,91.768,22.542C136.01,132.578,135.71,132.788,135.351,132.818ZM78.284,90.608c-.569-.509-.659.18-1.168-.239h-.09c-.269.06-.24.569-.569.509-.03,1.2-.958,1.018-.958,2.245-.359.06-.509.389-.719.659-.479-.06-.21-.689-.629-.778-.329-.06-.689-.15-1.018-.21a5.336,5.336,0,0,1-.06-2.575,1.663,1.663,0,0,0-.389-1.287c-.09-.509.778-.449.419-.718a5.446,5.446,0,0,1,.928-.479l.12-.329c-.269-.449-1.048-.509-1.048-1.168.419.09.928.3.958-.3-.269-.659-.509.359-1.048-.06a2.545,2.545,0,0,1,.329-1.078l-.09-.269a1.919,1.919,0,0,1,.03-1.227,2.265,2.265,0,0,1-1.677-.838c-.419-.21-.359.359-.778.15-.449-.329-.988-.569-1.018-1.2.449-.239,1.287.18,1.916.24.12-.868-.629-.389-.988-.389.06-.419-.659-.569-.719-.15-.269-.12-.18-.509-.689-.479a.665.665,0,0,1,1.108-.269c.449-.329,1.228-.15,1.707-.449.15-.479-.719-.21-.479-.748a5.3,5.3,0,0,0,2.365-.449h0a3.944,3.944,0,0,1,1.5-.21,6.57,6.57,0,0,0,1.886.509c.21.06.449.12.719.21.269-.03-.03-.808.03-1.138.329-.389,1.138-.06,1.8.06a2.847,2.847,0,0,1,1.527.18c.03,0,.03,0,.06.03a1.905,1.905,0,0,0,1.078.03c.24.15.6.21.689.479.329-.359.868,0,1.317.269.808.09,1.437.329,1.677.838-.269.659-1.407.03-1.617.808.24.3,1.048-.21,1.647.03.479.03.329.509.659.629.03.329.778.12.689.539a.11.11,0,0,1-.03.09c0,.539-.569.21-.988.09a.744.744,0,0,0-.24-.03.385.385,0,0,0-.479.15.385.385,0,0,1-.479.15c-.18.479.18.509,0,.988-.509-.269-.479.3-.928.12.329.419,1.078.479,1.018,1.2a3,3,0,0,0-1.317-.12c.09.928.24,2.6-.988,2.425.09.3.329.479.15,1.018-.21-.12-.329-.3-.539-.449-.449.15.689.748.15,1.018-.749-.12-.988-.659-1.5-.988-.389-.21-.359.269-.629.18.389.12.9.9,1.257.6.329.659-.928.539-1.078,1.078-.6,0-.988.359-1.5.509a1.517,1.517,0,0,1-.389.06C78.823,90.278,78.553,90.458,78.284,90.608Zm27.755,34.367a4.976,4.976,0,0,1-.389,1.527c-.15.389-.24.838-.359,1.2-.03.12-.15.24-.18.329-.15.449-.21,1.138-.509,1.317a2.484,2.484,0,0,1-.629.18.634.634,0,0,1-.569-.509c-.03-.15,0-.3-.03-.479a3.9,3.9,0,0,1-.12-.629c.06-.539.479-.778.509-1.227.03-.329-.15-.659-.12-.988a1.43,1.43,0,0,1,.3-.689c.21-.18.479-.15.689-.3a1.363,1.363,0,0,0,.539-.479c.12-.15.12-.359.21-.479.06-.09.18-.12.269-.21.06-.09.06-.269.15-.359.3-.15.389.509.449.958,0,.15.09.3.06.359C106.308,124.795,106.1,124.825,106.039,124.974Zm13.084-10.9a.5.5,0,0,1-.479.3c-.449-.09-.359-1.227-.21-1.676,0-.03.03-.06.06-.09C118.674,112.671,119.3,113.6,119.123,114.078Zm14.4,7.514c-.24,0-.479,0-.509-.239.06-.18.269-.06.449-.09.269-.03.629-.239.719.12C134.034,121.622,133.644,121.412,133.525,121.592Zm1.138.6c-.18-.06-.359-.12-.389-.3.12-.21.479-.03.479.21C134.722,122.1,134.692,122.16,134.662,122.19Zm-.06-.808c.09-.21.539-.15.569.09C135.111,121.652,134.632,121.562,134.6,121.382Zm2.126.419c-.21.15-.389.419-.659.449q-.045-.09-.09-.09c0-.3.24-.359.419-.479.24-.15.539-.509.988-.329C137.267,121.652,136.938,121.652,136.728,121.8Zm1.916,1.048c0-.18.3-.21.329-.06A.169.169,0,0,1,138.644,122.849Zm-.629-27.212c0-.03.03-.03.03-.09.21-.06.659.419,1.138.509.329.06.569.03.6.389-.06.12-.15.09-.24.18-.09.06-.21.3-.3.329-.18.03-.389-.21-.569-.15-.21.06-.09.239-.15.479-.18-.06-.479-.269-.479-.509,0-.15.15-.239.21-.419C138.285,96.056,138.135,95.906,138.016,95.637Zm-1.407,5c.12-.15.389-.449.539-.479.3-.09.6.03.838-.09.21-.09.21-.449.3-.539s.18-.06.269-.09a1.006,1.006,0,0,0,.3-1.048c-.06-.3-.479-.6-.21-.958a1.336,1.336,0,0,1,.988.958,3.3,3.3,0,0,1-.06.539c0,.12.09.21.12.359.09.3.15.629.21.9-.24.359-.719.21-1.078.419-.18.09-.21.419-.389.479-.12.03-.24-.12-.359-.12-.329,0-.479.629-.868.479-.21.15,0,.748-.269.808h-.09a.539.539,0,0,1-.24-.269.657.657,0,0,0-.09-.15c-.15-.21-.359-.329-.359-.509C136.189,101.085,136.489,100.786,136.608,100.636Zm-1.467,16.046c.15-.03.419.09.659.09.269,0,.509-.09.689.03-.03.659-.9.15-1.467.269-.12.03-.15.12-.3.09A.512.512,0,0,1,135.141,116.682Zm-.719,1.527c.06-.24.03-.689.269-.689.12,0,.269.3.359.3.269.06.569-.329.958-.239.03.359-.389.389-.509.689a11.739,11.739,0,0,0,.479,1.078c0,.21.03.449-.06.539-.449.09-.689-.838-.868-1.168-.329.06-.03,1.347-.479,1.2-.24-.09,0-.449-.06-.718-.03-.239-.24-.3-.269-.479S134.363,118.359,134.423,118.209Zm-3.922-1.856c.15-.03.329.12.419.09.21-.06.18-.389.359-.509.09-.06.269-.03.419-.09a.832.832,0,0,0,.359-.359c.09-.12.18-.359.3-.449.15-.12.269-.12.389-.21.3-.269.3-.629.539-.928.21-.269.509.269.539.479.12.18.329.21.419.389-.12.449-.509.509-.419,1.138a1.439,1.439,0,0,0,.12.449c.06.15.24.329.24.419,0,.18-.359.18-.419.389a.584.584,0,0,0-.03.21.954.954,0,0,1,0,.3c-.09.21-.359.269-.419.509-.09.3,0,.718-.21.928-.15,0-.3.15-.479.12-.21-.03-.389-.329-.689-.329-.12,0-.269.09-.389.09-.09,0-.18-.12-.3-.15-.18-.06-.329-.03-.389-.09-.15-.12-.12-.419-.18-.6s-.24-.269-.329-.509a2.826,2.826,0,0,1-.09-.269C130.171,116.922,130.2,116.413,130.5,116.353Zm-.689,1.826c.569,0,.569,1.018,0,1.018S129.243,118.179,129.812,118.179Zm-1.407,1.856-.03-.03a9.633,9.633,0,0,1-1.048-1.138,2.86,2.86,0,0,1-.359-.479,7.8,7.8,0,0,0-.3-.748,2.808,2.808,0,0,0-.269-.359.652.652,0,0,1-.15-.24,4.747,4.747,0,0,0-.21-.6,2.041,2.041,0,0,0-.359-.359c-.06-.09-.12-.21-.18-.3-.269-.389-.808-.6-.838-1.168.12-.15.24.06.449.09.15.03.3,0,.389.03.21.09.329.449.569.659.12.12.269.18.389.3s.24.3.329.389c.15.09.359.18.539.3.269.18.719.389.778.778v.09c0,.09-.03.18-.03.239.03.12.12.18.21.269l.06.06c.12.15.12.359.3.389.15.06.15-.21.329-.18a.967.967,0,0,1,.3.509c0,.18-.24.18-.3.419-.09.359.06.808-.12.988A.762.762,0,0,1,128.4,120.035Zm1.377.988c-.21-.03-.958-.359-.958-.6s.329-.3.659-.269c.389.06.659.479,1.168.389.12-.03.21-.12.329-.12.269,0,.509.21.808.18.06.09.03.15.03.3.27.15.689.12.808.449-.21.239-.479.06-.749.03-.24-.03-.479-.03-.719-.06-.3-.03-.6-.239-.9-.3C130.141,120.993,129.932,121.053,129.782,121.023Z" transform="translate(-44.9 -61.3)" fill="#0877bb"/>
          <path id="Path_1380" data-name="Path 1380" d="M99,231.955c-.151.09-.09.422.09.391C99.243,232.317,99.213,231.835,99,231.955Z" transform="translate(-82.651 -180.855)" fill="#ffc452"/>
          <path id="Path_1381" data-name="Path 1381" d="M169.816,146.9c.12-.422.452-.482.6-.873C169.967,145.851,169.455,146.543,169.816,146.9Z" transform="translate(-132.332 -120.647)" fill="#34a853"/>
          <path id="Path_1382" data-name="Path 1382" d="M191.756,181.091c.09-.3.241-.482.241-.693,0-.271-.09-.482-.12-.873-.422-.3-.723.271-1.144.211-.06,0-.09-.03-.151-.06-.181-.12-.361-.331-.572-.271-.151.03-.211.241-.391.3-.331.06-.452-.3-.813-.151a3.068,3.068,0,0,1-.813-1.9c-.271-.391-.662-.06-.843.181-.12,0-.271-.09-.3.09-.09.482.572.542.572.873,0,.211-.271.181-.391.331s-.03.3-.211.391c-.452.06-.6-.211-.572-.693-.181-.331-.422-.572-.6-.873a1.366,1.366,0,0,1-.181-.422c-.03-.12.06-.271.03-.422-.06-.241-.452-.452-.693-.572a2.871,2.871,0,0,1-.783-.482c-.12-.12-.181-.361-.3-.452-.09-.06-.211-.06-.3-.12-.12-.09-.09-.271-.271-.3-.09-.03-.211.09-.271.181-.12.572.3.6.482.873a4.362,4.362,0,0,0,.3.542c.12.12.331.09.482.181.12.06.211.241.3.3.211.151.542.181.572.482-.12.12-.422-.151-.542.09-.03.181.12.271.12.422,0,.271-.241.542-.482.482-.03-.151.12-.271.12-.452,0-.331-.572-.843-.873-.994-.151-.06-.3-.09-.422-.151a5.553,5.553,0,0,1-.753-.693c-.151-.241-.3-.693-.662-.693-.151,0-.271.151-.391.241-.06.03-.151.09-.211.12-.03.03-.09.06-.12.09-.12.09-.241.211-.361.211-.271,0-.512-.241-.753-.181-.09.03-.151.12-.241.211,0,.151.03.241.03.422-.06.151-.3.151-.452.241a2.657,2.657,0,0,0-.632.662c-.12.151-.241.241-.241.361,0,.09.06.241.06.361a1.074,1.074,0,0,1-.361.482c-.09.06-.181.06-.271.12-.181.12-.241.271-.391.3-.391.09-1.114-.09-1.084.391,0,.331.391.331.6.3a3.423,3.423,0,0,0,.753.03c.12-.03.241-.181.391-.271.09-.03.151-.03.211-.09.12-.09.211-.211.3-.271a2.493,2.493,0,0,1,.813-.211c.3-.03.6.03.994,0,.151,0,.271-.12.422-.12.241-.03.572.12.753.09a.765.765,0,0,0,.211-.06c.09-.03.151-.09.241-.09a.424.424,0,0,1,.391.3c.03.09-.03.211-.03.3.03.181.151.271.151.391,0,.151-.361.391-.3.572.03.12.271.241.391.331a1.449,1.449,0,0,0,.482.241c.12.03.241-.03.361-.03a1.5,1.5,0,0,1,.632.271c.211.181.181.452.422.542.09.03.3.03.422.06.331.09.572.391.813.361.361-.06.211-.452.241-.753.09-.662,1.2-.632,1.445-.181.151.06.3,0,.482.09.12.03.181.181.3.211a1,1,0,0,0,.3,0,.428.428,0,0,1,.181.06c.361.12.693.361.994.331.241-.03.391-.3.632-.3.422-.03.693.361,1.174.181C191.7,181.934,191.636,181.513,191.756,181.091Zm-9.907-4.457a.375.375,0,0,1-.151.391C181.4,176.966,181.608,176.333,181.849,176.634Zm.06,1.385c-.06.211-.391.512-.542.181a2.848,2.848,0,0,0,.03-.723C181.7,177.086,182.03,177.3,181.91,178.02Zm1.987,1.325c-.361-.09-.723-.181-.873-.482.241-.211.753-.06,1.084-.09A1.42,1.42,0,0,1,183.9,179.345Zm6.805.9c0-.211.422-.3.512-.09C191.184,180.368,190.793,180.519,190.7,180.248Z" transform="translate(-136.86 -141.108)" fill="#0877bb"/>
          <path id="Path_1383" data-name="Path 1383" d="M221.49,175.911h.271a2.1,2.1,0,0,0,.482-.06c.542-.12.361-.632.09-.873-.03-.03-.06-.03-.09-.06-.241-.151-.512-.3-.783-.482a.658.658,0,0,0-.151-.09c-.241-.12-.6-.271-.6-.452,0-.241.452-.331.271-.753-.3-.09-1.024.06-.994.452.03.241.271.09.3.331-.211.09-.482.331-.723.3-.271-.06-.331-.452-.482-.693-.211,0-.361-.241-.6-.211-.271.03-.391.482-.542.693-.06.12-.181.181-.211.271h0c-.03.06,0,.181-.03.271-.09.3-.3.391-.271.662.03.241.241.331.241.512,0,.211-.3.09-.271.331.391.391.422-.181.632-.271.151-.06.482.06.693,0,.181-.03.3-.241.482-.3a.962.962,0,0,1,.422-.09c.662-.03,1.114.422,1.656.512Z" transform="translate(-165.764 -139.649)" fill="#0877bb"/>
          <path id="Path_1384" data-name="Path 1384" d="M352.42,152.641c-.03-.09-.09-.151-.12-.241v.09C352.33,152.551,352.39,152.581,352.42,152.641Z" transform="translate(-260.291 -125.128)" fill="#ffc452"/>
        </g>
        <path id="Path_1385" data-name="Path 1385" d="M389.6,223.8" transform="translate(-272.844 -156.715)" fill="none" stroke="#34a853" stroke-miterlimit="10" stroke-width="11"/>
        <path id="Path_1386" data-name="Path 1386" d="M206.3,40.5" transform="translate(-144.468 -28.303)" fill="none" stroke="#34a853" stroke-miterlimit="10" stroke-width="11"/>
        <path id="Path_1387" data-name="Path 1387" d="M392.2,223.8" transform="translate(-274.661 -156.715)" fill="none" stroke="#34a853" stroke-miterlimit="10" stroke-width="4"/>
        <path id="Path_1388" data-name="Path 1388" d="M267.4,48.2" transform="translate(-187.255 -33.685)" fill="none" stroke="#34a853" stroke-miterlimit="10" stroke-width="4"/>
        <g id="Group_914" data-name="Group 914" transform="translate(4.985 11.384)">
          <path id="Path_1389" data-name="Path 1389" d="M132.14,93.588s-.03.989-.09,2.876c-.03.509-.09,1.079-.15,1.678-.06.629-.09,1.318-.21,2.007-.09.719-.21,1.468-.33,2.277-.15.809-.33,1.678-.48,2.577-.18.9-.45,1.858-.659,2.846q-.4,1.483-.9,3.056a60.243,60.243,0,0,1-2.637,6.681c-.509,1.168-1.169,2.337-1.8,3.535-.33.6-.689,1.2-1.049,1.8l-.539.9c-.18.3-.39.6-.6.9s-.39.6-.6.9l-.3.449-.33.449c-.42.6-.869,1.2-1.319,1.8-.48.6-.959,1.168-1.438,1.8l-.36.449-.39.449c-.27.3-.509.6-.779.869a58.229,58.229,0,0,1-15.853,12.494A57.374,57.374,0,0,1,79.876,150.9c-.479.06-.959.09-1.468.12l-1.468.09c-.479.03-.989.03-1.468.06-.479,0-.989,0-1.468.03h-.779l-.719-.03c-.479-.03-.959-.03-1.438-.06-.479,0-.989-.06-1.5-.09s-1.019-.09-1.528-.12a57.41,57.41,0,0,1-47.05-34.875,54.822,54.822,0,0,1-3.446-11.475A59.032,59.032,0,0,1,16.583,92.9c.03-.479.03-.929.06-1.408l.03-.689.06-.719c.03-.479.09-.959.12-1.438.03-.24.03-.479.06-.719l.09-.689c.12-.929.21-1.858.42-2.786a27.407,27.407,0,0,1,.539-2.726A56.183,56.183,0,0,1,32.106,55.148c.539-.539,1.049-1.109,1.588-1.618L35.313,52c.539-.479,1.109-.959,1.648-1.408.539-.479,1.109-.869,1.648-1.318s1.109-.839,1.648-1.228,1.079-.779,1.648-1.139c.539-.36,1.079-.719,1.618-1.049s1.079-.629,1.618-.959a53.24,53.24,0,0,1,6.2-3.026c.479-.21.959-.419,1.438-.6s.959-.36,1.409-.509a6.275,6.275,0,0,1,.689-.24,5.593,5.593,0,0,1,.659-.21c.45-.15.869-.27,1.289-.389a58.806,58.806,0,0,1,8-1.768c.929-.12,1.648-.21,2.128-.27s.749-.09.749-.09a.288.288,0,0,1,.27.21.212.212,0,0,1-.21.24h0l-.719.09c-.479.06-1.2.15-2.128.3a57.443,57.443,0,0,0-7.882,1.918c-.42.15-.839.27-1.259.419a5.83,5.83,0,0,0-.659.24c-.21.09-.45.18-.659.27-.45.18-.9.36-1.379.539s-.929.419-1.409.6a55.312,55.312,0,0,0-6.024,3.116c-.509.33-1.049.629-1.558.959s-1.049.719-1.588,1.079-1.049.749-1.588,1.139-1.079.779-1.588,1.228-1.079.869-1.588,1.318c-.509.479-1.049.929-1.558,1.408L34.653,54.4c-.509.509-.989,1.079-1.528,1.618A54.7,54.7,0,0,0,18.86,92.929a53.884,53.884,0,0,0,4.675,22.021,55.191,55.191,0,0,0,13.7,18.666,54.051,54.051,0,0,0,20.109,11.205,53.089,53.089,0,0,0,11.118,2.1c.45.03.9.06,1.379.09.45.03.9.06,1.408.06.479,0,.959,0,1.438.03h1.379c.45-.03.929-.03,1.379-.06s.929-.03,1.379-.09c.45-.03.9-.09,1.349-.12a10.321,10.321,0,0,0,1.349-.15,53.1,53.1,0,0,0,33.954-18.186c.24-.27.45-.539.689-.809l.33-.419.33-.419c.42-.569.839-1.109,1.259-1.648.39-.569.779-1.109,1.169-1.678l.3-.419.27-.419c.18-.27.36-.569.509-.839a7.806,7.806,0,0,0,.509-.839c.18-.27.33-.569.48-.839.3-.569.629-1.109.9-1.648.539-1.109,1.109-2.157,1.558-3.236a55.084,55.084,0,0,0,2.248-6.082c.27-.959.539-1.888.749-2.786.18-.9.39-1.738.539-2.577.15-.809.27-1.588.39-2.337.09-.749.18-1.438.24-2.067.09-.659.09-1.228.15-1.738q.045-.809.09-1.438c.03-1.888.03-2.876.03-2.876a3,3,0,0,1,5.994.06A.484.484,0,0,0,132.14,93.588Z" transform="translate(-16.575 -37.8)" fill="#34a853"/>
        </g>
        <path id="Path_1390" data-name="Path 1390" d="M126.3,15.264c1.566-.662,3.1-1.235,4.637-1.716h0s5.179-9.666,15-10.72c0,0-7.438,1.355-13.34,10.208.6-.181,1.2-.331,1.807-.482.361-.09.753-.181,1.114-.271s.723-.181,1.114-.241c.723-.151,1.445-.3,2.168-.422s1.445-.211,2.138-.3c.361-.06.693-.12,1.054-.151l1.024-.09c.331-.03.662-.06,1.024-.09.331-.03.662-.06.994-.06l1.957-.09c.632-.03,1.265,0,1.867,0s1.2,0,1.807.03c1.144.03,2.319.12,3.373.211,1.084.12,2.078.241,3.041.391a53.861,53.861,0,0,1,8.763,2.048c.994.331,1.747.572,2.228.783.512.181.753.271.753.271s-.271-.09-.783-.241-1.265-.361-2.289-.632a55.022,55.022,0,0,0-8.793-1.445c-.964-.09-1.957-.12-3.011-.181-1.054-.03-2.138-.03-3.312,0l-1.747.09c-.6.03-1.2.06-1.837.151-.6.06-1.235.151-1.867.211-.331.03-.632.09-.964.151s-.632.09-.964.151-.662.12-.994.151c-.331.06-.663.151-.994.211-.09.03-.211.03-.3.06,2.138.482,7.739,1.987,11.533,5.33,0,0-5.782-3.523-15.387-4.4-.331.09-.662.181-.994.3-.361.12-.693.211-1.054.331a52.914,52.914,0,0,0-8.522,3.644c-.06.03-.151.09-.211.12,2.5,3.1,10.9,11.473,25.144,5.33,11.714-5.089,12.858-8.221,23.969-6.775C175.383,17.071,139.519-20.118,126.3,15.264Z" transform="translate(-88.567 0.004)" fill="#34a853"/>
        <path id="Path_1391" data-name="Path 1391" d="M5.223,67.943c0-1.054.06-2.078.151-3.071h0s-4.246-5.33-2.439-11.2c0,0-1.054,4.577,2.56,10.118.06-.391.09-.783.151-1.144.03-.241.09-.482.12-.693a5.558,5.558,0,0,1,.12-.693c.09-.452.181-.9.3-1.355s.241-.873.331-1.295l.181-.632a3.542,3.542,0,0,1,.211-.6c.06-.211.12-.391.181-.6a4.78,4.78,0,0,1,.211-.6c.151-.391.3-.753.422-1.144.12-.361.3-.723.452-1.084s.3-.693.452-1.024c.3-.662.632-1.295.964-1.867s.632-1.144.964-1.656a36.171,36.171,0,0,1,3.312-4.517q.632-.723.994-1.084l.361-.361a4.64,4.64,0,0,0-.331.391c-.211.241-.512.632-.9,1.144A32.916,32.916,0,0,0,11,49.635c-.271.512-.542,1.084-.843,1.686-.271.6-.542,1.2-.813,1.9-.12.331-.241.693-.361,1.024-.12.361-.271.693-.361,1.084-.12.361-.211.753-.331,1.114a4.012,4.012,0,0,0-.151.572c-.06.211-.09.391-.151.6s-.09.391-.151.6a4.675,4.675,0,0,0-.12.632c0,.06-.03.12-.03.181A16.952,16.952,0,0,1,13.5,53.76,23.7,23.7,0,0,0,7.24,61.5a4.492,4.492,0,0,0-.06.632c-.03.241-.03.452-.06.693a33.338,33.338,0,0,0,0,5.751v.151c2.379-.662,9.245-3.433,9.184-13.069-.03-7.95-1.566-9.365,1.987-15.357C18.261,40.33-11.761,51.713,5.223,67.943Z" transform="translate(-0.019 -28.164)" fill="#34a853"/>
        <g id="Group_915" data-name="Group 915" transform="translate(5.625 31.501)">
          <path id="Path_1392" data-name="Path 1392" d="M20.085,105.441s-.09.361-.211.964q-.09.452-.181,1.084c-.06.422-.12.9-.151,1.445s-.09,1.114-.09,1.716c-.03.6-.03,1.265-.03,1.927s0,1.355.03,2.048.06,1.415.12,2.108c.03.723.12,1.415.181,2.108s.151,1.385.241,2.048.181,1.295.271,1.9.181,1.174.271,1.686.181.994.271,1.415.151.783.241,1.084c.151.6.241.934.241.934v.03a.745.745,0,1,1-1.445.361v-.03s-.06-.361-.181-.994c-.06-.3-.12-.693-.181-1.144-.06-.422-.151-.933-.211-1.476s-.151-1.114-.211-1.747c-.06-.6-.12-1.265-.181-1.957-.06-.662-.09-1.385-.12-2.078-.03-.723-.06-1.415-.06-2.138V114.6c0-.723.03-1.415.06-2.078s.09-1.325.151-1.957c.06-.6.12-1.2.211-1.747a14.417,14.417,0,0,1,.241-1.445c.09-.422.181-.813.241-1.114.181-.6.271-.933.271-.933a.187.187,0,0,1,.181-.12C20.055,105.26,20.115,105.351,20.085,105.441Z" transform="translate(-18.7 -105.2)" fill="#34a853"/>
        </g>
        <path id="Path_1393" data-name="Path 1393" d="M34.671,168.43c.452-.783.964-1.536,1.445-2.228h0s-.843-5.842,3.1-9.455c0,0-2.8,2.951-2.529,8.7.211-.271.422-.542.632-.783.12-.151.271-.331.391-.482s.271-.3.391-.452c.271-.3.542-.6.813-.873l.813-.813c.151-.12.271-.271.422-.391s.271-.241.422-.361.271-.241.422-.361a5.246,5.246,0,0,1,.422-.361c.271-.211.542-.452.813-.662s.542-.422.813-.6.512-.391.783-.572c.512-.361,1.054-.693,1.536-.994q.768-.452,1.445-.813a26.267,26.267,0,0,1,4.457-1.9c.542-.181.933-.3,1.2-.391a3.932,3.932,0,0,1,.422-.12s-.151.06-.422.151-.662.241-1.174.452a26.439,26.439,0,0,0-4.276,2.2q-.678.406-1.355.9c-.482.331-.933.662-1.445,1.054-.241.181-.482.391-.723.6s-.512.422-.753.632c-.241.241-.482.452-.753.693l-.361.361a4.632,4.632,0,0,0-.361.391l-.391.391c-.12.12-.241.271-.361.391-.03.03-.06.09-.12.12a15.37,15.37,0,0,1,6.715-1.385,21.114,21.114,0,0,0-8.1,3.011c-.12.151-.211.3-.331.452s-.241.331-.361.482a28.41,28.41,0,0,0-2.529,4.306c-.03.03-.03.09-.06.12,2.078.542,8.4,1.506,12.617-5.721,3.463-5.962,2.951-7.679,8.251-10.6C56.592,153.494,29.1,148.827,34.671,168.43Z" transform="translate(-23.715 -107.183)" fill="#34a853"/>
        <g id="Group_916" data-name="Group 916" transform="translate(5.804 55.873)">
          <path id="Path_1394" data-name="Path 1394" d="M29.262,186.776s-.211.241-.6.662c-.181.211-.391.482-.632.783-.241.331-.512.662-.783,1.054s-.572.813-.873,1.295c-.3.452-.6.964-.9,1.476s-.6,1.084-.873,1.626c-.3.572-.572,1.144-.843,1.716s-.512,1.174-.783,1.747c-.241.572-.452,1.174-.662,1.716-.181.572-.391,1.114-.542,1.626-.09.271-.151.512-.241.753l-.181.723a6.773,6.773,0,0,0-.151.662c-.03.211-.09.422-.12.6a6.928,6.928,0,0,0-.151.964c-.06.542-.12.843-.12.843v.06a.758.758,0,0,1-1.506-.181v-.03s.06-.331.181-.9a9.677,9.677,0,0,1,.241-1.024c.06-.211.09-.391.151-.632.06-.211.151-.452.211-.693s.151-.482.241-.753c.09-.241.181-.512.271-.783.181-.542.422-1.084.662-1.656s.512-1.144.783-1.716c.3-.572.572-1.174.9-1.747.3-.572.632-1.144.964-1.686s.662-1.084.994-1.6.662-.994.994-1.445.662-.873.964-1.265.6-.723.843-1.024c.271-.3.512-.542.693-.753.422-.391.632-.6.632-.6.06-.06.151-.06.181,0C29.322,186.625,29.322,186.716,29.262,186.776Z" transform="translate(-19.292 -186.55)" fill="#34a853"/>
        </g>
      </g>
    </g>
  </g>
</svg>
