<svg xmlns="http://www.w3.org/2000/svg" width="202" height="62" viewBox="0 0 202 62">
  <g id="Group_19155" data-name="Group 19155" transform="translate(1 1)">
    <g id="Group_19153" data-name="Group 19153" transform="translate(0)">
      <path id="Path_27823" data-name="Path 27823" d="M161.992-236.14H-23.267a7.457,7.457,0,0,1-7.39-7.485v-45.03a7.457,7.457,0,0,1,7.39-7.485h185.22a7.457,7.457,0,0,1,7.39,7.485v45.03a7.4,7.4,0,0,1-7.351,7.485Z" transform="translate(30.657 296.14)" fill="none" stroke="#fff" stroke-miterlimit="10" stroke-width="2"/>
      <path id="Path_27824" data-name="Path 27824" d="M135.036-266.431a4.065,4.065,0,0,1-1.095,3.01,4.328,4.328,0,0,1-3.284,1.346,4.424,4.424,0,0,1-3.284-1.346,4.568,4.568,0,0,1-1.329-3.366,4.568,4.568,0,0,1,1.329-3.366,4.424,4.424,0,0,1,3.284-1.347,4.271,4.271,0,0,1,1.838.4,3.775,3.775,0,0,1,1.408.99l-.782.792a2.986,2.986,0,0,0-2.424-1.069,3.281,3.281,0,0,0-2.424.99,3.576,3.576,0,0,0-1.017,2.614,3.575,3.575,0,0,0,1.017,2.614,3.281,3.281,0,0,0,2.424.99,3.4,3.4,0,0,0,2.5-.99,2.874,2.874,0,0,0,.743-1.822H130.7v-1.069H135c0,.2.039.436.039.634Zm6.843-3.762h-4.066v2.852h3.636v1.069h-3.636v2.852h4.066v1.109h-5.2v-8.99h5.2Zm4.809,7.921h-1.134v-7.921h-2.5V-271.3h6.1v1.109h-2.5l.039,7.921Zm6.882,0v-9.03H154.7v8.99Zm6.217,0h-1.134v-7.921h-2.5V-271.3h6.1v1.109h-2.5l.039,7.921Zm14.076-1.188a4.278,4.278,0,0,1-3.245,1.347,4.278,4.278,0,0,1-3.245-1.347,4.667,4.667,0,0,1-1.29-3.327,4.667,4.667,0,0,1,1.29-3.327,4.278,4.278,0,0,1,3.245-1.346,4.312,4.312,0,0,1,3.245,1.386,4.7,4.7,0,0,1,1.329,3.327A4.851,4.851,0,0,1,173.863-263.46Zm-5.709-.752a3.256,3.256,0,0,0,2.424,1.03,3.256,3.256,0,0,0,2.424-1.03,3.517,3.517,0,0,0,.978-2.574,3.517,3.517,0,0,0-.978-2.574,3.255,3.255,0,0,0-2.424-1.03,3.255,3.255,0,0,0-2.424,1.03,3.517,3.517,0,0,0-.978,2.574A3.683,3.683,0,0,0,168.154-264.213Zm8.6,1.941v-9.03h1.408l4.34,7.01h.039l-.039-1.743V-271.3h1.134v8.99h-1.173l-4.575-7.327h-.039l.039,1.743v5.624Z" transform="translate(-64.772 281.258)" fill="#fff" stroke="#fff" stroke-miterlimit="10" stroke-width="0.2"/>
      <path id="Path_27825" data-name="Path 27825" d="M165-225.85a6.266,6.266,0,0,0-6.334,6.376A6.266,6.266,0,0,0,165-213.1a6.266,6.266,0,0,0,6.334-6.376A6.266,6.266,0,0,0,165-225.85Zm0,10.257a3.666,3.666,0,0,1-3.558-3.881A3.666,3.666,0,0,1,165-223.355a3.666,3.666,0,0,1,3.558,3.881A3.666,3.666,0,0,1,165-215.593ZM151.2-225.85a6.266,6.266,0,0,0-6.334,6.376A6.266,6.266,0,0,0,151.2-213.1a6.266,6.266,0,0,0,6.334-6.376A6.266,6.266,0,0,0,151.2-225.85Zm0,10.257a3.666,3.666,0,0,1-3.558-3.881,3.666,3.666,0,0,1,3.558-3.881,3.666,3.666,0,0,1,3.558,3.881A3.666,3.666,0,0,1,151.2-215.593Zm-16.422-8.277v2.693h6.412a5.818,5.818,0,0,1-1.447,3.406,6.479,6.479,0,0,1-4.927,1.98,7.041,7.041,0,0,1-7-7.208,7.065,7.065,0,0,1,7-7.208,6.662,6.662,0,0,1,4.809,1.941l1.877-1.9a9.28,9.28,0,0,0-6.725-2.733,9.976,9.976,0,0,0-9.932,9.9,9.976,9.976,0,0,0,9.932,9.9,8.92,8.92,0,0,0,6.843-2.772,9.049,9.049,0,0,0,2.307-6.337,7.418,7.418,0,0,0-.156-1.7l-8.993.04Zm67.136,2.1a5.852,5.852,0,0,0-5.4-4.079,6.022,6.022,0,0,0-5.943,6.376,6.2,6.2,0,0,0,6.256,6.376,6.194,6.194,0,0,0,5.239-2.812l-2.151-1.465a3.556,3.556,0,0,1-3.089,1.782,3.146,3.146,0,0,1-3.05-1.941l8.446-3.525Zm-8.563,2.139a3.478,3.478,0,0,1,3.284-3.723,2.456,2.456,0,0,1,2.346,1.347Zm-6.882,6.178h2.776v-18.772h-2.776Zm-4.536-10.97h-.078a4.318,4.318,0,0,0-3.324-1.426,6.293,6.293,0,0,0-6.022,6.416,6.31,6.31,0,0,0,6.022,6.376,4.27,4.27,0,0,0,3.324-1.465h.078v.911c0,2.455-1.29,3.762-3.363,3.762a3.5,3.5,0,0,1-3.167-2.257l-2.424,1.03a6.014,6.014,0,0,0,5.591,3.762c3.245,0,5.982-1.941,5.982-6.653v-11.446h-2.62Zm-3.167,8.832a3.649,3.649,0,0,1-3.519-3.842,3.66,3.66,0,0,1,3.519-3.881,3.591,3.591,0,0,1,3.363,3.881A3.554,3.554,0,0,1,178.763-215.593Zm36.129-16.634h-6.608v18.772h2.776v-7.089h3.871a5.9,5.9,0,0,0,6.061-5.822A5.969,5.969,0,0,0,214.892-232.227Zm.078,9.069h-3.949v-6.416h3.949a3.236,3.236,0,0,1,3.245,3.208A3.26,3.26,0,0,1,214.97-223.157Zm17.087-2.693a5.2,5.2,0,0,0-4.927,2.891l2.463,1.03a2.614,2.614,0,0,1,2.542-1.386,2.637,2.637,0,0,1,2.893,2.416v.2a6.236,6.236,0,0,0-2.893-.713c-2.659,0-5.357,1.465-5.357,4.238,0,2.5,2.151,4.119,4.614,4.119a3.824,3.824,0,0,0,3.519-1.822h.078v1.465h2.659v-7.208C237.687-224.029,235.224-225.85,232.057-225.85Zm-.352,10.257c-.9,0-2.151-.475-2.151-1.584,0-1.465,1.564-2.02,2.933-2.02a5.011,5.011,0,0,1,2.542.634A3.408,3.408,0,0,1,231.705-215.593Zm15.679-9.861-3.167,8.119h-.078l-3.284-8.119h-2.972l4.927,11.366-2.815,6.337h2.893l7.586-17.7Zm-24.868,12h2.776v-18.772h-2.776Z" transform="translate(-64.042 257.945)" fill="#fff"/>
      <g id="Group_19152" data-name="Group 19152" transform="translate(13.747 11.9)">
        <path id="Path_27826" data-name="Path 27826" d="M4.613-263.351a2.913,2.913,0,0,0-.111.827v33.188a3.021,3.021,0,0,0,.11.829l17.2-17.422Z" transform="translate(-4.502 264.437)" fill="#fff"/>
        <path id="Path_27827" data-name="Path 27827" d="M4.5-229.336v-33.188a2.913,2.913,0,0,1,.111-.827l17.2,17.421-17.2,17.422A3.021,3.021,0,0,1,4.5-229.336Z" transform="translate(-4.502 264.437)" fill="#fff"/>
        <path id="Path_27828" data-name="Path 27828" d="M66.413-229.114h0l-6.719-3.863-5.354,5.356,5.315,5.384,6.753-3.936c.75-.43,1.162-.952,1.162-1.471S67.16-228.686,66.413-229.114Z" transform="translate(-34.853 246.092)" fill="#fff"/>
        <path id="Path_27829" data-name="Path 27829" d="M66.408-226.173l-6.753,3.936-5.315-5.384,5.354-5.356,6.719,3.863h0c.746.428,1.157.95,1.157,1.469S67.159-226.6,66.408-226.173Z" transform="translate(-34.853 246.092)" fill="#fff"/>
        <path id="Path_27830" data-name="Path 27830" d="M8.259-198.834a2.715,2.715,0,0,0,1.191-.4l20.587-11.841-4.813-4.906Z" transform="translate(-6.79 235.827)" fill="#fff"/>
        <path id="Path_27831" data-name="Path 27831" d="M30.059-253.834,9.439-265.709a2.747,2.747,0,0,0-1.139-.384l16.931,17.149Z" transform="translate(-6.815 266.093)" fill="#fff"/>
        <path id="Path_27832" data-name="Path 27832" d="M9.439-265.709l20.62,11.875-4.828,4.89L8.3-266.093A2.747,2.747,0,0,1,9.439-265.709Z" transform="translate(-6.815 266.093)" fill="#fff"/>
      </g>
    </g>
  </g>
</svg>
