<svg xmlns="http://www.w3.org/2000/svg" xmlns:xlink="http://www.w3.org/1999/xlink" width="240" height="180" viewBox="0 0 240 180">
  <defs>
    <clipPath id="clip-path">
      <rect id="Rectangle_9007" data-name="Rectangle 9007" width="240" height="180" transform="translate(1078 1269)" fill="#fff"/>
    </clipPath>
    <clipPath id="clip-path-2">
      <circle id="Ellipse_478" data-name="Ellipse 478" cx="36.062" cy="36.062" r="36.062" fill="#18c3fc"/>
    </clipPath>
    <clipPath id="clip-path-3">
      <path id="Path_675" data-name="Path 675" d="M237.292,49.492a19.027,19.027,0,0,0,2.64-9.782,19.41,19.41,0,0,0-38.819,0,19.809,19.809,0,0,0,2.64,9.782,24.844,24.844,0,1,0,41.536,18.4A24.013,24.013,0,0,0,237.292,49.492Z" transform="translate(-195.6 -20.3)"/>
    </clipPath>
  </defs>
  <g id="Loi_ich_3" data-name="Loi ich 3" transform="translate(-1078 -1269)" clip-path="url(#clip-path)">
    <g id="Group_14500" data-name="Group 14500" transform="translate(72.001 -116)">
      <path id="Path_3383" data-name="Path 3383" d="M64.5,0C100.125,0,129,28.688,129,64.076s-28.878,64.076-64.5,64.076S0,99.465,0,64.076,28.878,0,64.5,0Z" transform="translate(1061.49 1411)" fill="none" stroke="#34a853" stroke-width="1.018" stroke-dasharray="6.906"/>
      <path id="Path_1682" data-name="Path 1682" d="M35.807,0A36.323,36.323,0,0,1,71.915,36.108,35.6,35.6,0,0,1,36.108,71.915,36.323,36.323,0,0,1,0,35.807,35.6,35.6,0,0,1,35.807,0Z" transform="translate(1030.999 1437.629)" fill="#0877bb"/>
      <g id="Group_958" data-name="Group 958" transform="translate(1044.953 1446.258)">
        <g id="woman_3_" transform="translate(3.352 0)">
          <path id="Path_636" data-name="Path 636" d="M39.121,65.982c0,.082,0,.165-.083.165-.166.659-.332,1.236-.5,1.813a8.62,8.62,0,0,1-1.08,2.308,5.348,5.348,0,0,1-.665.742,3.211,3.211,0,0,1-1.828.577h-11.3a3.492,3.492,0,0,1-1.912-.577,2.228,2.228,0,0,1-.582-.659,10.044,10.044,0,0,1-1.08-2.308c-.166-.577-.332-1.154-.5-1.813,0-.082,0-.082-.083-.165-1.745-7.747-1.247-21.429,2.743-25.55A9.112,9.112,0,0,1,29.313,37.3,8.894,8.894,0,0,1,35.3,39.443a12.743,12.743,0,0,1,1.08.989c.166.165.249.33.416.495C40.45,45.46,40.866,58.482,39.121,65.982Z" transform="translate(-11.056 -36.853)" fill="#4f3c30"/>
          <g id="Group_255" data-name="Group 255" transform="translate(14.102 24.101)">
            <path id="Path_637" data-name="Path 637" d="M34.229,69.956V66H28v3.956l-1.5.082,1.5,9.89h6.233l1.5-9.89Z" transform="translate(-26.5 -66)" fill="#f6ccb8"/>
            <path id="Path_638" data-name="Path 638" d="M28.3,66.1v1.4l6.233,2.473V66.1Z" transform="translate(-26.804 -66.018)" fill="#f6ccb8"/>
          </g>
          <g id="Group_257" data-name="Group 257" transform="translate(0 27.81)">
            <path id="Path_639" data-name="Path 639" d="M46.574,85.83c-1.745-4.039-6.233-11.786-7.563-13.1-2.244-2.06-4.737-2.06-7.065-2.225v.082l-3.74,9.808-3.574-9.726v-.082c-2.327.165-4.9.082-7.065,2.225-1.33,1.319-5.818,9.066-7.563,13.1a5.565,5.565,0,0,0,.332,5.11l4.571,9.4H27.375l1-3.709,1,3.709H41.836l4.571-9.4A6.635,6.635,0,0,0,46.574,85.83Z" transform="translate(-9.533 -70.5)" fill="#43414d"/>
            <g id="Group_256" data-name="Group 256" transform="translate(11.608)">
              <path id="Path_640" data-name="Path 640" d="M23.5,72.973l3.324,1.236-1.33,1.9,5.07,4.2L26.991,70.5Z" transform="translate(-23.5 -70.5)" fill="#fff"/>
              <path id="Path_641" data-name="Path 641" d="M39.148,72.973,35.657,70.5,32,80.308l5.153-4.2-1.33-1.9Z" transform="translate(-24.935 -70.5)" fill="#fff"/>
            </g>
          </g>
          <g id="Group_263" data-name="Group 263" transform="translate(8.426)">
            <g id="Group_261" data-name="Group 261" transform="translate(1.769 2.59)">
              <path id="Path_642" data-name="Path 642" d="M37.508,50.879V47.665C37.508,44.286,33.6,40,30.444,40s-7.065,4.286-7.065,7.665v3.214A1.572,1.572,0,0,0,21.8,52.445v1.566a1.571,1.571,0,0,0,1.579,1.566c0,3.379,3.906,7.747,7.065,7.747s7.065-4.368,7.065-7.747a1.572,1.572,0,0,0,1.579-1.566V52.363A1.5,1.5,0,0,0,37.508,50.879Z" transform="translate(-21.8 -39.918)" fill="#f6ccb8"/>
              <path id="Path_643" data-name="Path 643" d="M31.879,57.62v5.687c3.158,0,7.065-4.368,7.065-7.747a1.572,1.572,0,0,0,1.579-1.566V52.345a1.571,1.571,0,0,0-1.579-1.566V47.565c0-3.379-3.906-7.665-7.065-7.665V52.263A20.215,20.215,0,0,0,30.3,57.126Z" transform="translate(-23.235 -39.9)" fill="#f6ccb8" opacity="0.8"/>
              <g id="Group_260" data-name="Group 260" transform="translate(2.161 10.772)">
                <g id="Group_258" data-name="Group 258">
                  <ellipse id="Ellipse_29" data-name="Ellipse 29" cx="1.247" cy="1.237" rx="1.247" ry="1.237" transform="translate(1.203 1.057) rotate(-2.001)" fill="#f6ccb8"/>
                  <ellipse id="Ellipse_30" data-name="Ellipse 30" cx="1.247" cy="1.237" rx="1.247" ry="1.237" transform="translate(1.205 0.81) rotate(-2.001)" fill="#3c2417"/>
                  <ellipse id="Ellipse_31" data-name="Ellipse 31" cx="0.333" cy="0.33" rx="0.333" ry="0.33" transform="translate(2.565 1.272) rotate(-2.001)" fill="#fff"/>
                  <path id="Path_644" data-name="Path 644" d="M28.306,53.984a1.976,1.976,0,0,0-1.413-.989,1.791,1.791,0,0,0-1.745.824h-.083a.307.307,0,0,1-.249-.082,1.549,1.549,0,0,1-.332-.247H24.4v.082a.254.254,0,0,0,.083.165c.083.082.083.165.166.247s.166.165.249.165.083,0,.083.082h.083c.083,0,.166,0,.166-.082a1.9,1.9,0,0,1,1.579-.824,1.554,1.554,0,0,1,1.164.824c0,.082.166.082.166.082C28.306,54.149,28.389,54.066,28.306,53.984Z" transform="translate(-24.4 -52.969)" fill="#3c2417"/>
                </g>
                <g id="Group_259" data-name="Group 259" transform="translate(8.694)">
                  <ellipse id="Ellipse_32" data-name="Ellipse 32" cx="1.247" cy="1.237" rx="1.247" ry="1.237" transform="translate(0.155 1.06) rotate(-2.001)" fill="#f6ccb8"/>
                  <ellipse id="Ellipse_33" data-name="Ellipse 33" cx="1.247" cy="1.237" rx="1.247" ry="1.237" transform="translate(0.157 0.812) rotate(-2.001)" fill="#3c2417"/>
                  <ellipse id="Ellipse_34" data-name="Ellipse 34" cx="0.333" cy="0.33" rx="0.333" ry="0.33" transform="translate(1.517 1.275) rotate(-2.001)" fill="#fff"/>
                  <path id="Path_645" data-name="Path 645" d="M34.893,53.984a1.976,1.976,0,0,1,1.413-.989,1.791,1.791,0,0,1,1.745.824h.083a.307.307,0,0,0,.249-.082,1.549,1.549,0,0,0,.332-.247H38.8v.082a.254.254,0,0,1-.083.165c-.083.082-.083.165-.166.247s-.166.165-.249.165-.083,0-.083.082h-.083c-.083,0-.166,0-.166-.082a1.9,1.9,0,0,0-1.579-.824,1.554,1.554,0,0,0-1.164.824c0,.082-.166.082-.166.082C34.893,54.149,34.81,54.066,34.893,53.984Z" transform="translate(-34.861 -52.969)" fill="#3c2417"/>
                </g>
              </g>
            </g>
            <g id="Group_262" data-name="Group 262" transform="translate(7.753 21.299)">
              <path id="Path_646" data-name="Path 646" d="M33.987,62.6a2.282,2.282,0,0,1-2.493,2.143A2.39,2.39,0,0,1,29,62.6Z" transform="translate(-29 -62.6)" fill="#f05d44"/>
              <path id="Path_647" data-name="Path 647" d="M33.257,63.442H29.932a.356.356,0,0,1-.332-.33V62.7h4.073v.412A.379.379,0,0,1,33.257,63.442Z" transform="translate(-29.101 -62.618)" fill="#fff"/>
            </g>
            <path id="Path_648" data-name="Path 648" d="M38.724,52.212h-1.08A5.5,5.5,0,0,0,34.9,51.8c-1.745,0-2.909.33-3.408.989a2.1,2.1,0,0,0-.831-.165,1.376,1.376,0,0,0-.831.165c-.582-.659-1.745-.989-3.408-.989a5.5,5.5,0,0,0-2.743.412H22.6v1.154l.5.247c0,1.813.914,3.874,3.408,3.874,2.078,0,3.324-1.071,3.74-3.3,0-.165.083-.33.083-.494,0-.082.166-.247.416-.247s.416.082.416.247a1.037,1.037,0,0,0,.083.494,3.619,3.619,0,0,0,3.74,3.3c2.493,0,3.408-2.06,3.408-3.874l.5-.247V52.212Zm-9.059,1.9c-.416,1.9-1.5,2.8-3.241,2.8-2.743,0-2.826-2.8-2.826-3.379,0-.907,1.995-.989,2.826-.989C28.335,52.624,29.831,53.284,29.665,54.108ZM34.9,56.992c-1.745,0-2.826-.907-3.241-2.8-.166-.824,1.247-1.484,3.241-1.484.914,0,2.826.082,2.826.989C37.726,54.108,37.56,56.992,34.9,56.992Z" transform="translate(-20.166 -39.402)" fill="#383643"/>
            <path id="Path_649" data-name="Path 649" d="M22.687,61.766c-2.244-7.335-3.823-11.951-2.576-16.9,2.327-9.643,14.3-10.22,15.459-4.2.249,1.319,2.909,3.3,1.5,9.643-.083,0-.332-.247-.665-.659a30.459,30.459,0,0,1-3.324-5.522C22.687,44.045,26.178,59.458,22.687,61.766Z" transform="translate(-19.671 -36.758)" fill="#4f3c30"/>
          </g>
        </g>
        <path id="desk_2_" d="M46.89,107.2H8.243a2.72,2.72,0,1,0,0,5.44h38.73a2.721,2.721,0,1,0-.083-5.44Z" transform="translate(-5.5 -49.142)" fill="#494c5d"/>
        <g id="computer_2_" transform="translate(6.649 34.651)">
          <path id="Path_650" data-name="Path 650" d="M43.67,107.119h-29.5a.653.653,0,0,1-.665-.659.712.712,0,0,1,.665-.659H43.587a.653.653,0,0,1,.665.659A.639.639,0,0,1,43.67,107.119Z" transform="translate(-13.5 -83.547)" fill="#adadae"/>
          <path id="Path_651" data-name="Path 651" d="M42.506,101.053H15.328A1.837,1.837,0,0,1,13.5,99.24V80.613A1.837,1.837,0,0,1,15.328,78.8H42.506a1.837,1.837,0,0,1,1.828,1.813V99.158A1.855,1.855,0,0,1,42.506,101.053Z" transform="translate(-13.5 -78.8)" fill="#e1e7ee"/>
          <path id="Path_652" data-name="Path 652" d="M37.353,78.8H14.747A1.219,1.219,0,0,0,13.5,80.036V99.652a1.219,1.219,0,0,0,1.247,1.236h4.4A25.559,25.559,0,0,1,37.353,78.8Z" transform="translate(-13.5 -78.8)" fill="#fff" opacity="0.2"/>
        </g>
      </g>
      <g id="Group_1803" data-name="Group 1803" transform="translate(239.361 1085.821)">
        <g id="Group_1396" data-name="Group 1396" transform="translate(908.891 351.745)">
          <path id="Path_3293" data-name="Path 3293" d="M36.062,0A36.062,36.062,0,1,1,0,36.062,36.062,36.062,0,0,1,36.062,0Z" transform="translate(0 0)" fill="#34a853"/>
        </g>
        <g id="Mask_Group_10" data-name="Mask Group 10" transform="translate(908.985 351.964)" clip-path="url(#clip-path-2)">
          <g id="Group_1419" data-name="Group 1419" transform="translate(10.605 -1.043)">
            <g id="Group_1403" data-name="Group 1403">
              <g id="man_2_" clip-path="url(#clip-path-3)">
                <g id="man_3_" transform="translate(5.648 10.748)">
                  <g id="Group_267" data-name="Group 267" transform="translate(14.848 20.696)">
                    <path id="Path_657" data-name="Path 657" d="M231.006,64.992,230,64.527V60.8h-6.987v3.727L222,64.992l.233,9.7h.776v1.475H230V74.7h.776Z" transform="translate(-222 -60.8)" fill="#f6ccb8"/>
                    <path id="Path_658" data-name="Path 658" d="M223.3,60.8v3.106l6.987.388V60.8Z" transform="translate(-222.291 -60.8)" fill="#f6ccb8"/>
                  </g>
                  <g id="Group_273" data-name="Group 273" transform="translate(0 24.811)">
                    <g id="Group_272" data-name="Group 272" transform="translate(0 0)">
                      <g id="Group_268" data-name="Group 268" transform="translate(10.643 0.078)">
                        <path id="Path_659" data-name="Path 659" d="M229.95,66.278l-.233.932a4.519,4.519,0,0,1-4.27,3.338c-3.028,0-4.192-2.64-4.581-3.8l-.155-.543c-5.59,2.1-3.882,19.72-3.882,19.72v14.6h17.624l-.233-14.6C234.142,86,235.54,68.374,229.95,66.278Z" transform="translate(-216.583 -66.2)" fill="#fff"/>
                      </g>
                      <path id="Path_664" data-name="Path 664" d="M241.17,86.6a7.776,7.776,0,0,0,0-4.969c-1.087-3.106-3.106-9.7-3.649-10.947-1.242-2.795-5.357-2.64-10.481-4.425a1.44,1.44,0,0,0-.543-.155h0c-.311,1.786-4.27,18.711-4.27,18.711s-3.96-16.925-4.27-18.711h0a1.439,1.439,0,0,1-.543.155c-5.124,1.786-9.161,1.63-10.481,4.425-.543,1.242-2.562,7.841-3.649,10.947a7.776,7.776,0,0,0,0,4.969,55.88,55.88,0,0,0,4.581,9.938,3.377,3.377,0,0,0,3.727,1.475c-.155.776-.233,1.32-.078,1.32h10.636v0h10.636c.155,0,.078-.543-.078-1.32a3.377,3.377,0,0,0,3.727-1.475A45.97,45.97,0,0,0,241.17,86.6Z" transform="translate(-202.875 -66.1)" fill="#0163a1"/>
                    </g>
                  </g>
                  <g id="man_4_" transform="translate(10.656)">
                    <g id="Group_277" data-name="Group 277" transform="translate(0 0.587)">
                      <path id="Path_667" data-name="Path 667" d="M232.826,45.148l.233-3.028c0-3.96-3.8-7.22-7.764-7.22s-7.764,3.261-7.764,7.22l.233,3.028a2.325,2.325,0,0,0-.621.311,1.358,1.358,0,0,0-.543,1.087v1.475A1.514,1.514,0,0,0,218,49.5c0,3.727,4.5,7.3,7.22,7.3s7.22-3.571,7.22-7.3a1.411,1.411,0,0,0,1.4-1.475V46.546A1.338,1.338,0,0,0,232.826,45.148Z" transform="translate(-216.6 -34.9)" fill="#f6ccb8"/>
                      <path id="Path_668" data-name="Path 668" d="M234.839,45.148l.233-3.028c0-3.96-3.8-7.22-7.764-7.22V45.148a26.855,26.855,0,0,0-1.708,5.512h1.708v6.211c2.717,0,7.22-3.571,7.22-7.3a1.411,1.411,0,0,0,1.4-1.475V46.623A1.514,1.514,0,0,0,234.839,45.148Z" transform="translate(-218.613 -34.9)" fill="#f6ccb8" opacity="0.8"/>
                      <g id="Group_276" data-name="Group 276" transform="translate(4.231 10.441)">
                        <g id="Group_274" data-name="Group 274" transform="translate(0 0)">
                          <ellipse id="Ellipse_36" data-name="Ellipse 36" cx="1.165" cy="1.165" rx="1.165" ry="1.165" transform="matrix(0.999, -0.035, 0.035, 0.999, 0.001, 0.392)" fill="#f7cdb9"/>
                          <ellipse id="Ellipse_37" data-name="Ellipse 37" cx="1.165" cy="1.165" rx="1.165" ry="1.165" transform="matrix(0.999, -0.035, 0.035, 0.999, 0, 0.081)" fill="#3c2415"/>
                          <ellipse id="Ellipse_38" data-name="Ellipse 38" cx="0.311" cy="0.311" rx="0.311" ry="0.311" transform="translate(1.273 1.448) rotate(-2.001)" fill="#fff"/>
                        </g>
                        <g id="Group_275" data-name="Group 275" transform="translate(6.599 0.001)">
                          <ellipse id="Ellipse_39" data-name="Ellipse 39" cx="1.165" cy="1.165" rx="1.165" ry="1.165" transform="matrix(0.999, -0.035, 0.035, 0.999, 0.001, 0.392)" fill="#f7cdb9"/>
                          <ellipse id="Ellipse_40" data-name="Ellipse 40" cx="1.165" cy="1.165" rx="1.165" ry="1.165" transform="matrix(0.999, -0.035, 0.035, 0.999, 0, 0.081)" fill="#3c2415"/>
                          <ellipse id="Ellipse_41" data-name="Ellipse 41" cx="0.311" cy="0.311" rx="0.311" ry="0.311" transform="translate(1.273 1.448) rotate(-2.001)" fill="#fff"/>
                        </g>
                      </g>
                    </g>
                    <path id="Path_670" data-name="Path 670" d="M225.358,57.7h3.8c.155,0,.155.155.078.233a3.343,3.343,0,0,1-3.882,0C225.125,57.855,225.2,57.7,225.358,57.7Z" transform="translate(-218.525 -39.411)" fill="#f6ccb8"/>
                    <path id="Path_2581" data-name="Path 2581" d="M4.726,10.849C4.834,8.912,4.834,5.4,6.556,5.4A33.076,33.076,0,0,1,17.641,3.28c1.363,0,1.686,3.874,1.722,6.385.036,2.188-.395,3.193-.215,3.264s.933-1.184.933-4.269a10.513,10.513,0,0,0-1.256-5.6A5.954,5.954,0,0,0,17.246.876C15.166-.523,10.717-.2,8.35.59c-6.672,2.188-4.3,12.34-4.09,12.3C4.511,12.858,4.726,11.136,4.726,10.849Z" transform="translate(-3.29 0.088)" fill-rule="evenodd"/>
                    <path id="Path_2582" data-name="Path 2582" d="M13.229,6.1a38.586,38.586,0,0,1,4.879,1.076c-3.013,3.013-7.928,5.022-12.2,4.233,0,0,1.937-1.256,1.794-1.112a7.551,7.551,0,0,1-2.368.43c-.574-.072-.538-.287-.538-.287C8.1,7.354,7.992,7.39,13.229,6.1Z" transform="translate(-4.008 -3.879)" fill-rule="evenodd"/>
                    <path id="Path_671" data-name="Path 671" d="M233.249,47.188H231.7a4.927,4.927,0,0,0-2.174-.388q-2.446,0-3.261.932a2.057,2.057,0,0,0-2.174,0q-.815-.932-3.261-.932a5.447,5.447,0,0,0-2.174.388H217.1v1.087l.543.155a1.71,1.71,0,0,0-.078.621c0,1.708.543,2.64,3.261,2.64,2.329,0,3.261-.7,3.649-2.64a1.077,1.077,0,0,0,0-.7,1.65,1.65,0,0,1,1.4,0v.7c.388,1.941,1.32,2.64,3.649,2.64,2.717,0,3.261-1.009,3.261-2.64a1.709,1.709,0,0,0-.078-.621l.543-.155Zm-9.394,1.863c-.388,1.708-1.009,2.174-3.106,2.174-2.484,0-2.717-.854-2.717-2.1,0-.466,0-1.786,2.717-1.786,1.863,0,2.562.388,2.873.776C223.932,48.353,223.932,48.663,223.854,49.051Zm5.668,2.174c-2.1,0-2.717-.466-3.105-2.174a1.2,1.2,0,0,1,.155-.932c.311-.388,1.009-.776,2.873-.776,2.717,0,2.717,1.32,2.717,1.786C232.239,50.371,232.007,51.225,229.522,51.225Z" transform="translate(-216.712 -36.974)" fill="#43414d"/>
                  </g>
                </g>
              </g>
              <g id="Group_1402" data-name="Group 1402" transform="translate(22.402 28.255)">
                <path id="Path_2564" data-name="Path 2564" d="M33.929,62.6a2.263,2.263,0,0,1-2.465,2.136A2.369,2.369,0,0,1,29,62.6Z" transform="translate(-29 -62.6)" fill="#f05d44"/>
                <path id="Path_2565" data-name="Path 2565" d="M33.215,63.439H29.929a.353.353,0,0,1-.329-.329V62.7h4.026v.411A.376.376,0,0,1,33.215,63.439Z" transform="translate(-29.107 -62.618)" fill="#fff"/>
              </g>
            </g>
          </g>
          <g id="computer_1_" transform="translate(20.365 44.365)">
            <path id="Path_672" data-name="Path 672" d="M239.563,107.026H209.969a.657.657,0,0,1-.669-.663.716.716,0,0,1,.669-.663h29.594a.663.663,0,1,1,0,1.326Z" transform="translate(-209.216 -83.316)" fill="#adadae"/>
            <path id="Path_673" data-name="Path 673" d="M238.376,101.084H211.039A1.848,1.848,0,0,1,209.2,99.26V80.524a1.848,1.848,0,0,1,1.839-1.824h27.337a1.848,1.848,0,0,1,1.839,1.824V99.177A1.816,1.816,0,0,1,238.376,101.084Z" transform="translate(-209.2 -78.7)" fill="#e1e7ee"/>
            <path id="Path_674" data-name="Path 674" d="M233.21,78.7H210.554a1.226,1.226,0,0,0-1.254,1.244V99.674a1.226,1.226,0,0,0,1.254,1.244h4.431A25.623,25.623,0,0,1,233.21,78.7Z" transform="translate(-209.216 -78.7)" fill="#fff" opacity="0.2"/>
          </g>
        </g>
      </g>
      <g id="Group_288" data-name="Group 288" transform="translate(1126.978 1456.205)">
        <g id="Group_287" data-name="Group 287" transform="translate(0)">
          <g id="Group_286" data-name="Group 286">
            <path id="Path_676" data-name="Path 676" d="M162.434,19.385a2.12,2.12,0,0,1-1.709-2.486l1.01-5.515-15.846-2.8A2.12,2.12,0,0,0,143.4,10.3L138.588,37.25a2.12,2.12,0,0,0,1.709,2.486l21.36,3.806a2.12,2.12,0,0,0,2.486-1.709l3.806-21.438Z" transform="translate(-138.547 -8.547)" fill="#fff" stroke="#707070" stroke-width="0.5"/>
            <path id="Path_677" data-name="Path 677" d="M168.029,12.3l-1.04,5.678a2.183,2.183,0,0,0,1.759,2.559l5.678,1.04Z" transform="translate(-144.887 -9.651)" fill="#707070"/>
            <path id="Path_678" data-name="Path 678" d="M167.478,21.278a.076.076,0,0,0-.078-.078h0Z" transform="translate(-144.988 -11.372)" fill="#ced4df"/>
            <path id="Path_679" data-name="Path 679" d="M167.478,21.278a.076.076,0,0,0-.078-.078h0Z" transform="translate(-144.988 -11.372)" fill="#ced4df"/>
            <path id="Path_680" data-name="Path 680" d="M158.814,22.636,148.1,20.694c-.466-.078-.932.078-1.01.388l-.388,2.175c-.078.311.311.544.777.7L158.193,25.9c.466.078.932-.078,1.01-.388l.388-2.175C159.669,23.025,159.358,22.714,158.814,22.636Z" transform="translate(-140.364 -11.254)" fill="#0877bb"/>
            <path id="Path_682" data-name="Path 682" d="M167.5,21.3Z" transform="translate(-145.011 -11.394)" fill="#e5e8ec"/>
            <g id="Group_285" data-name="Group 285" transform="translate(3.614 14.799)">
              <g id="Group_279" data-name="Group 279" transform="translate(1.631)">
                <rect id="Rectangle_63" data-name="Rectangle 63" width="3.107" height="18.953" transform="translate(0.177 3.313) rotate(-79.869)" fill="#e5e8ec"/>
                <path id="Path_683" data-name="Path 683" d="M164.1,34.435,145.455,31.1c-.078,0-.155-.155-.155-.233l.544-3.107c0-.078.155-.155.233-.155l18.642,3.34c.078,0,.155.155.155.233l-.544,3.107C164.33,34.435,164.252,34.513,164.1,34.435Zm-18.331-3.728,18.253,3.262.466-2.641-18.253-3.262Z" transform="translate(-145.3 -27.6)" fill="#ced4df"/>
              </g>
              <g id="Group_280" data-name="Group 280" transform="translate(1.087 3.107)">
                <rect id="Rectangle_64" data-name="Rectangle 64" width="3.107" height="18.953" transform="translate(0.183 3.293) rotate(-79.869)" fill="#fff"/>
                <path id="Path_684" data-name="Path 684" d="M163.4,38.435,144.755,35.1c-.078,0-.155-.155-.155-.233l.544-3.107c0-.078.155-.155.233-.155l18.642,3.34c.078,0,.155.155.155.233l-.544,3.107C163.63,38.358,163.552,38.435,163.4,38.435Zm-18.331-3.728,18.253,3.262.466-2.641-18.253-3.262Z" transform="translate(-144.6 -31.6)" fill="#ced4df"/>
              </g>
              <g id="Group_281" data-name="Group 281" transform="translate(0.544 6.214)">
                <rect id="Rectangle_65" data-name="Rectangle 65" width="3.107" height="18.953" transform="translate(0.189 3.272) rotate(-79.869)" fill="#fff"/>
                <path id="Path_685" data-name="Path 685" d="M162.7,42.435,144.055,39.1c-.078,0-.155-.155-.155-.233l.544-3.107c0-.078.155-.155.233-.155l18.642,3.34c.078,0,.155.155.155.233l-.544,3.107C162.93,42.358,162.852,42.435,162.7,42.435Zm-18.331-3.728,18.253,3.262.466-2.641-18.253-3.262Z" transform="translate(-143.9 -35.6)" fill="#ced4df"/>
              </g>
              <g id="Group_282" data-name="Group 282" transform="translate(0 9.321)">
                <rect id="Rectangle_66" data-name="Rectangle 66" width="3.107" height="18.953" transform="translate(0.195 3.252) rotate(-79.869)" fill="#fff"/>
                <path id="Path_686" data-name="Path 686" d="M162,46.435,143.355,43.1c-.078,0-.155-.155-.155-.233l.544-3.107c0-.078.155-.155.233-.155l18.642,3.34c.078,0,.155.155.155.233l-.544,3.107C162.23,46.358,162.075,46.435,162,46.435Zm-18.409-3.728,18.253,3.262.466-2.641-18.253-3.262Z" transform="translate(-143.2 -39.6)" fill="#ced4df"/>
              </g>
              <g id="Group_283" data-name="Group 283" transform="translate(12.371 2.364)">
                <line id="Line_10" data-name="Line 10" x1="2.253" y2="12.35" transform="translate(0.212 0.122)" fill="#fff"/>
                <rect id="Rectangle_67" data-name="Rectangle 67" width="12.583" height="0.388" transform="translate(0 12.387) rotate(-79.869)" fill="#ced4df"/>
              </g>
              <g id="Group_284" data-name="Group 284" transform="translate(6.177 1.252)">
                <line id="Line_11" data-name="Line 11" x1="2.253" y2="12.35" transform="translate(0.192 0.068)" fill="#fff"/>
                <rect id="Rectangle_68" data-name="Rectangle 68" width="12.583" height="0.388" transform="translate(0 12.387) rotate(-79.869)" fill="#ced4df"/>
              </g>
            </g>
          </g>
        </g>
      </g>
      <path id="Path_687" data-name="Path 687" d="M126.747,15.275h-13.36a1.062,1.062,0,0,1-1.087-1.087h0a1.062,1.062,0,0,1,1.087-1.087h13.36a1.062,1.062,0,0,1,1.087,1.087h0A1.062,1.062,0,0,1,126.747,15.275Z" transform="translate(997.897 1446.641)" fill="#616161" opacity="0.5"/>
      <path id="Path_688" data-name="Path 688" d="M101,15.275H93.387A1.062,1.062,0,0,1,92.3,14.187h0A1.062,1.062,0,0,1,93.387,13.1H101a1.062,1.062,0,0,1,1.087,1.087h0A1.062,1.062,0,0,1,101,15.275Z" transform="translate(1005.34 1446.641)" fill="#616161" opacity="0.5"/>
      <path id="Path_689" data-name="Path 689" d="M116.251,37.475H105.687a1.062,1.062,0,0,1-1.087-1.087h0a1.062,1.062,0,0,1,1.087-1.087h10.564a1.062,1.062,0,0,1,1.087,1.087h0A1.237,1.237,0,0,1,116.251,37.475Z" transform="translate(1000.716 1441.685)" fill="#616161" opacity="0.5"/>
      <path id="Path_690" data-name="Path 690" d="M97.029,37.475H86.387A1.062,1.062,0,0,1,85.3,36.387h0A1.062,1.062,0,0,1,86.387,35.3H96.951a1.062,1.062,0,0,1,1.087,1.087h0A1.044,1.044,0,0,1,97.029,37.475Z" transform="translate(1006.903 1441.685)" fill="#616161" opacity="0.5"/>
      <path id="Path_691" data-name="Path 691" d="M121.733,20.975H105.887a1.062,1.062,0,0,1-1.087-1.087h0a1.062,1.062,0,0,1,1.087-1.087h15.846a1.062,1.062,0,0,1,1.087,1.087h0A1.062,1.062,0,0,1,121.733,20.975Z" transform="translate(999.571 1445.369)" fill="#616161" opacity="0.5"/>
      <path id="Path_692" data-name="Path 692" d="M110.606,43.075H91.187A1.062,1.062,0,0,1,90.1,41.987h0A1.062,1.062,0,0,1,91.187,40.9h19.5a1.062,1.062,0,0,1,1.087,1.087h0A1.181,1.181,0,0,1,110.606,43.075Z" transform="translate(1005.832 1440.435)" fill="#616161" opacity="0.5"/>
      <path id="Path_693" data-name="Path 693" d="M108.287,15.275h0a1.062,1.062,0,0,1-1.087-1.087h0a1.062,1.062,0,0,1,1.087-1.087h0a1.062,1.062,0,0,1,1.087,1.087h0A1.062,1.062,0,0,1,108.287,15.275Z" transform="translate(1000.538 1446.641)" fill="#fff" opacity="0.5"/>
    </g>
  </g>
</svg>
