<svg xmlns="http://www.w3.org/2000/svg" width="202" height="62" viewBox="0 0 202 62">
  <g id="Group_25849" data-name="Group 25849" transform="translate(-561 -321.208)">
    <g id="appstore" transform="translate(801 318.423)">
      <path id="Path_27822" data-name="Path 27822" d="M375.382-17.58a8.276,8.276,0,0,1,3.948-6.959,8.407,8.407,0,0,0-6.685-3.6c-2.815-.313-5.512,1.681-6.959,1.681s-3.675-1.642-6.02-1.6a8.9,8.9,0,0,0-7.467,4.574c-3.245,5.59-.821,13.839,2.267,18.335,1.564,2.228,3.362,4.691,5.747,4.613,2.307-.078,3.167-1.486,5.981-1.486,2.776,0,3.6,1.486,6.02,1.407,2.5-.039,4.066-2.228,5.551-4.457a19.227,19.227,0,0,0,2.541-5.16,7.943,7.943,0,0,1-4.926-7.349Zm-4.574-13.526a8.126,8.126,0,0,0,1.876-5.825,8.347,8.347,0,0,0-5.356,2.776,7.8,7.8,0,0,0-1.916,5.629,6.839,6.839,0,0,0,5.395-2.58ZM404.7-6.165h-7.9L394.889-.535h-3.362l7.506-20.758h3.479L410.018-.535h-3.4Zm-7.115-2.58h6.255l-3.088-9.109h-.078Zm28.616.625c0,4.691-2.5,7.74-6.333,7.74A5.127,5.127,0,0,1,415.1-3.037h-.078V4.469h-3.088V-15.664h3.01v2.5h.039a5.3,5.3,0,0,1,4.808-2.658C423.662-15.821,426.2-12.81,426.2-8.119Zm-3.206,0c0-3.049-1.6-5.082-3.987-5.082s-3.988,2.072-3.988,5.082c0,3.049,1.6,5.082,3.988,5.082S423-5.031,423-8.119Zm19.859,0c0,4.691-2.5,7.74-6.333,7.74a5.127,5.127,0,0,1-4.769-2.658h-.078V4.469h-3.088V-15.664h3.01v2.5h.039a5.3,5.3,0,0,1,4.808-2.658c3.87,0,6.411,3.01,6.411,7.7Zm-3.206,0c0-3.049-1.6-5.082-3.987-5.082s-3.988,2.072-3.988,5.082c0,3.049,1.6,5.082,3.988,5.082S439.651-5.031,439.651-8.119Zm14.191,1.8c.235,2.072,2.228,3.4,4.965,3.4,2.619,0,4.5-1.368,4.5-3.206,0-1.6-1.134-2.58-3.831-3.245l-2.7-.665c-3.831-.938-5.59-2.7-5.59-5.59,0-3.6,3.127-6.059,7.545-6.059,4.378,0,7.389,2.463,7.506,6.059h-3.127c-.2-2.072-1.916-3.323-4.417-3.323s-4.222,1.251-4.222,3.088c0,1.486,1.095,2.346,3.753,3.01l2.307.547c4.261,1.016,6.02,2.737,6.02,5.747,0,3.87-3.088,6.333-8.014,6.333-4.613,0-7.7-2.385-7.9-6.138l3.206.039Zm19.468-12.94v3.6H476.2V-13.2H473.31v8.327c0,1.29.586,1.916,1.837,1.916a8.893,8.893,0,0,0,1.016-.078V-.574a8.535,8.535,0,0,1-1.72.156c-3.049,0-4.261-1.134-4.261-4.1V-13.2h-2.189v-2.463h2.189v-3.6h3.127Zm4.535,11.142c0-4.769,2.815-7.74,7.193-7.74s7.193,3.01,7.193,7.74c0,4.769-2.776,7.74-7.193,7.74C480.62-.34,477.845-3.35,477.845-8.119Zm11.181,0c0-3.284-1.486-5.2-4.027-5.2-2.5,0-4.027,1.955-4.027,5.2,0,3.284,1.486,5.2,4.027,5.2S489.025-4.835,489.025-8.119Zm5.747-7.545h2.971v2.58h.078a3.613,3.613,0,0,1,3.636-2.737,4.852,4.852,0,0,1,1.055.117v2.893a4.373,4.373,0,0,0-1.407-.2A3.138,3.138,0,0,0,497.86-10V-.535h-3.088ZM516.82-4.992c-.43,2.737-3.088,4.652-6.529,4.652-4.418,0-7.154-2.932-7.154-7.7,0-4.73,2.737-7.819,7-7.819,4.183,0,6.8,2.893,6.8,7.467v1.056H506.265v.2a3.94,3.94,0,0,0,3.6,4.261h.508a3.389,3.389,0,0,0,3.479-2.111ZM506.3-9.488h7.584a3.632,3.632,0,0,0-3.44-3.831h-.274a3.845,3.845,0,0,0-3.87,3.831ZM397.2-36.931a4.443,4.443,0,0,1,4.73,4.066,3.177,3.177,0,0,1-.039.86c0,3.206-1.72,5-4.691,5h-3.6v-9.93Zm-2.033,8.561h1.876a3.142,3.142,0,0,0,3.323-2.932,3.16,3.16,0,0,0-.039-.625,3.166,3.166,0,0,0-2.7-3.557,2.958,2.958,0,0,0-.586-.039h-1.876v7.154Zm8.483-2.346a3.529,3.529,0,0,1,3.206-3.87,3.529,3.529,0,0,1,3.87,3.206,1.9,1.9,0,0,1,0,.665,3.588,3.588,0,0,1-3.206,3.909,3.588,3.588,0,0,1-3.909-3.206A4.249,4.249,0,0,0,403.646-30.715Zm5.59,0c0-1.642-.743-2.58-2.033-2.58s-2.033.938-2.033,2.58.743,2.58,2.033,2.58S409.236-29.073,409.236-30.715Zm10.946,3.753h-1.525l-1.564-5.551h-.117l-1.564,5.551h-1.525l-2.072-7.545h1.525l1.329,5.747h.117l1.564-5.747h1.407l1.564,5.747h.117l1.329-5.747h1.486Zm3.831-7.506h1.446v1.212h.117a2.214,2.214,0,0,1,2.228-1.329,2.424,2.424,0,0,1,2.619,2.267v5.434h-1.486v-4.574c0-1.212-.508-1.8-1.642-1.8a1.737,1.737,0,0,0-1.8,1.642v4.691h-1.486ZM432.77-37.4h1.486v10.477H432.77Zm3.557,6.685a3.529,3.529,0,0,1,3.206-3.87,3.529,3.529,0,0,1,3.87,3.206,1.9,1.9,0,0,1,0,.665,3.588,3.588,0,0,1-3.206,3.909,3.588,3.588,0,0,1-3.909-3.206A4.242,4.242,0,0,1,436.328-30.715Zm5.551,0c0-1.642-.743-2.58-2.033-2.58s-2.033.938-2.033,2.58.743,2.58,2.033,2.58S441.879-29.073,441.879-30.715Zm3.088,1.642c0-1.368,1.016-2.15,2.815-2.228l2.033-.117v-.665c0-.782-.508-1.251-1.525-1.251-.821,0-1.407.313-1.564.821H445.28c.156-1.29,1.368-2.111,3.088-2.111,1.876,0,2.932.938,2.932,2.541v5.16h-1.446v-1.056h-.117a2.518,2.518,0,0,1-2.267,1.173,2.283,2.283,0,0,1-2.5-2.033Zm4.848-.665v-.625l-1.837.117c-1.056.078-1.525.43-1.525,1.095s.586,1.056,1.407,1.056a1.791,1.791,0,0,0,1.955-1.6v-.039Zm3.44-.977c0-2.385,1.212-3.87,3.127-3.87a2.442,2.442,0,0,1,2.307,1.329h.117V-37.4h1.486v10.477h-1.407V-28.1h-.117a2.58,2.58,0,0,1-2.346,1.329c-1.955-.078-3.167-1.564-3.167-3.948Zm1.525,0c0,1.6.743,2.541,1.994,2.541s2.033-.977,2.033-2.541-.782-2.541-2.033-2.541S454.78-32.318,454.78-30.715Zm11.65,0a3.529,3.529,0,0,1,3.206-3.87,3.529,3.529,0,0,1,3.87,3.206,1.894,1.894,0,0,1,0,.665,3.588,3.588,0,0,1-3.206,3.909,3.588,3.588,0,0,1-3.909-3.206A4.249,4.249,0,0,1,466.43-30.715Zm5.551,0c0-1.642-.743-2.58-2.033-2.58s-2.033.938-2.033,2.58.743,2.58,2.033,2.58C471.277-28.135,471.981-29.073,471.981-30.715Zm3.518-3.753h1.446v1.212h.117a2.214,2.214,0,0,1,2.228-1.329,2.424,2.424,0,0,1,2.619,2.267v5.434h-1.485v-4.574c0-1.212-.508-1.8-1.642-1.8a1.737,1.737,0,0,0-1.8,1.642v4.691H475.5v-7.545Zm14.816-1.876v1.916h1.642v1.251h-1.642v3.87c0,.782.313,1.134,1.056,1.134a2.4,2.4,0,0,0,.547-.039v1.251a5.832,5.832,0,0,1-.821.078c-1.642,0-2.307-.586-2.307-2.033v-4.261h-1.173v-1.251h1.212v-1.916h1.486Zm3.636-1.056h1.486v4.144h.117a2.233,2.233,0,0,1,2.306-1.329,2.49,2.49,0,0,1,2.619,2.346v5.317h-1.525v-4.535c0-1.212-.547-1.8-1.6-1.8a1.783,1.783,0,0,0-1.916,1.6v4.691h-1.486Zm15.129,8.405a3.088,3.088,0,0,1-3.245,2.189,3.464,3.464,0,0,1-3.518-3.323,2.4,2.4,0,0,1,.039-.547,3.478,3.478,0,0,1,2.971-3.909,2.065,2.065,0,0,1,.508-.039c2.111,0,3.362,1.446,3.362,3.792v.508h-5.317v.078a1.979,1.979,0,0,0,1.8,2.15h.2a1.826,1.826,0,0,0,1.8-.9h1.407Zm-5.2-2.424h3.792a1.807,1.807,0,0,0-1.681-1.955h-.156a1.935,1.935,0,0,0-1.955,1.955Z" transform="translate(-572.982 51.552)" fill="#fff"/>
    </g>
    <g id="Group_19157" data-name="Group 19157" transform="translate(775 322.208)">
      <g id="Group_19153" data-name="Group 19153" transform="translate(0)">
        <path id="Path_27823" data-name="Path 27823" d="M161.992-236.14H-23.267a7.457,7.457,0,0,1-7.39-7.485v-45.03a7.457,7.457,0,0,1,7.39-7.485h185.22a7.457,7.457,0,0,1,7.39,7.485v45.03a7.4,7.4,0,0,1-7.351,7.485Z" transform="translate(-182.343 296.14)" fill="none" stroke="#fff" stroke-miterlimit="10" stroke-width="2"/>
      </g>
    </g>
  </g>
</svg>
