<svg xmlns="http://www.w3.org/2000/svg" width="27.608" height="26.265" viewBox="0 0 27.608 26.265">
  <g id="Group_13812" data-name="Group 13812" transform="translate(0.064 -0.268)">
    <g id="Group_5701" data-name="Group 5701" transform="translate(0 0)">
      <g id="Group_5702" data-name="Group 5702" transform="translate(0 0)">
        <path id="Path_7205" data-name="Path 7205" d="M17.639,4.776A5.345,5.345,0,0,0,12.991.591C9.025.14,2.765-.053,2.765-.053v0l-.1,0h-.02a2.75,2.75,0,0,0-2.7,2.8,2.75,2.75,0,0,0,2.7,2.8S9.2,5.773,12.5,6.1c4.586.451,3.781,4.346,3.781,4.346A7.286,7.286,0,0,0,17.639,4.776Z" transform="translate(27.469 13.945) rotate(135)" fill="#fff"/>
        <path id="Path_7204" data-name="Path 7204" d="M16.676,4.6A5.1,5.1,0,0,0,12.281.57C8.531.136,2.613-.05,2.613-.05v0l-.1,0H2.5a2.626,2.626,0,0,0-2.549,2.7A2.625,2.625,0,0,0,2.5,5.342s6.2.216,9.316.527c4.336.434,3.574,4.183,3.574,4.183A7.116,7.116,0,0,0,16.676,4.6Z" transform="translate(21.848 9.386) rotate(135)" fill="#fff"/>
        <path id="Path_7206" data-name="Path 7206" d="M13.159,3.823A4.155,4.155,0,0,0,9.691.476C6.731.115,2.06-.039,2.06-.039v0l-.077,0H1.968A2.135,2.135,0,0,0-.044,2.2a2.135,2.135,0,0,0,2.012,2.24s4.9.179,7.353.438a2.9,2.9,0,0,1,2.821,3.476A6.17,6.17,0,0,0,13.159,3.823Z" transform="translate(15.207 6.206) rotate(135)" fill="#fff"/>
      </g>
    </g>
  </g>
</svg>
